<?xml version="1.0" encoding="UTF-8"?>
<svg version="1.1" xmlns="http://www.w3.org/2000/svg" width="148" height="148">
<path d="M0 0 C48.84 0 97.68 0 148 0 C148 48.84 148 97.68 148 148 C99.16 148 50.32 148 0 148 C0 99.16 0 50.32 0 0 Z " fill="#9FA0A0" transform="translate(0,0)"/>
<path d="M0 0 C1.5 1.3125 1.5 1.3125 3 3 C3 3.99 3 4.98 3 6 C3.66 6 4.32 6 5 6 C5 6.99 5 7.98 5 9 C6.03125 9.0825 7.0625 9.165 8.125 9.25 C12.33397057 10.06463946 14.68168257 11.32915914 18 14 C18 14.66 18 15.32 18 16 C19.2375 16.04125 20.475 16.0825 21.75 16.125 C31.62745081 17.25873256 41.82142231 23.23103671 48 31 C49.65937848 35.00853782 50 38.69796128 50 43 C50.66 43 51.32 43 52 43 C52 54.22 52 65.44 52 77 C5.8 77 -40.4 77 -88 77 C-88 75.02 -88 73.04 -88 71 C-87.34 71 -86.68 71 -86 71 C-85.95101562 70.41992188 -85.90203125 69.83984375 -85.8515625 69.2421875 C-85.40350595 64.56076908 -84.701979 60.42514541 -83 56 C-82.34 56 -81.68 56 -81 56 C-81.103125 55.113125 -81.20625 54.22625 -81.3125 53.3125 C-81.23527771 43.77554759 -76.15161113 34.78418359 -69.67578125 28.1015625 C-64.00864227 23.65058327 -57.20525789 21 -50 21 C-50 20.34 -50 19.68 -50 19 C-49.33613281 18.82984375 -48.67226563 18.6596875 -47.98828125 18.484375 C-41.35159137 16.66291851 -36.9413353 14.91200294 -33 9 C-31 12 -31 12 -31 15 C-30.34 15 -29.68 15 -29 15 C-28.62875 15.495 -28.2575 15.99 -27.875 16.5 C-25.41365346 18.46907723 -23.28379812 18.59814397 -20.18359375 18.484375 C-16.0088953 17.55832382 -13.14798847 14.75774197 -10 12 C-8.87508984 11.10405386 -7.75009857 10.20820954 -6.625 9.3125 C-3.87251067 7.08790054 -3.87251067 7.08790054 -2 4 C-1.34 4 -0.68 4 0 4 C0 2.68 0 1.36 0 0 Z " fill="#20333C" transform="translate(96,71)"/>
<path d="M0 0 C9.57 0 19.14 0 29 0 C29 37.62 29 75.24 29 114 C28.34 114 27.68 114 27 114 C26.91105469 113.23816406 26.82210937 112.47632812 26.73046875 111.69140625 C25.33133525 103.62877362 22.68962417 99.72752227 16.1171875 94.8984375 C12.1677518 92.49314207 8.17560873 90.71737228 3.82421875 89.16796875 C0.35482833 87.73318627 -2.19326374 86.53551431 -5 84 C-5.7283215 81.05024153 -5.5700047 78.26507269 -5.375 75.25 C-5.34792969 74.45722656 -5.32085937 73.66445312 -5.29296875 72.84765625 C-5.22247273 70.89726634 -5.11485499 68.94828099 -5 67 C-3.35 67 -1.7 67 0 67 C0 44.89 0 22.78 0 0 Z " fill="#D8E2DF" transform="translate(119,0)"/>
<path d="M0 0 C36.96 0 73.92 0 112 0 C112 9.57 112 19.14 112 29 C108.87110801 29.782223 106.8599909 30.11433318 103.75 30.0625 C101.89375 30.0315625 101.89375 30.0315625 100 30 C100 30.66 100 31.32 100 32 C103.3 32 106.6 32 110 32 C111.125 38.75 111.125 38.75 110 41 C106.7 41 103.4 41 100 41 C100 39.68 100 38.36 100 37 C99.01 37 98.02 37 97 37 C97.33 32.71 97.66 28.42 98 24 C98.99 23.67 99.98 23.34 101 23 C99.85959003 16.8832556 98.67694276 14.30771043 94 10 C94 9.01 94 8.02 94 7 C93.34 7 92.68 7 92 7 C92 6.34 92 5.68 92 5 C80.07488905 2.7400805 70.30283123 1.50132535 59 7 C57.29662595 9.05481732 57.29662595 9.05481732 56 11 C55.34 11 54.68 11 54 11 C54 11.99 54 12.98 54 14 C53.01 14 52.02 14 51 14 C50.67 18.95 50.34 23.9 50 29 C37.46 29 24.92 29 12 29 C12 30.65 12 32.3 12 34 C8.04 34 4.08 34 0 34 C0 22.78 0 11.56 0 0 Z " fill="#DEE7E3" transform="translate(0,0)"/>
<path d="M0 0 C2.31 0 4.62 0 7 0 C7 22.11 7 44.22 7 67 C5.35 67 3.7 67 2 67 C2.05996013 69.77315591 2.14693312 72.54089706 2.25 75.3125 C2.26417969 76.09818359 2.27835938 76.88386719 2.29296875 77.69335938 C2.38442829 82.37763935 2.38442829 82.37763935 5.046875 86.04296875 C5.69140625 86.35878906 6.3359375 86.67460938 7 87 C4.08549025 87.2378159 2.45997535 87.2848711 -0.0625 85.72265625 C-0.701875 85.17480469 -1.34125 84.62695312 -2 84.0625 C-4.97275697 81.66965585 -7.07273807 80.24545387 -11 80 C-11 79.01 -11 78.02 -11 77 C-11.66 77 -12.32 77 -13 77 C-13.66 75.35 -14.32 73.7 -15 72 C-15.66 72 -16.32 72 -17 72 C-17 71.34 -17 70.68 -17 70 C-16.01 70 -15.02 70 -14 70 C-12.68 66.7 -11.36 63.4 -10 60 C-10.66 60 -11.32 60 -12 60 C-12 59.34 -12 58.68 -12 58 C-12.66 58 -13.32 58 -14 58 C-14.66 56.02 -15.32 54.04 -16 52 C-15.34 51.34 -14.68 50.68 -14 50 C-13.37068467 47.32404177 -13.21869188 44.75551768 -13 42 C-13.33 41.67 -13.66 41.34 -14 41 C-14 41.99 -14 42.98 -14 44 C-16.97 43.505 -16.97 43.505 -20 43 C-20.18175781 42.3709375 -20.36351562 41.741875 -20.55078125 41.09375 C-21.07643997 39.30381466 -21.61919823 37.51884323 -22.17578125 35.73828125 C-23 33 -23 33 -23.48046875 30.73046875 C-24.30277519 27.4968878 -25.29146505 25.59713008 -27.86328125 23.4296875 C-37.18561742 18.22583159 -48.61470718 19.07008733 -59 19 C-60.2077558 15.37673261 -59.54311128 14.35853631 -58 11 C-57.34 11 -56.68 11 -56 11 C-55.76023437 10.38511719 -55.52046875 9.77023437 -55.2734375 9.13671875 C-53.69602158 6.48995032 -52.44905675 5.96182542 -49.625 4.8125 C-48.46871094 4.32716797 -48.46871094 4.32716797 -47.2890625 3.83203125 C-39.47550874 0.99195113 -29.22212715 0.78059596 -21.5 4.0625 C-21.005 4.371875 -20.51 4.68125 -20 5 C-20 5.66 -20 6.32 -20 7 C-19.34 7 -18.68 7 -18 7 C-18 7.99 -18 8.98 -18 10 C-17.401875 10.226875 -16.80375 10.45375 -16.1875 10.6875 C-13.31988887 12.40806668 -12.37940051 13.96531888 -11 17 C-10.8125 20.3125 -10.8125 20.3125 -11 23 C-11.99 23.495 -11.99 23.495 -13 24 C-13.43103098 26.51948641 -13.43103098 26.51948641 -13.5625 29.4375 C-13.9058296 34.81165919 -13.9058296 34.81165919 -15 37 C-14.01 37 -13.02 37 -12 37 C-12 38.32 -12 39.64 -12 41 C-8.7 41 -5.4 41 -2 41 C-2 38.03 -2 35.06 -2 32 C-5.3 32 -8.6 32 -12 32 C-12 31.34 -12 30.68 -12 30 C-8.04 29.67 -4.08 29.34 0 29 C0 19.43 0 9.86 0 0 Z " fill="#997A69" transform="translate(112,0)"/>
<path d="M0 0 C0 0.66 0 1.32 0 2 C0.94875 2.309375 1.8975 2.61875 2.875 2.9375 C6 4 6 4 8 5 C7.5359375 5.8971875 7.5359375 5.8971875 7.0625 6.8125 C5.89790296 9.08956772 5.89790296 9.08956772 5 12 C5.928125 11.896875 6.85625 11.79375 7.8125 11.6875 C11 12 11 12 12.9375 14 C14.3896642 18.10022832 13.79313462 20.74591432 13 25 C12.01 25 11.02 25 10 25 C10 25.66 10 26.32 10 27 C11.32 26.67 12.64 26.34 14 26 C14.05406122 27.93719378 14.09282025 29.87481921 14.125 31.8125 C14.14820313 32.89144531 14.17140625 33.97039062 14.1953125 35.08203125 C14 38 14 38 12 41 C12.66 42.32 13.32 43.64 14 45 C12.04364894 46.64824073 10.08504561 48.29366312 8.125 49.9375 C7.56941406 50.40607422 7.01382813 50.87464844 6.44140625 51.35742188 C2.45223927 54.69774844 0.54845828 56.13640655 -4.625 56.0625 C-5.85089844 56.04896484 -5.85089844 56.04896484 -7.1015625 56.03515625 C-7.72804688 56.02355469 -8.35453125 56.01195312 -9 56 C-9.66 54.68 -10.32 53.36 -11 52 C-11.66 52 -12.32 52 -13 52 C-13.18175781 51.34773438 -13.36351563 50.69546875 -13.55078125 50.0234375 C-14.98023026 45.05335324 -16.59228698 40.59654303 -19 36 C-19.34852229 34.67055609 -19.67981004 33.33655051 -20 32 C-20.26039062 31.20464844 -20.52078125 30.40929687 -20.7890625 29.58984375 C-22.95941776 22.70352962 -23.14158368 17.11082844 -22 10 C-22.66 10 -23.32 10 -24 10 C-24 8.02 -24 6.04 -24 4 C-23.34 4 -22.68 4 -22 4 C-22 3.34 -22 2.68 -22 2 C-14.58569409 0.16282685 -7.62314474 -0.23576736 0 0 Z " fill="#E3B097" transform="translate(78,34)"/>
<path d="M0 0 C6.93 0 13.86 0 21 0 C21 28.05 21 56.1 21 85 C20.34 85 19.68 85 19 85 C18.91105469 84.23816406 18.82210937 83.47632812 18.73046875 82.69140625 C17.30255307 74.46291375 14.50962414 70.69355913 7.80859375 65.78125 C4.58427854 63.73634355 1.61657439 62.2055248 -2 61 C-1.01 60.505 -1.01 60.505 0 60 C0.99 60.33 1.98 60.66 3 61 C3 54.07 3 47.14 3 40 C2.34 40 1.68 40 1 40 C0.25578076 26.64392262 -0.1021208 13.37782427 0 0 Z " fill="#AAAEB1" transform="translate(127,29)"/>
<path d="M0 0 C0.66 0 1.32 0 2 0 C2 1.32 2 2.64 2 4 C2.60884033 4.00410889 3.21768066 4.00821777 3.8449707 4.01245117 C29.31361287 4.31361287 29.31361287 4.31361287 37 12 C37.7013284 14.32315031 38.36485174 16.65789079 39 19 C39.37125 19.86625 39.7425 20.7325 40.125 21.625 C41.08608427 24.23365729 41.15757882 26.24237071 41 29 C42.98 29.33 44.96 29.66 47 30 C46.67 28.35 46.34 26.7 46 25 C47.5625 26 47.5625 26 49 28 C49.10864479 32.34579144 48.41848643 35.37227035 46 39 C46.3121764 41.64632287 46.3121764 41.64632287 47 44 C47.66 44 48.32 44 49 44 C49 44.66 49 45.32 49 46 C49.66 46 50.32 46 51 46 C50.44894091 49.9492568 49.61064629 53.34920174 48 57 C46.68 56.67 45.36 56.34 44 56 C44.226875 56.763125 44.45375 57.52625 44.6875 58.3125 C44.8421875 59.6428125 44.8421875 59.6428125 45 61 C43.5625 62.8125 43.5625 62.8125 42 64 C39 63 39 63 37 61 C37.99 60.67 38.98 60.34 40 60 C40 55.71 40 51.42 40 47 C39.01 47 38.02 47 37 47 C37 46.34 37 45.68 37 45 C37.99 45 38.98 45 40 45 C40.16682272 40.07872966 40.24828052 36.49656104 38 32 C36.02 32 34.04 32 32 32 C32.61277612 29.03824877 33.25372522 27.61941217 35 25 C34.05125 24.690625 33.1025 24.38125 32.125 24.0625 C29 23 29 23 27 22 C27 21.34 27 20.68 27 20 C19.74 20.66 12.48 21.32 5 22 C5 22.66 5 23.32 5 24 C4.34 24 3.68 24 3 24 C3 25.98 3 27.96 3 30 C3.66 30 4.32 30 5 30 C5 31.98 5 33.96 5 36 C4.01 35.34 3.02 34.68 2 34 C1.65942383 31.47802734 1.65942383 31.47802734 1.70703125 28.3359375 C1.71669922 27.21445312 1.72636719 26.09296875 1.73632812 24.9375 C1.76146484 23.761875 1.78660156 22.58625 1.8125 21.375 C1.82603516 20.19164063 1.83957031 19.00828125 1.85351562 17.7890625 C1.88896084 14.85892461 1.93837231 11.92968541 2 9 C1.34 9 0.68 9 0 9 C0 10.98 0 12.96 0 15 C-0.33 15 -0.66 15 -1 15 C-1.10251672 9.87416389 -1.03590199 5.05002222 0 0 Z " fill="#E2B39D" transform="translate(51,14)"/>
<path d="M0 0 C3.3 0 6.6 0 10 0 C11.80466983 1.80466983 11.41492558 4.73102816 11.62109375 7.1875 C11.74613281 7.785625 11.87117187 8.38375 12 9 C12.66 9.33 13.32 9.66 14 10 C14.125 16.75 14.125 16.75 13 19 C12.84932786 20.4465242 12.75138964 21.8987934 12.68359375 23.3515625 C12.64169922 24.20234375 12.59980469 25.053125 12.55664062 25.9296875 C12.51732422 26.81914063 12.47800781 27.70859375 12.4375 28.625 C12.39431641 29.5221875 12.35113281 30.419375 12.30664062 31.34375 C12.20043139 33.56234283 12.09838806 35.7810488 12 38 C13.32 38.33 14.64 38.66 16 39 C16 41.31 16 43.62 16 46 C14.45963043 46.19787356 12.91759048 46.38275863 11.375 46.5625 C10.08722656 46.71912109 10.08722656 46.71912109 8.7734375 46.87890625 C6 47 6 47 0 46 C0 30.82 0 15.64 0 0 Z " fill="#6D7375" transform="translate(0,35)"/>
<path d="M0 0 C1.8871875 0.061875 1.8871875 0.061875 3.8125 0.125 C3.8125 1.445 3.8125 2.765 3.8125 4.125 C5.4625 4.455 7.1125 4.785 8.8125 5.125 C8.8125 5.785 8.8125 6.445 8.8125 7.125 C4.16400485 9.5242233 -0.09836074 9.32457409 -5.1875 9.125 C-5.04707123 10.77130328 -4.90000671 12.41704179 -4.75 14.0625 C-4.66878906 14.97902344 -4.58757812 15.89554688 -4.50390625 16.83984375 C-4.42705024 19.08659732 -4.42705024 19.08659732 -3.1875 20.125 C-1.84002916 20.35575082 -0.48372435 20.53653063 0.875 20.6875 C2.174375 20.831875 3.47375 20.97625 4.8125 21.125 C4.8125 20.465 4.8125 19.805 4.8125 19.125 C6.1325 18.795 7.4525 18.465 8.8125 18.125 C8.8125 17.465 8.8125 16.805 8.8125 16.125 C9.740625 16.00125 9.740625 16.00125 10.6875 15.875 C12.99687567 15.31241541 12.99687567 15.31241541 14.0625 13.0625 C14.31 12.423125 14.5575 11.78375 14.8125 11.125 C15.8025 11.125 16.7925 11.125 17.8125 11.125 C17.8125 10.465 17.8125 9.805 17.8125 9.125 C18.4725 9.125 19.1325 9.125 19.8125 9.125 C19.8125 8.135 19.8125 7.145 19.8125 6.125 C20.8025 5.795 21.7925 5.465 22.8125 5.125 C22.86656122 7.06219378 22.90532025 8.99981921 22.9375 10.9375 C22.96070313 12.01644531 22.98390625 13.09539062 23.0078125 14.20703125 C22.8125 17.125 22.8125 17.125 20.8125 20.125 C21.4725 21.445 22.1325 22.765 22.8125 24.125 C20.85614894 25.77324073 18.89754561 27.41866312 16.9375 29.0625 C16.38191406 29.53107422 15.82632813 29.99964844 15.25390625 30.48242188 C11.26473927 33.82274844 9.36095828 35.26140655 4.1875 35.1875 C2.96160156 35.17396484 2.96160156 35.17396484 1.7109375 35.16015625 C1.08445312 35.14855469 0.45796875 35.13695312 -0.1875 35.125 C-0.8475 33.805 -1.5075 32.485 -2.1875 31.125 C-2.8475 31.125 -3.5075 31.125 -4.1875 31.125 C-4.36925781 30.47273438 -4.55101563 29.82046875 -4.73828125 29.1484375 C-6.38104839 23.42271266 -6.38104839 23.42271266 -8.9375 18.0625 C-10.94028588 13.35595319 -10.21144728 8.67328508 -8.32421875 3.9765625 C-6.17130374 0.46975248 -3.84771309 -0.12615453 0 0 Z " fill="#AC8271" transform="translate(69.1875,54.875)"/>
<path d="M0 0 C3.5 0.125 3.5 0.125 4.5 1.125 C4.54080783 3.12458364 4.54254356 5.12545254 4.5 7.125 C3.51 7.62 3.51 7.62 2.5 8.125 C1.18139486 11.72278356 1.18321738 15.58393187 0.9375 19.375 C0.85371094 20.63828125 0.76992187 21.9015625 0.68359375 23.203125 C0.62300781 24.16734375 0.56242188 25.1315625 0.5 26.125 C1.16 26.125 1.82 26.125 2.5 26.125 C2.83 24.805 3.16 23.485 3.5 22.125 C3.5 23.775 3.5 25.425 3.5 27.125 C2.84 27.125 2.18 27.125 1.5 27.125 C1.54125 27.82625 1.5825 28.5275 1.625 29.25 C1.48243348 32.52903004 0.61284672 35.04830613 -0.5 38.125 C-0.84976758 39.45411682 -1.19096017 40.78582739 -1.5 42.125 C-2.16 42.125 -2.82 42.125 -3.5 42.125 C-3.5 44.105 -3.5 46.085 -3.5 48.125 C-6.14 48.125 -8.78 48.125 -11.5 48.125 C-11.5 34.265 -11.5 20.405 -11.5 6.125 C-8.86 6.125 -6.22 6.125 -3.5 6.125 C-3.7784375 4.9184375 -3.7784375 4.9184375 -4.0625 3.6875 C-4.206875 2.841875 -4.35125 1.99625 -4.5 1.125 C-3.5 0.125 -3.5 0.125 0 0 Z " fill="#676A6E" transform="translate(11.5,99.875)"/>
<path d="M0 0 C2.31 0 4.62 0 7 0 C7 22.11 7 44.22 7 67 C4.69 67 2.38 67 0 67 C-0.33 59.74 -0.66 52.48 -1 45 C-3.31 45 -5.62 45 -8 45 C-8 44.34 -8 43.68 -8 43 C-6.02 43 -4.04 43 -2 43 C-2 39.37 -2 35.74 -2 32 C-5.3 32 -8.6 32 -12 32 C-12 31.34 -12 30.68 -12 30 C-8.04 29.67 -4.08 29.34 0 29 C0 19.43 0 9.86 0 0 Z " fill="#74777A" transform="translate(112,0)"/>
<path d="M0 0 C12.54 0 25.08 0 38 0 C37.34 0.66 36.68 1.32 36 2 C37.32 2.66 38.64 3.32 40 4 C40.04241723 6.33294775 40.04092937 8.66702567 40 11 C38.02170928 12.97829072 34.17672973 12.25503932 31.46484375 12.31640625 C30.71159317 12.33718735 29.95834259 12.35796844 29.18226624 12.37937927 C26.7674401 12.44495425 24.35250202 12.50379621 21.9375 12.5625 C20.30402471 12.6056777 18.6705609 12.64929173 17.03710938 12.69335938 C13.02485536 12.80064362 9.01248836 12.90188821 5 13 C4.67 14.32 4.34 15.64 4 17 C4 16.34 4 15.68 4 15 C3.01 15 2.02 15 1 15 C0.67 12.03 0.34 9.06 0 6 C-3.96 6 -7.92 6 -12 6 C-12 5.67 -12 5.34 -12 5 C-8.04 5 -4.08 5 0 5 C0 3.35 0 1.7 0 0 Z " fill="#B1B5B4" transform="translate(12,29)"/>
<path d="M0 0 C0.33 0 0.66 0 1 0 C1.33 21.78 1.66 43.56 2 66 C3.65 66.33 5.3 66.66 7 67 C7 54.46 7 41.92 7 29 C7.33 29 7.66 29 8 29 C8.85439108 42.34986067 9.11978427 55.62409026 9 69 C9.66 69 10.32 69 11 69 C11 75.93 11 82.86 11 90 C-1.54223652 87.4915527 -1.54223652 87.4915527 -5 84 C-5.7038583 81.04289084 -5.57017192 78.26765821 -5.375 75.25 C-5.34792969 74.45722656 -5.32085937 73.66445312 -5.29296875 72.84765625 C-5.22247273 70.89726634 -5.11485499 68.94828099 -5 67 C-3.35 67 -1.7 67 0 67 C0 44.89 0 22.78 0 0 Z " fill="#B3BBBC" transform="translate(119,0)"/>
<path d="M0 0 C2.31 0 4.62 0 7 0 C7 9.57 7 19.14 7 29 C3.87110801 29.782223 1.8599909 30.11433318 -1.25 30.0625 C-3.10625 30.0315625 -3.10625 30.0315625 -5 30 C-5 30.66 -5 31.32 -5 32 C-1.7 32 1.6 32 5 32 C6.125 38.75 6.125 38.75 5 41 C1.7 41 -1.6 41 -5 41 C-5 39.68 -5 38.36 -5 37 C-5.99 37 -6.98 37 -8 37 C-7.67 32.71 -7.34 28.42 -7 24 C-6.01 23.67 -5.02 23.34 -4 23 C-3.26676204 20.98491642 -3.26676204 20.98491642 -3 19 C-2 20 -2 20 -1.9375 23.5625 C-1.958125 24.696875 -1.97875 25.83125 -2 27 C-1.34 27 -0.68 27 0 27 C0 23.37 0 19.74 0 16 C-0.66 15.67 -1.32 15.34 -2 15 C-1.855625 14.195625 -1.71125 13.39125 -1.5625 12.5625 C-0.90311661 8.38640519 -0.43908647 4.20401941 0 0 Z " fill="#CDD7D2" transform="translate(105,0)"/>
<path d="M0 0 C0.33 0.66 0.66 1.32 1 2 C4.3 2 7.6 2 11 2 C11.33 13.22 11.66 24.44 12 36 C8.7 35.34 5.4 34.68 2 34 C2 33.01 2 32.02 2 31 C1.34 31 0.68 31 0 31 C-0.66 29.35 -1.32 27.7 -2 26 C-2.66 26 -3.32 26 -4 26 C-4 25.34 -4 24.68 -4 24 C-3.01 24 -2.02 24 -1 24 C0.32 20.7 1.64 17.4 3 14 C2.34 14 1.68 14 1 14 C1 13.34 1 12.68 1 12 C0.34 12 -0.32 12 -1 12 C-1.66 10.02 -2.32 8.04 -3 6 C-2.34 5.34 -1.68 4.68 -1 4 C-0.3574765 1.93125966 -0.3574765 1.93125966 0 0 Z " fill="#959495" transform="translate(99,46)"/>
<path d="M0 0 C6.7281627 -0.22262303 12.53991163 0.04978464 19 2 C19 2.33 19 2.66 19 3 C13.39 3 7.78 3 2 3 C4.64 3.33 7.28 3.66 10 4 C10 4.33 10 4.66 10 5 C8.35 5 6.7 5 5 5 C5 5.66 5 6.32 5 7 C5.99 7 6.98 7 8 7 C8 7.99 8 8.98 8 10 C10.64 11.32 13.28 12.64 16 14 C16 14.66 16 15.32 16 16 C13.83125748 15.49396008 12.00032373 15.00016187 10 14 C7.82325217 13.84530633 5.6421652 13.74997894 3.4609375 13.68359375 C2.15898438 13.64169922 0.85703125 13.59980469 -0.484375 13.55664062 C-1.86458045 13.51682701 -3.24478883 13.47711478 -4.625 13.4375 C-6.01303415 13.39430593 -7.40105528 13.35069135 -8.7890625 13.30664062 C-12.19260256 13.20028 -15.59621778 13.09825286 -19 13 C-19.33 12.01 -19.66 11.02 -20 10 C-16.05812987 5.69977804 -11.82690105 1.42297327 -5.7734375 0.75390625 C-3.84721384 0.75050303 -1.92150118 0.86515781 0 1 C0 0.67 0 0.34 0 0 Z " fill="#775C4E" transform="translate(72,6)"/>
<path d="M0 0 C0 0.66 0 1.32 0 2 C0.66 2 1.32 2 2 2 C2 2.99 2 3.98 2 5 C2.598125 5.226875 3.19625 5.45375 3.8125 5.6875 C6.59348403 7.35609042 7.5641916 9.1283832 9 12 C9 12.66 9 13.32 9 14 C6.03824877 13.38722388 4.61941217 12.74627478 2 11 C2 10.34 2 9.68 2 9 C1.01 9 0.02 9 -1 9 C-0.505 10.98 -0.505 10.98 0 13 C0.99 13 1.98 13 3 13 C3.495 14.485 3.495 14.485 4 16 C-0.22753707 15.32359407 -3.44197656 13.2825056 -7 11 C-7.33 10.01 -7.66 9.02 -8 8 C-10.84412317 6.15006148 -13.40490751 5.67015522 -16.75 5.375 C-17.54921875 5.30023438 -18.3484375 5.22546875 -19.171875 5.1484375 C-19.77515625 5.09945313 -20.3784375 5.05046875 -21 5 C-17.57905758 2.71937172 -16.31812778 2.78074993 -12.3125 2.875 C-10.82169922 2.90207031 -10.82169922 2.90207031 -9.30078125 2.9296875 C-8.54152344 2.95289063 -7.78226563 2.97609375 -7 3 C-9.47378124 1.76310938 -11.17915317 1.86689913 -13.9375 1.875 C-14.81277344 1.87242187 -15.68804687 1.86984375 -16.58984375 1.8671875 C-19.14459056 1.90177997 -19.14459056 1.90177997 -22 3 C-22.886875 2.9175 -23.77375 2.835 -24.6875 2.75 C-28.80831485 3.06100489 -30.93468163 4.58233602 -34.265625 6.90625 C-36 8 -36 8 -38 8 C-38 7.34 -38 6.68 -38 6 C-37.34 6 -36.68 6 -36 6 C-35.64035156 5.07767578 -35.64035156 5.07767578 -35.2734375 4.13671875 C-33.69602158 1.48995032 -32.44905675 0.96182542 -29.625 -0.1875 C-28.46871094 -0.67283203 -28.46871094 -0.67283203 -27.2890625 -1.16796875 C-19.30278861 -4.0708294 -7.41776328 -4.63610205 0 0 Z " fill="#A79787" transform="translate(92,5)"/>
<path d="M0 0 C0.33 0 0.66 0 1 0 C1 1.65 1 3.3 1 5 C3.97 5.495 3.97 5.495 7 6 C6.67 4.35 6.34 2.7 6 1 C7.5625 2 7.5625 2 9 4 C9.10864479 8.34579144 8.41848643 11.37227035 6 15 C6.3121764 17.64632287 6.3121764 17.64632287 7 20 C7.66 20 8.32 20 9 20 C9 20.66 9 21.32 9 22 C9.66 22 10.32 22 11 22 C10.44894091 25.9492568 9.61064629 29.34920174 8 33 C6.68 32.67 5.36 32.34 4 32 C4.226875 32.763125 4.45375 33.52625 4.6875 34.3125 C4.790625 35.199375 4.89375 36.08625 5 37 C3.5625 38.8125 3.5625 38.8125 2 40 C-1 39 -1 39 -3 37 C-1.515 36.505 -1.515 36.505 0 36 C0 31.71 0 27.42 0 23 C-0.99 23 -1.98 23 -3 23 C-3 22.34 -3 21.68 -3 21 C-2.01 21 -1.02 21 0 21 C-0.020625 20.071875 -0.04125 19.14375 -0.0625 18.1875 C0 15 0 15 1 12 C0.67 11.34 0.34 10.68 0 10 C-0.06996014 8.29297265 -0.08440154 6.58331997 -0.0625 4.875 C-0.05347656 3.96492188 -0.04445313 3.05484375 -0.03515625 2.1171875 C-0.02355469 1.41851562 -0.01195313 0.71984375 0 0 Z " fill="#CAAEA4" transform="translate(91,38)"/>
<path d="M0 0 C0.66 0 1.32 0 2 0 C2 7.92 2 15.84 2 24 C-9.22 24 -20.44 24 -32 24 C-32.33 22.35 -32.66 20.7 -33 19 C-31.0769111 17.0769111 -27.52929515 17.74678162 -24.90234375 17.68359375 C-24.19348526 17.66281265 -23.48462677 17.64203156 -22.75428772 17.62062073 C-20.48212695 17.55505402 -18.20984736 17.4962077 -15.9375 17.4375 C-14.40037817 17.39432151 -12.8632685 17.35070745 -11.32617188 17.30664062 C-7.5509041 17.19936551 -3.7755164 17.09811863 0 17 C0 14.69 0 12.38 0 10 C-3.42882941 8.85705686 -6.24082838 8.79035528 -9.85546875 8.68359375 C-10.51710526 8.66281265 -11.17874176 8.64203156 -11.86042786 8.62062073 C-13.96934852 8.55535273 -16.07839135 8.49634656 -18.1875 8.4375 C-19.61915315 8.39429311 -21.05079404 8.35067812 -22.48242188 8.30664062 C-25.98815154 8.19969494 -29.49401786 8.09836359 -33 8 C-33 7.67 -33 7.34 -33 7 C-22.44 6.67 -11.88 6.34 -1 6 C-0.67 4.02 -0.34 2.04 0 0 Z " fill="#8E8D8C" transform="translate(51,23)"/>
<path d="M0 0 C0 3.72820818 -0.84132013 4.97784819 -3 8 C-4.92395293 9.79666851 -6.9177066 11.38043847 -9 13 C-9 12.34 -9 11.68 -9 11 C-9.99 10.67 -10.98 10.34 -12 10 C-12 10.66 -12 11.32 -12 12 C-13.390625 13.5078125 -13.390625 13.5078125 -15.25 15.125 C-15.85328125 15.66382812 -16.4565625 16.20265625 -17.078125 16.7578125 C-19 18 -19 18 -23 18 C-23.33 16.68 -23.66 15.36 -24 14 C-24 18.29 -24 22.58 -24 27 C-24.33 27 -24.66 27 -25 27 C-25 25.35 -25 23.7 -25 22 C-25.66 22 -26.32 22 -27 22 C-27.66 21.01 -28.32 20.02 -29 19 C-29.66 19.99 -30.32 20.98 -31 22 C-31.66 21.67 -32.32 21.34 -33 21 C-33.33 21.66 -33.66 22.32 -34 23 C-34.66 21.68 -35.32 20.36 -36 19 C-30.63964148 12.23620216 -24.21682979 9.33078701 -16 7 C-14.68 7 -13.36 7 -12 7 C-12 6.34 -12 5.68 -12 5 C-11.30132812 4.80664062 -10.60265625 4.61328125 -9.8828125 4.4140625 C-8.97273438 4.15367188 -8.06265625 3.89328125 -7.125 3.625 C-6.22007813 3.36976562 -5.31515625 3.11453125 -4.3828125 2.8515625 C-1.85430274 2.1395685 -1.85430274 2.1395685 0 0 Z " fill="#34464C" transform="translate(58,85)"/>
<path d="M0 0 C0.99 0 1.98 0 3 0 C3 10.56 3 21.12 3 32 C0.69 32 -1.62 32 -4 32 C-4.33 24.74 -4.66 17.48 -5 10 C-7.31 10 -9.62 10 -12 10 C-12 9.34 -12 8.68 -12 8 C-10.02 8 -8.04 8 -6 8 C-6 7.01 -6 6.02 -6 5 C-5.38125 4.9175 -4.7625 4.835 -4.125 4.75 C-1.81562433 4.18741541 -1.81562433 4.18741541 -0.75 1.9375 C-0.37875 0.9784375 -0.37875 0.9784375 0 0 Z " fill="#696D70" transform="translate(116,35)"/>
<path d="M0 0 C6.93 0 13.86 0 21 0 C21 3.63 21 7.26 21 11 C14.07 11 7.14 11 0 11 C0 7.37 0 3.74 0 0 Z " fill="#AAAFAE" transform="translate(127,29)"/>
<path d="M0 0 C0.33 0 0.66 0 1 0 C1 3.3 1 6.6 1 10 C1.66 10 2.32 10 3 10 C3 8.02 3 6.04 3 4 C3.99 3.67 4.98 3.34 6 3 C5.67 9.27 5.34 15.54 5 22 C3.68 22.33 2.36 22.66 1 23 C1.33 21.68 1.66 20.36 2 19 C2.66 19 3.32 19 4 19 C3.67 17.02 3.34 15.04 3 13 C0.69 13 -1.62 13 -4 13 C-4 14.65 -4 16.3 -4 18 C-6.64 18 -9.28 18 -12 18 C-12 13.05 -12 8.1 -12 3 C-9.16796875 2.51171875 -6.3359375 2.0234375 -3.50390625 1.53515625 C-1.0712562 1.25248903 -1.0712562 1.25248903 0 0 Z " fill="#858588" transform="translate(12,88)"/>
<path d="M0 0 C9.9 0.33 19.8 0.66 30 1 C30 1.66 30 2.32 30 3 C30.66 3 31.32 3 32 3 C32 4.32 32 5.64 32 7 C21.3120232 7.73259082 10.71460306 8.14036598 0 8 C-0.33 9.98 -0.66 11.96 -1 14 C-3 10 -3 10 0 0 Z " fill="#BFC7C5" transform="translate(18,32)"/>
<path d="M0 0 C2 1 2 1 3 3 C4.97888961 3.72693904 6.97954558 4.39816251 9 5 C3.85714286 10.57142857 3.85714286 10.57142857 0 11 C0 11.66 0 12.32 0 13 C-1.32 13.33 -2.64 13.66 -4 14 C-4 14.66 -4 15.32 -4 16 C-10.0546875 16.1953125 -10.0546875 16.1953125 -12 16 C-14.49505962 13.50494038 -14.35948376 12.32671112 -14.625 8.875 C-14.69976562 7.96492188 -14.77453125 7.05484375 -14.8515625 6.1171875 C-14.92503906 5.06917969 -14.92503906 5.06917969 -15 4 C-11.5094945 2.83649817 -8.66796817 3 -5 3 C-3.32442621 2.71479595 -1.65182755 2.40044304 0 2 C0 1.34 0 0.68 0 0 Z " fill="#D79875" transform="translate(78,60)"/>
<path d="M0 0 C4.29 0 8.58 0 13 0 C13.05379226 2.95857409 13.09357093 5.91617721 13.125 8.875 C13.14175781 9.71675781 13.15851563 10.55851562 13.17578125 11.42578125 C13.18222656 12.23144531 13.18867188 13.03710938 13.1953125 13.8671875 C13.20578613 14.61081543 13.21625977 15.35444336 13.22705078 16.12060547 C13 18 13 18 11 20 C8.525 19.01 8.525 19.01 6 18 C6 17.34 6 16.68 6 16 C6.66 16 7.32 16 8 16 C8 15.34 8 14.68 8 14 C5.69 13.34 3.38 12.68 1 12 C0.67 8.04 0.34 4.08 0 0 Z " fill="#D6DEDD" transform="translate(116,70)"/>
<path d="M0 0 C4 2 8 4 12 6 C12 8.31 12 10.62 12 13 C13.32 13.33 14.64 13.66 16 14 C12.65155086 15.05236973 11.40920111 15.20005388 8.1875 13.625 C7.1046875 12.820625 7.1046875 12.820625 6 12 C6 11.67 6 11.34 6 11 C3.69 10.67 1.38 10.34 -1 10 C-0.67 8.35 -0.34 6.7 0 5 C-1.258125 5.12375 -2.51625 5.2475 -3.8125 5.375 C-4.52019531 5.44460937 -5.22789063 5.51421875 -5.95703125 5.5859375 C-8.29988142 5.92665391 -8.29988142 5.92665391 -11 8 C-11.79437923 10.18505129 -11.79437923 10.18505129 -12.1875 12.625 C-12.34605469 13.44226562 -12.50460938 14.25953125 -12.66796875 15.1015625 C-12.77753906 15.72804688 -12.88710938 16.35453125 -13 17 C-15.44710376 15.13022903 -15.96931493 14.17497517 -16.51171875 11.08203125 C-16.56972656 10.00308594 -16.62773438 8.92414062 -16.6875 7.8125 C-16.75324219 6.72582031 -16.81898437 5.63914062 -16.88671875 4.51953125 C-16.92410156 3.68808594 -16.96148437 2.85664062 -17 2 C-16.34 1.67 -15.68 1.34 -15 1 C-15 1.66 -15 2.32 -15 3 C-13.35 2.34 -11.7 1.68 -10 1 C-10 1.99 -10 2.98 -10 4 C-6.7 4 -3.4 4 0 4 C0 2.68 0 1.36 0 0 Z " fill="#C47F6B" transform="translate(73,50)"/>
<path d="M0 0 C2.875 2 2.875 2 5 4 C4.56429688 4.36609375 4.12859375 4.7321875 3.6796875 5.109375 C-4.50105166 12.5464106 -8.34059562 22.4556949 -11 33 C-11.66 33 -12.32 33 -13 33 C-13 28.38 -13 23.76 -13 19 C-11.68 18.34 -10.36 17.68 -9 17 C-8.58810447 14.20328905 -8.39446824 11.7384924 -8.375 8.9375 C-8.32888544 6.26977267 -8.20653159 3.66425755 -8 1 C-5.14675563 -0.42662219 -3.16545451 -0.31033868 0 0 Z " fill="#A6AAAA" transform="translate(25,93)"/>
<path d="M0 0 C0.33 0.66 0.66 1.32 1 2 C4.3 2 7.6 2 11 2 C11 5.3 11 8.6 11 12 C9.68 12.33 8.36 12.66 7 13 C6.67 14.65 6.34 16.3 6 18 C5.01 18 4.02 18 3 18 C3.020625 19.11375 3.04125 20.2275 3.0625 21.375 C3 25 3 25 2 27 C0.02 26.67 -1.96 26.34 -4 26 C-4 25.34 -4 24.68 -4 24 C-3.01 24 -2.02 24 -1 24 C0.32 20.7 1.64 17.4 3 14 C2.34 14 1.68 14 1 14 C1 13.34 1 12.68 1 12 C0.34 12 -0.32 12 -1 12 C-1.66 10.02 -2.32 8.04 -3 6 C-2.34 5.34 -1.68 4.68 -1 4 C-0.3574765 1.93125966 -0.3574765 1.93125966 0 0 Z " fill="#9F9C9C" transform="translate(99,46)"/>
<path d="M0 0 C0 1.65 0 3.3 0 5 C-0.66 5 -1.32 5 -2 5 C-2.0825 5.94875 -2.165 6.8975 -2.25 7.875 C-3 11 -3 11 -5.0625 12.375 C-5.701875 12.58125 -6.34125 12.7875 -7 13 C-7 13.99 -7 14.98 -7 16 C-12.59808214 17.86602738 -18.67262638 17.85898614 -24.125 15.5 C-25.07375 15.005 -26.0225 14.51 -27 14 C-27 13.34 -27 12.68 -27 12 C-23.7 12.33 -20.4 12.66 -17 13 C-17 12.34 -17 11.68 -17 11 C-15.68 10.67 -14.36 10.34 -13 10 C-13 9.34 -13 8.68 -13 8 C-12.38125 7.9175 -11.7625 7.835 -11.125 7.75 C-8.81562433 7.18741541 -8.81562433 7.18741541 -7.75 4.9375 C-7.5025 4.298125 -7.255 3.65875 -7 3 C-6.01 3 -5.02 3 -4 3 C-4 2.34 -4 1.68 -4 1 C-2 0 -2 0 0 0 Z " fill="#66493A" transform="translate(91,63)"/>
<path d="M0 0 C1.23556641 0.01740234 1.23556641 0.01740234 2.49609375 0.03515625 C3.32238281 0.04417969 4.14867188 0.05320313 5 0.0625 C5.63808594 0.07410156 6.27617188 0.08570313 6.93359375 0.09765625 C6.93359375 0.75765625 6.93359375 1.41765625 6.93359375 2.09765625 C4.95359375 2.09765625 2.97359375 2.09765625 0.93359375 2.09765625 C0.93359375 2.75765625 0.93359375 3.41765625 0.93359375 4.09765625 C3.24359375 4.09765625 5.55359375 4.09765625 7.93359375 4.09765625 C9.13389283 6.49825442 9.04819118 7.99126274 9.03125 10.66796875 C9.02802734 11.56386719 9.02480469 12.45976563 9.02148438 13.3828125 C9.01310547 14.31996094 9.00472656 15.25710937 8.99609375 16.22265625 C8.99158203 17.16753906 8.98707031 18.11242187 8.98242188 19.0859375 C8.97061732 21.42324012 8.95415134 23.76041686 8.93359375 26.09765625 C9.59359375 26.09765625 10.25359375 26.09765625 10.93359375 26.09765625 C10.97226563 27.88623047 10.97226563 27.88623047 11.01171875 29.7109375 C11.06799814 31.27738045 11.12534552 32.84378528 11.18359375 34.41015625 C11.19777344 35.19583984 11.21195313 35.98152344 11.2265625 36.79101562 C11.31802204 41.4752956 11.31802204 41.4752956 13.98046875 45.140625 C14.94726562 45.61435547 14.94726562 45.61435547 15.93359375 46.09765625 C13.74609375 46.41015625 13.74609375 46.41015625 10.93359375 46.09765625 C8.12109375 43.59765625 8.12109375 43.59765625 5.93359375 41.09765625 C6.59359375 41.09765625 7.25359375 41.09765625 7.93359375 41.09765625 C7.76988281 40.23011719 7.60617188 39.36257812 7.4375 38.46875 C6.57151925 32.40688477 6.82945572 26.26813441 6.87109375 20.16015625 C6.87786133 18.27586914 6.87786133 18.27586914 6.88476562 16.35351562 C6.89649694 13.26817962 6.91291275 10.18294309 6.93359375 7.09765625 C3.63359375 7.09765625 0.33359375 7.09765625 -3.06640625 7.09765625 C-3.10894981 5.09810879 -3.10721408 3.09723989 -3.06640625 1.09765625 C-2.06640625 0.09765625 -2.06640625 0.09765625 0 0 Z " fill="#828185" transform="translate(103.06640625,40.90234375)"/>
<path d="M0 0 C7.26 0 14.52 0 22 0 C23 5 23 5 22 7 C21.01 6.67 20.02 6.34 19 6 C19 5.34 19 4.68 19 4 C18.01 4 17.02 4 16 4 C16 4.66 16 5.32 16 6 C5.62642369 10.77676538 5.62642369 10.77676538 0 9 C-1.125 2.25 -1.125 2.25 0 0 Z " fill="#B0B4B4" transform="translate(29,46)"/>
<path d="M0 0 C7.71484375 -0.09765625 7.71484375 -0.09765625 10 0 C11.58272601 1.58272601 11.34735747 3.38034003 11.5625 5.5625 C11.64628906 6.38878906 11.73007813 7.21507812 11.81640625 8.06640625 C11.87699219 8.70449219 11.93757812 9.34257813 12 10 C10.35 10.33 8.7 10.66 7 11 C6.34 13.31 5.68 15.62 5 18 C3.35 18.33 1.7 18.66 0 19 C0 12.73 0 6.46 0 0 Z " fill="#898789" transform="translate(0,35)"/>
<path d="M0 0 C1.5 1.3125 1.5 1.3125 3 3 C3 3.99 3 4.98 3 6 C3.66 6 4.32 6 5 6 C5 6.99 5 7.98 5 9 C6.03125 9.0825 7.0625 9.165 8.125 9.25 C12.33397057 10.06463946 14.68168257 11.32915914 18 14 C18 14.66 18 15.32 18 16 C19.98 16 21.96 16 24 16 C22.375 17.125 22.375 17.125 20 18 C17.125 17.25 17.125 17.25 14 16 C12.906875 15.67 11.81375 15.34 10.6875 15 C8 14 8 14 7 12 C6.01 11.67 5.02 11.34 4 11 C4 11.66 4 12.32 4 13 C3.32453125 13.06058594 2.6490625 13.12117188 1.953125 13.18359375 C1.06109375 13.26738281 0.1690625 13.35117188 -0.75 13.4375 C-1.63171875 13.51871094 -2.5134375 13.59992188 -3.421875 13.68359375 C-5.95981455 13.93300265 -5.95981455 13.93300265 -8.203125 14.59765625 C-10 15 -10 15 -12 14 C-11.44570312 13.52949219 -10.89140625 13.05898437 -10.3203125 12.57421875 C-9.59585938 11.95160156 -8.87140625 11.32898438 -8.125 10.6875 C-7.40570313 10.07261719 -6.68640625 9.45773438 -5.9453125 8.82421875 C-3.80820669 6.9587676 -3.80820669 6.9587676 -2 4 C-1.34 4 -0.68 4 0 4 C0 2.68 0 1.36 0 0 Z " fill="#384E58" transform="translate(96,71)"/>
<path d="M0 0 C3.5 0.125 3.5 0.125 4.5 1.125 C4.54080783 3.12458364 4.54254356 5.12545254 4.5 7.125 C3.51 7.62 3.51 7.62 2.5 8.125 C1.84 9.775 1.18 11.425 0.5 13.125 C-3.13 13.125 -6.76 13.125 -10.5 13.125 C-10.5 13.785 -10.5 14.445 -10.5 15.125 C-8.85 15.125 -7.2 15.125 -5.5 15.125 C-5.83 15.785 -6.16 16.445 -6.5 17.125 C-8.15 16.795 -9.8 16.465 -11.5 16.125 C-11.5 12.825 -11.5 9.525 -11.5 6.125 C-8.86 6.125 -6.22 6.125 -3.5 6.125 C-3.7784375 4.9184375 -3.7784375 4.9184375 -4.0625 3.6875 C-4.206875 2.841875 -4.35125 1.99625 -4.5 1.125 C-3.5 0.125 -3.5 0.125 0 0 Z " fill="#737578" transform="translate(11.5,99.875)"/>
<path d="M0 0 C0.5259375 0.47953125 1.051875 0.9590625 1.59375 1.453125 C-0.71625 1.783125 -3.02625 2.113125 -5.40625 2.453125 C-5.40625 1.793125 -5.40625 1.133125 -5.40625 0.453125 C-6.06625 0.453125 -6.72625 0.453125 -7.40625 0.453125 C-7.40625 1.773125 -7.40625 3.093125 -7.40625 4.453125 C-9.84375 4.078125 -9.84375 4.078125 -12.40625 3.453125 C-12.73625 2.793125 -13.06625 2.133125 -13.40625 1.453125 C-14.39625 1.123125 -15.38625 0.793125 -16.40625 0.453125 C-16.73625 2.103125 -17.06625 3.753125 -17.40625 5.453125 C-23.80625 6.68389423 -23.80625 6.68389423 -26.84375 5.515625 C-27.359375 5.165 -27.875 4.814375 -28.40625 4.453125 C-28.40625 2.473125 -28.40625 0.493125 -28.40625 -1.546875 C-6.46875 -4.15848214 -6.46875 -4.15848214 0 0 Z " fill="#B4775B" transform="translate(82.40625,39.546875)"/>
<path d="M0 0 C0 0.66 0 1.32 0 2 C0.66 2 1.32 2 2 2 C2 2.66 2 3.32 2 4 C0.54119891 3.85892253 -0.91703551 3.71197585 -2.375 3.5625 C-3.59316406 3.44068359 -3.59316406 3.44068359 -4.8359375 3.31640625 C-7 3 -7 3 -9 2 C-10.64356807 1.90414869 -12.29114642 1.87016489 -13.9375 1.875 C-14.81277344 1.87242187 -15.68804687 1.86984375 -16.58984375 1.8671875 C-19.14459056 1.90177997 -19.14459056 1.90177997 -22 3 C-22.886875 2.9175 -23.77375 2.835 -24.6875 2.75 C-28.80831485 3.06100489 -30.93468163 4.58233602 -34.265625 6.90625 C-36 8 -36 8 -38 8 C-38 7.34 -38 6.68 -38 6 C-37.34 6 -36.68 6 -36 6 C-35.64035156 5.07767578 -35.64035156 5.07767578 -35.2734375 4.13671875 C-33.69602158 1.48995032 -32.44905675 0.96182542 -29.625 -0.1875 C-28.46871094 -0.67283203 -28.46871094 -0.67283203 -27.2890625 -1.16796875 C-19.30278861 -4.0708294 -7.41776328 -4.63610205 0 0 Z " fill="#BAB2A3" transform="translate(92,5)"/>
<path d="M0 0 C0.99 0.33 1.98 0.66 3 1 C2.34 2.32 1.68 3.64 1 5 C0.34 5 -0.32 5 -1 5 C-1 5.99 -1 6.98 -1 8 C-1.99 8 -2.98 8 -4 8 C-4.33 12.95 -4.66 17.9 -5 23 C-17.54 23 -30.08 23 -43 23 C-43 24.65 -43 26.3 -43 28 C-46.96 28 -50.92 28 -55 28 C-55 27.67 -55 27.34 -55 27 C-51.7 27 -48.4 27 -45 27 C-44.67 25.35 -44.34 23.7 -44 22 C-39.78866447 20.97638691 -35.83810136 20.88510717 -31.51171875 20.90234375 C-30.80852005 20.9037587 -30.10532135 20.90517365 -29.3808136 20.90663147 C-27.14966456 20.91219891 -24.91861836 20.92474525 -22.6875 20.9375 C-21.16862125 20.94251921 -19.64974091 20.94708138 -18.13085938 20.95117188 C-14.42053988 20.96215764 -10.71027999 20.97939966 -7 21 C-6.95101562 20.10796875 -6.90203125 19.2159375 -6.8515625 18.296875 C-6.77679688 17.12640625 -6.70203125 15.9559375 -6.625 14.75 C-6.55539063 13.58984375 -6.48578125 12.4296875 -6.4140625 11.234375 C-6.03751692 8.29305666 -5.5225877 6.50050989 -4 4 C-3.01 4 -2.02 4 -1 4 C-0.67 2.68 -0.34 1.36 0 0 Z " fill="#D2D5D1" transform="translate(55,6)"/>
<path d="M0 0 C2.31 0 4.62 0 7 0 C7 1.98 7 3.96 7 6 C5.35 6.33 3.7 6.66 2 7 C1.99742188 7.60328125 1.99484375 8.2065625 1.9921875 8.828125 C1.87042093 11.34463417 1.66596659 13.56649943 1 16 C-2.0625 18.5625 -2.0625 18.5625 -5 20 C-5.66 19.67 -6.32 19.34 -7 19 C-7 15.7 -7 12.4 -7 9 C-6.21625 8.814375 -5.4325 8.62875 -4.625 8.4375 C-1.60623658 7.16038373 -1.60623658 7.16038373 -0.6875 3.375 C-0.460625 2.26125 -0.23375 1.1475 0 0 Z " fill="#5F666D" transform="translate(7,45)"/>
<path d="M0 0 C0.99 0.33 1.98 0.66 3 1 C3.12375 1.7425 3.2475 2.485 3.375 3.25 C3.87239334 5.94301062 3.87239334 5.94301062 5 8 C6.15271653 10.30543307 6.57797492 12.46784951 7 15 C5.02 16.65 3.04 18.3 1 20 C0.01 19.01 -0.98 18.02 -2 17 C-1.34 15.02 -0.68 13.04 0 11 C-2.97 10.505 -2.97 10.505 -6 10 C-6 9.01 -6 8.02 -6 7 C-6.99 7 -7.98 7 -9 7 C-8.67 5.68 -8.34 4.36 -8 3 C-6.865625 2.87625 -5.73125 2.7525 -4.5625 2.625 C-3.386875 2.41875 -2.21125 2.2125 -1 2 C-0.67 1.34 -0.34 0.68 0 0 Z " fill="#8D8B8A" transform="translate(57,66)"/>
<path d="M0 0 C0.33 0 0.66 0 1 0 C1 1.65 1 3.3 1 5 C0.34 5 -0.32 5 -1 5 C-1 6.65 -1 8.3 -1 10 C1.64 10 4.28 10 7 10 C7 10.33 7 10.66 7 11 C4.36 11 1.72 11 -1 11 C-1 11.66 -1 12.32 -1 13 C2.3 13 5.6 13 9 13 C10.125 19.75 10.125 19.75 9 22 C5.7 22 2.4 22 -1 22 C-1 20.68 -1 19.36 -1 18 C-1.99 18 -2.98 18 -4 18 C-3.67 13.71 -3.34 9.42 -3 5 C-2.01 4.67 -1.02 4.34 0 4 C0 2.68 0 1.36 0 0 Z " fill="#B7B8B4" transform="translate(101,19)"/>
<path d="M0 0 C6.6 0 13.2 0 20 0 C20 2.31 20 4.62 20 7 C13.2314676 7.10152799 6.69675136 7.03026944 0 6 C0 4.02 0 2.04 0 0 Z " fill="#77787D" transform="translate(128,41)"/>
<path d="M0 0 C0 0.66 0 1.32 0 2 C0.94875 2.309375 1.8975 2.61875 2.875 2.9375 C6 4 6 4 8 5 C6.70757149 7.88310976 5.50685536 10.0400949 3 12 C0.73828125 12.07421875 0.73828125 12.07421875 -1.6875 11.6875 C-2.49574219 11.56761719 -3.30398437 11.44773437 -4.13671875 11.32421875 C-4.75160156 11.21722656 -5.36648437 11.11023437 -6 11 C-5.01 10.67 -4.02 10.34 -3 10 C-3 8.68 -3 7.36 -3 6 C-2.34 6 -1.68 6 -1 6 C-1 6.66 -1 7.32 -1 8 C0.65 7.34 2.3 6.68 4 6 C-3.071262 2.464369 -14.16132365 3.8374468 -22 4 C-22 3.34 -22 2.68 -22 2 C-14.58569409 0.16282685 -7.62314474 -0.23576736 0 0 Z " fill="#D99D7E" transform="translate(78,34)"/>
<path d="M0 0 C0.66 0.33 1.32 0.66 2 1 C1.67 1.66 1.34 2.32 1 3 C0.84932786 4.4465242 0.75138964 5.8987934 0.68359375 7.3515625 C0.64169922 8.20234375 0.59980469 9.053125 0.55664062 9.9296875 C0.51732422 10.81914063 0.47800781 11.70859375 0.4375 12.625 C0.39431641 13.5221875 0.35113281 14.419375 0.30664062 15.34375 C0.20043139 17.56234283 0.09838806 19.7810488 0 22 C-1.98 22 -3.96 22 -6 22 C-9.125 15.375 -9.125 15.375 -8 12 C-7.01 11.34 -6.02 10.68 -5 10 C-4.31767386 7.6758266 -3.99247551 5.38851242 -3.625 2.99609375 C-3.41875 2.33738281 -3.2125 1.67867187 -3 1 C-2.01 0.67 -1.02 0.34 0 0 Z " fill="#787A7E" transform="translate(12,51)"/>
<path d="M0 0 C2.64 0 5.28 0 8 0 C8.66 1.32 9.32 2.64 10 4 C10.66 3.01 11.32 2.02 12 1 C12.66 1 13.32 1 14 1 C14 7.93 14 14.86 14 22 C13.34 22 12.68 22 12 22 C11.88785156 21.2265625 11.77570313 20.453125 11.66015625 19.65625 C10.20939682 11.9947231 8.09916639 8.23764732 1.86328125 3.5234375 C1.24839844 3.02070312 0.63351563 2.51796875 0 2 C0 1.34 0 0.68 0 0 Z " fill="#C0CBCA" transform="translate(134,92)"/>
<path d="M0 0 C0 0.33 0 0.66 0 1 C-1.65 1 -3.3 1 -5 1 C-5 1.66 -5 2.32 -5 3 C-4.01 3 -3.02 3 -2 3 C-2 3.99 -2 4.98 -2 6 C0.64 7.32 3.28 8.64 6 10 C6 10.66 6 11.32 6 12 C3.83125748 11.49396008 2.00032373 11.00016187 0 10 C-1.37206521 9.78308608 -2.75139272 9.61076837 -4.1328125 9.46484375 C-4.93847656 9.37783203 -5.74414062 9.29082031 -6.57421875 9.20117188 C-7.83685547 9.0706543 -7.83685547 9.0706543 -9.125 8.9375 C-10.39923828 8.80118164 -10.39923828 8.80118164 -11.69921875 8.66210938 C-13.7991145 8.4379632 -15.89951293 8.21853552 -18 8 C-17.2890625 4.2109375 -17.2890625 4.2109375 -14.6875 2.3125 C-9.64277436 -0.15120322 -5.55692119 -0.09261535 0 0 Z " fill="#734C3D" transform="translate(82,10)"/>
<path d="M0 0 C9.87467946 1.66328821 16.96791298 7.15475587 24 14 C23.67 14.66 23.34 15.32 23 16 C22.01 15.67 21.02 15.34 20 15 C18.9790625 15.2784375 18.9790625 15.2784375 17.9375 15.5625 C17.298125 15.706875 16.65875 15.85125 16 16 C15.34 15.34 14.68 14.68 14 14 C14.66 13.01 15.32 12.02 16 11 C14.35 11 12.7 11 11 11 C10.67 9.68 10.34 8.36 10 7 C5.545 7.495 5.545 7.495 1 8 C-0.35439668 5.29120665 -0.06501451 2.99066732 0 0 Z " fill="#465A5D" transform="translate(120,88)"/>
<path d="M0 0 C0 1.32 0 2.64 0 4 C1.65 4.33 3.3 4.66 5 5 C5 5.66 5 6.32 5 7 C-0.65590719 9.74225803 -5.98655091 9.45780584 -12 8 C-12.25 5.6875 -12.25 5.6875 -12 3 C-8.70976944 -0.97569526 -4.75485572 -0.23774279 0 0 Z " fill="#8C483D" transform="translate(73,55)"/>
<path d="M0 0 C0.05406122 1.93719378 0.09282025 3.87481921 0.125 5.8125 C0.14820312 6.89144531 0.17140625 7.97039062 0.1953125 9.08203125 C0 12 0 12 -2 15 C-1.34 16.32 -0.68 17.64 0 19 C-1.88643939 20.65778007 -3.78288717 22.30082802 -5.6875 23.9375 C-6.48317383 24.64036133 -6.48317383 24.64036133 -7.29492188 25.35742188 C-10.45706434 28.05397281 -12.81890155 29.63541442 -17 30 C-16.401875 29.443125 -15.80375 28.88625 -15.1875 28.3125 C-12.89983225 26.07831958 -12.89983225 26.07831958 -11.4375 23.25 C-10.963125 22.5075 -10.48875 21.765 -10 21 C-9.01 21 -8.02 21 -7 21 C-6.8453125 19.7315625 -6.8453125 19.7315625 -6.6875 18.4375 C-5.9171146 14.58557299 -4.63725486 11.55924969 -3 8 C-2.34 8 -1.68 8 -1 8 C-1 6.35 -1 4.7 -1 3 C-1.66 3 -2.32 3 -3 3 C-3 2.34 -3 1.68 -3 1 C-1 0 -1 0 0 0 Z " fill="#C19A83" transform="translate(92,60)"/>
<path d="M0 0 C0.66 0 1.32 0 2 0 C2.226875 0.639375 2.45375 1.27875 2.6875 1.9375 C3.85250896 4.27193661 3.85250896 4.27193661 6.625 4.75 C7.40875 4.8325 8.1925 4.915 9 5 C9.33 3.68 9.66 2.36 10 1 C11.8125 1.0625 11.8125 1.0625 14 2 C15.625 5.375 15.625 5.375 17 9 C17.99 10.485 17.99 10.485 19 12 C17.35 12.33 15.7 12.66 14 13 C14 11.68 14 10.36 14 9 C10.37 9 6.74 9 3 9 C2.67 7.68 2.34 6.36 2 5 C1.01 4.67 0.02 4.34 -1 4 C-0.67 2.68 -0.34 1.36 0 0 Z M17 8 C20 9 20 9 20 9 Z " fill="#152630" transform="translate(66,91)"/>
<path d="M0 0 C12.54 0 25.08 0 38 0 C38 0.33 38 0.66 38 1 C25.79 1 13.58 1 1 1 C1.33 1.99 1.66 2.98 2 4 C2.66 4.33 3.32 4.66 4 5 C4 4.34 4 3.68 4 3 C4.66 3 5.32 3 6 3 C6.22184509 6.88228914 5.53447513 9.45152626 4 13 C4 13.66 4 14.32 4 15 C3.01 15 2.02 15 1 15 C0.67 12.03 0.34 9.06 0 6 C-3.96 6 -7.92 6 -12 6 C-12 5.67 -12 5.34 -12 5 C-8.04 5 -4.08 5 0 5 C0 3.35 0 1.7 0 0 Z " fill="#B4B5B4" transform="translate(12,29)"/>
<path d="M0 0 C0.2475 0.61875 0.495 1.2375 0.75 1.875 C2.20628639 4.35068687 3.37812506 4.95125002 6 6 C4.0625 8.0625 4.0625 8.0625 1 10 C-2.08062179 10.05666696 -4.98465651 9.60438257 -8 9 C-7.49396008 6.83125748 -7.00016187 5.00032373 -6 3 C-7.98 3.66 -9.96 4.32 -12 5 C-12 4.01 -12 3.02 -12 2 C-7.8803623 0.70756464 -4.33168317 -0.26252625 0 0 Z " fill="#294349" transform="translate(130,94)"/>
<path d="M0 0 C1.65 0.33 3.3 0.66 5 1 C5 8.92 5 16.84 5 25 C4.01 25.33 3.02 25.66 2 26 C1.67 18.74 1.34 11.48 1 4 C-1.31 4 -3.62 4 -6 4 C-6 3.34 -6 2.68 -6 2 C-4.02 2 -2.04 2 0 2 C0 1.34 0 0.68 0 0 Z " fill="#434A51" transform="translate(110,41)"/>
<path d="M0 0 C10.89 0 21.78 0 33 0 C33 0.99 33 1.98 33 3 C22.11 3 11.22 3 0 3 C0 2.01 0 1.02 0 0 Z " fill="#6A6E6E" transform="translate(19,42)"/>
<path d="M0 0 C0.99 0 1.98 0 3 0 C3 10.23 3 20.46 3 31 C1.68 31.33 0.36 31.66 -1 32 C-0.67 21.44 -0.34 10.88 0 0 Z " fill="#5F6164" transform="translate(112,0)"/>
<path d="M0 0 C0.33 1.32 0.66 2.64 1 4 C1.66 4 2.32 4 3 4 C3 4.66 3 5.32 3 6 C3.66 6 4.32 6 5 6 C4.44894091 9.9492568 3.61064629 13.34920174 2 17 C0.0625 16.625 0.0625 16.625 -2 16 C-3.36011539 13.27976922 -3.2062431 11.0338119 -3.25 8 C-3.27578125 6.9275 -3.3015625 5.855 -3.328125 4.75 C-3.21984375 3.8425 -3.1115625 2.935 -3 2 C-2.01 1.34 -1.02 0.68 0 0 Z " fill="#B2B6B2" transform="translate(97,54)"/>
<path d="M0 0 C1.9375 0.375 1.9375 0.375 4 1 C5.38710909 3.77421818 5.30557532 6.28503631 5.5 9.375 C5.73143104 13.03656971 5.95765335 16.47339385 7 20 C5.62437146 18.71034824 4.29233607 17.37310707 3 16 C3 15.34 3 14.68 3 14 C1.02 14 -0.96 14 -3 14 C-2.67 12.68 -2.34 11.36 -2 10 C-0.68 9.67 0.64 9.34 2 9 C2 8.01 2 7.02 2 6 C1.01 6 0.02 6 -1 6 C-1.33 4.68 -1.66 3.36 -2 2 C-1.34 2 -0.68 2 0 2 C0 1.34 0 0.68 0 0 Z " fill="#DEB8A3" transform="translate(86,32)"/>
<path d="M0 0 C2.31 0.33 4.62 0.66 7 1 C7.061875 1.928125 7.061875 1.928125 7.125 2.875 C7.41375 3.57625 7.7025 4.2775 8 5 C10.92914165 6.17082878 10.92914165 6.17082878 14 7 C16 9 16 9 16 12 C16.66 12 17.32 12 18 12 C18 12.99 18 13.98 18 15 C15.625 15.1875 15.625 15.1875 13 15 C11 12 11 12 11 9 C10.13375 8.71125 9.2675 8.4225 8.375 8.125 C5.25 7.08333333 2.125 6.04166667 -1 5 C0.32 4.67 1.64 4.34 3 4 C3 3.34 3 2.68 3 2 C2.01 2 1.02 2 0 2 C0 1.34 0 0.68 0 0 Z " fill="#8D6953" transform="translate(77,11)"/>
<path d="M0 0 C4.95 0.33 9.9 0.66 15 1 C15 2.98 15 4.96 15 7 C10.05 6.67 5.1 6.34 0 6 C0 4.02 0 2.04 0 0 Z " fill="#C4C6C5" transform="translate(133,33)"/>
<path d="M0 0 C0.33 0 0.66 0 1 0 C1 2.97 1 5.94 1 9 C-3.63466892 10.15866723 -6.33260039 9.70010994 -11 9 C-11.33 9.66 -11.66 10.32 -12 11 C-14.64 9.68 -17.28 8.36 -20 7 C-17.65028931 5.82514466 -15.86447489 5.72183423 -13.25 5.5 C-12.35796875 5.41363281 -11.4659375 5.32726562 -10.546875 5.23828125 C-8.53170625 5.04974552 -6.51594951 4.86749549 -4.5 4.6875 C-1.8413572 4.25001214 -1.8413572 4.25001214 -0.625 1.9375 C-0.315625 0.9784375 -0.315625 0.9784375 0 0 Z " fill="#A6A9A9" transform="translate(145,83)"/>
<path d="M0 0 C0.99 0.495 0.99 0.495 2 1 C2 1.66 2 2.32 2 3 C2.99 2.34 3.98 1.68 5 1 C7.6875 0.875 7.6875 0.875 10 1 C10 2.32 10 3.64 10 5 C9.34 5 8.68 5 8 5 C8 6.98 8 8.96 8 11 C5.36 11 2.72 11 0 11 C0 7.37 0 3.74 0 0 Z " fill="#606667" transform="translate(0,137)"/>
<path d="M0 0 C6.7281627 -0.22262303 12.53991163 0.04978464 19 2 C19 2.33 19 2.66 19 3 C13.39 3 7.78 3 2 3 C2 3.66 2 4.32 2 5 C-4.625 7.875 -4.625 7.875 -8 9 C-8 7.02 -8 5.04 -8 3 C-8.66 2.67 -9.32 2.34 -10 2 C-6.78548731 0.39274365 -3.56387464 0.94251815 0 1 C0 0.67 0 0.34 0 0 Z " fill="#8D7B69" transform="translate(72,6)"/>
<path d="M0 0 C0 1.65 0 3.3 0 5 C-0.66 5 -1.32 5 -2 5 C-2.12375 5.969375 -2.2475 6.93875 -2.375 7.9375 C-2.58125 8.948125 -2.7875 9.95875 -3 11 C-3.99 11.495 -3.99 11.495 -5 12 C-5 11.34 -5 10.68 -5 10 C-5.99 10.495 -5.99 10.495 -7 11 C-9.6723621 11.13415472 -12.32250488 11.04318541 -15 11 C-14.34 10.67 -13.68 10.34 -13 10 C-13 9.34 -13 8.68 -13 8 C-12.38125 7.9175 -11.7625 7.835 -11.125 7.75 C-8.81562433 7.18741541 -8.81562433 7.18741541 -7.75 4.9375 C-7.5025 4.298125 -7.255 3.65875 -7 3 C-6.01 3 -5.02 3 -4 3 C-4 2.34 -4 1.68 -4 1 C-2 0 -2 0 0 0 Z " fill="#7E5849" transform="translate(91,63)"/>
<path d="M0 0 C1.65 0 3.3 0 5 0 C6 1 6 1 6.1328125 2.890625 C6.11902627 7.0540674 6.04793541 10.93925029 5 15 C3.68 15.33 2.36 15.66 1 16 C1.33 14.02 1.66 12.04 2 10 C1.34 10 0.68 10 0 10 C0 6.7 0 3.4 0 0 Z " fill="#7B7D80" transform="translate(0,116)"/>
<path d="M0 0 C2 1 2 1 3 3 C4.97888961 3.72693904 6.97954558 4.39816251 9 5 C3.85714286 10.57142857 3.85714286 10.57142857 0 11 C0 11.66 0 12.32 0 13 C-1.32 13.33 -2.64 13.66 -4 14 C-4 14.66 -4 15.32 -4 16 C-6.64 16 -9.28 16 -12 16 C-9.12835434 13.29727467 -7.69008159 12.05208163 -3.6875 11.75 C-2.3571875 11.87375 -2.3571875 11.87375 -1 12 C-0.67 9.03 -0.34 6.06 0 3 C-1.32 2.67 -2.64 2.34 -4 2 C-2.68 2 -1.36 2 0 2 C0 1.34 0 0.68 0 0 Z " fill="#AE6E53" transform="translate(78,60)"/>
<path d="M0 0 C0.66 0 1.32 0 2 0 C1.67 6.27 1.34 12.54 1 19 C-0.32 19.33 -1.64 19.66 -3 20 C-2.67 18.68 -2.34 17.36 -2 16 C-1.34 16 -0.68 16 0 16 C-0.33 14.02 -0.66 12.04 -1 10 C-3.31 10 -5.62 10 -8 10 C-8 11.65 -8 13.3 -8 15 C-8.66 15 -9.32 15 -10 15 C-10.33 14.01 -10.66 13.02 -11 12 C-11.66 11.34 -12.32 10.68 -13 10 C-11.29171079 7.89366282 -10.47851584 7.06198392 -7.73828125 6.70703125 C-6.93777344 6.74183594 -6.13726562 6.77664062 -5.3125 6.8125 C-4.50425781 6.83957031 -3.69601562 6.86664063 -2.86328125 6.89453125 C-2.24839844 6.92933594 -1.63351562 6.96414062 -1 7 C-1.020625 6.030625 -1.04125 5.06125 -1.0625 4.0625 C-1 1 -1 1 0 0 Z " fill="#898A89" transform="translate(16,91)"/>
<path d="M0 0 C0 3.72820818 -0.84132013 4.97784819 -3 8 C-4.92395293 9.79666851 -6.9177066 11.38043847 -9 13 C-9 12.34 -9 11.68 -9 11 C-9.99 10.67 -10.98 10.34 -12 10 C-12 10.66 -12 11.32 -12 12 C-13.390625 13.5078125 -13.390625 13.5078125 -15.25 15.125 C-15.85328125 15.66382812 -16.4565625 16.20265625 -17.078125 16.7578125 C-19 18 -19 18 -23 18 C-23 17.01 -23 16.02 -23 15 C-22.113125 14.773125 -21.22625 14.54625 -20.3125 14.3125 C-16.87208918 13.20284847 -16.87208918 13.20284847 -14.5 10.5 C-11.69217585 7.69217585 -9.7023886 7.23412953 -6 6 C-3.20754907 3.54182045 -3.20754907 3.54182045 -1 1 C-0.67 0.67 -0.34 0.34 0 0 Z " fill="#374C4E" transform="translate(58,85)"/>
<path d="M0 0 C0.99 0 1.98 0 3 0 C2.67 4.95 2.34 9.9 2 15 C1.34 15 0.68 15 0 15 C0 12.69 0 10.38 0 8 C-1.093125 7.7525 -2.18625 7.505 -3.3125 7.25 C-7.05908409 5.97997149 -8.10595266 5.34243648 -10 2 C-9.04287109 1.90912109 -9.04287109 1.90912109 -8.06640625 1.81640625 C-6.82697266 1.69072266 -6.82697266 1.69072266 -5.5625 1.5625 C-4.73878906 1.48128906 -3.91507812 1.40007813 -3.06640625 1.31640625 C-1.01337975 1.21069185 -1.01337975 1.21069185 0 0 Z " fill="#E19F80" transform="translate(85,48)"/>
<path d="M0 0 C0.66 0 1.32 0 2 0 C2 1.32 2 2.64 2 4 C2.96039185 4.029729 2.96039185 4.029729 3.94018555 4.06005859 C6.8563528 4.15563601 9.77183572 4.26518214 12.6875 4.375 C13.69490234 4.4059375 14.70230469 4.436875 15.74023438 4.46875 C16.71669922 4.50742187 17.69316406 4.54609375 18.69921875 4.5859375 C19.59471436 4.6173584 20.49020996 4.6487793 21.4128418 4.68115234 C24.21592507 5.02661113 26.43264531 5.84681468 29 7 C29 7.33 29 7.66 29 8 C27.67548828 7.89171875 27.67548828 7.89171875 26.32421875 7.78125 C12.77705951 5.89680975 12.77705951 5.89680975 0 9 C0 10.98 0 12.96 0 15 C-0.33 15 -0.66 15 -1 15 C-1.10251672 9.87416389 -1.03590199 5.05002222 0 0 Z " fill="#BF9F8D" transform="translate(51,14)"/>
<path d="M0 0 C0.66 0 1.32 0 2 0 C2 9.9 2 19.8 2 30 C1.01 30 0.02 30 -1 30 C-1.17707265 19.96588331 -0.62277469 10.00887894 0 0 Z " fill="#8F979A" transform="translate(146,118)"/>
<path d="M0 0 C0.66 1.32 1.32 2.64 2 4 C1.01 4.495 1.01 4.495 0 5 C-0.65555119 7.52733235 -0.65555119 7.52733235 -1 10 C-0.01 10.33 0.98 10.66 2 11 C0.68 11 -0.64 11 -2 11 C-2 10.01 -2 9.02 -2 8 C-3.65 8.66 -5.3 9.32 -7 10 C-7.33 9.67 -7.66 9.34 -8 9 C-8.66 9.99 -9.32 10.98 -10 12 C-9.67 8.7 -9.34 5.4 -9 2 C-6.03 2 -3.06 2 0 2 C0 1.34 0 0.68 0 0 Z " fill="#D9A691" transform="translate(65,43)"/>
<path d="M0 0 C1.00496852 3.01490557 1.10335303 5.04181692 1.0625 8.1875 C1.05347656 9.08855469 1.04445313 9.98960937 1.03515625 10.91796875 C1.02355469 11.60503906 1.01195312 12.29210937 1 13 C-4.75 15 -4.75 15 -7 15 C-9 12 -9 12 -9 8 C-6.69 8 -4.38 8 -2 8 C-1.855625 6.865625 -1.71125 5.73125 -1.5625 4.5625 C-1 1 -1 1 0 0 Z " fill="#7A7C80" transform="translate(9,125)"/>
<path d="M0 0 C3.5 0.125 3.5 0.125 4.5 1.125 C4.54080783 3.12458364 4.54254356 5.12545254 4.5 7.125 C0.87 7.785 -2.76 8.445 -6.5 9.125 C-6.5 8.135 -6.5 7.145 -6.5 6.125 C-5.51 6.125 -4.52 6.125 -3.5 6.125 C-3.7784375 4.9184375 -3.7784375 4.9184375 -4.0625 3.6875 C-4.206875 2.841875 -4.35125 1.99625 -4.5 1.125 C-3.5 0.125 -3.5 0.125 0 0 Z " fill="#4E595B" transform="translate(11.5,99.875)"/>
<path d="M0 0 C1.134375 0.020625 2.26875 0.04125 3.4375 0.0625 C3.4375 2.0425 3.4375 4.0225 3.4375 6.0625 C1.7875 6.3925 0.1375 6.7225 -1.5625 7.0625 C-1.8925 8.3825 -2.2225 9.7025 -2.5625 11.0625 C-3.5525 11.0625 -4.5425 11.0625 -5.5625 11.0625 C-5.42207123 9.41619672 -5.27500671 7.77045821 -5.125 6.125 C-5.04378906 5.20847656 -4.96257813 4.29195312 -4.87890625 3.34765625 C-4.36077956 -0.39436982 -3.98403999 0.06989544 0 0 Z " fill="#5C6164" transform="translate(10.5625,44.9375)"/>
<path d="M0 0 C0.67578125 1.765625 0.67578125 1.765625 1 4 C-0.14453125 5.921875 -0.14453125 5.921875 -1.8125 7.75 C-2.62654297 8.67039062 -2.62654297 8.67039062 -3.45703125 9.609375 C-5 11 -5 11 -7 11 C-7 7.37 -7 3.74 -7 0 C-4.3333581 -1.33332095 -2.83319697 -0.67102033 0 0 Z " fill="#BEC7C4" transform="translate(26,96)"/>
<path d="M0 0 C2 2 2 2 2.125 5.625 C2.08375 6.73875 2.0425 7.8525 2 9 C-1.34373475 8.44271087 -4.03312999 7.64826111 -7 6 C-7 5.01 -7 4.02 -7 3 C-7.66 3 -8.32 3 -9 3 C-9 2.34 -9 1.68 -9 1 C-7.54364629 0.77825067 -6.08477044 0.57301302 -4.625 0.375 C-3.40683594 0.20097656 -3.40683594 0.20097656 -2.1640625 0.0234375 C-1.44992188 0.01570313 -0.73578125 0.00796875 0 0 Z " fill="#A0A2A5" transform="translate(109,73)"/>
<path d="M0 0 C2.87667975 0.03098757 5.43522999 0.20757666 8.1875 1.125 C7.8575 2.445 7.5275 3.765 7.1875 5.125 C3.5575 5.455 -0.0725 5.785 -3.8125 6.125 C-4.1425 4.475 -4.4725 2.825 -4.8125 1.125 C-3.8125 0.125 -3.8125 0.125 0 0 Z " fill="#C6CAC9" transform="translate(34.8125,46.875)"/>
<path d="M0 0 C0.33 0 0.66 0 1 0 C1.33 1.98 1.66 3.96 2 6 C2.99 6.33 3.98 6.66 5 7 C5.33 8.65 5.66 10.3 6 12 C5.34 12 4.68 12 4 12 C3.67 11.67 3.34 11.34 3 11 C3 11.99 3 12.98 3 14 C0.03 13.505 0.03 13.505 -3 13 C-3.66 9.7 -4.32 6.4 -5 3 C-4.01 3.495 -4.01 3.495 -3 4 C-3 4.99 -3 5.98 -3 7 C-2.34 7 -1.68 7 -1 7 C-0.67 4.69 -0.34 2.38 0 0 Z " fill="#B97E6E" transform="translate(95,30)"/>
<path d="M0 0 C0.66 0 1.32 0 2 0 C2 9.57 2 19.14 2 29 C0.68 29 -0.64 29 -2 29 C-2 28.34 -2 27.68 -2 27 C-1.34 27 -0.68 27 0 27 C0 18.09 0 9.18 0 0 Z " fill="#AFB4AF" transform="translate(110,0)"/>
<path d="M0 0 C0.66 0 1.32 0 2 0 C2 4.62 2 9.24 2 14 C1.34 12.68 0.68 11.36 0 10 C-3.42882941 8.85705686 -6.24082838 8.79035528 -9.85546875 8.68359375 C-10.51710526 8.66281265 -11.17874176 8.64203156 -11.86042786 8.62062073 C-13.96934852 8.55535273 -16.07839135 8.49634656 -18.1875 8.4375 C-19.61915315 8.39429311 -21.05079404 8.35067812 -22.48242188 8.30664062 C-25.98815154 8.19969494 -29.49401786 8.09836359 -33 8 C-33 7.67 -33 7.34 -33 7 C-22.44 6.67 -11.88 6.34 -1 6 C-0.67 4.02 -0.34 2.04 0 0 Z " fill="#8A827D" transform="translate(51,23)"/>
<path d="M0 0 C3.3 0.33 6.6 0.66 10 1 C10 2.65 10 4.3 10 6 C6.7 6.33 3.4 6.66 0 7 C0 4.69 0 2.38 0 0 Z " fill="#BCC1BF" transform="translate(0,83)"/>
<path d="M0 0 C1.921875 0.734375 1.921875 0.734375 4 2 C4.828125 3.953125 4.828125 3.953125 5.25 6.25 C5.39695312 7.04792969 5.54390625 7.84585938 5.6953125 8.66796875 C6.06115648 11.46808226 6.1445885 14.18052427 6 17 C4.35 17 2.7 17 1 17 C1.185625 16.360625 1.37125 15.72125 1.5625 15.0625 C1.706875 14.381875 1.85125 13.70125 2 13 C1.67 12.67 1.34 12.34 1 12 C0.76572222 9.98405418 0.58663876 7.961526 0.4375 5.9375 C0.35371094 4.83277344 0.26992188 3.72804687 0.18359375 2.58984375 C0.09271484 1.30787109 0.09271484 1.30787109 0 0 Z " fill="#BDA89C" transform="translate(51,47)"/>
<path d="M0 0 C1.32 0 2.64 0 4 0 C4.33 2.97 4.66 5.94 5 9 C2.69 9.33 0.38 9.66 -2 10 C-2 10.66 -2 11.32 -2 12 C-1.34 12 -0.68 12 0 12 C0 12.99 0 13.98 0 15 C0.66 15.33 1.32 15.66 2 16 C1.01 16 0.02 16 -1 16 C-1 15.01 -1 14.02 -1 13 C-1.66 13 -2.32 13 -3 13 C-3.33 11.35 -3.66 9.7 -4 8 C-3.01 8.33 -2.02 8.66 -1 9 C-0.67 6.03 -0.34 3.06 0 0 Z " fill="#8B8F91" transform="translate(102,64)"/>
<path d="M0 0 C0.33 0 0.66 0 1 0 C1 1.65 1 3.3 1 5 C0.34 5 -0.32 5 -1 5 C-1 6.65 -1 8.3 -1 10 C1.64 10 4.28 10 7 10 C7 10.33 7 10.66 7 11 C4.36 11 1.72 11 -1 11 C-1 11.66 -1 12.32 -1 13 C2.3 13 5.6 13 9 13 C9 13.66 9 14.32 9 15 C1.57142857 15.14285714 1.57142857 15.14285714 -2 14 C-1.67 15.32 -1.34 16.64 -1 18 C-1.99 18 -2.98 18 -4 18 C-3.67 13.71 -3.34 9.42 -3 5 C-2.01 4.67 -1.02 4.34 0 4 C0 2.68 0 1.36 0 0 Z " fill="#B4ABA2" transform="translate(101,19)"/>
<path d="M0 0 C5.81545459 1.24952417 5.81545459 1.24952417 8.48046875 2.58203125 C8.48046875 3.24203125 8.48046875 3.90203125 8.48046875 4.58203125 C6.89752093 4.63640732 5.31402619 4.67499396 3.73046875 4.70703125 C2.84875 4.73023438 1.96703125 4.7534375 1.05859375 4.77734375 C-1.68611519 4.56941125 -3.11367039 3.84224408 -5.51953125 2.58203125 C-7.87517721 2.13391988 -7.87517721 2.13391988 -10.26953125 1.95703125 C-11.06875 1.88226563 -11.86796875 1.8075 -12.69140625 1.73046875 C-13.2946875 1.68148438 -13.89796875 1.6325 -14.51953125 1.58203125 C-9.91275809 -1.48915086 -5.35372121 -0.8881367 0 0 Z " fill="#C0AB97" transform="translate(85.51953125,8.41796875)"/>
<path d="M0 0 C0.33 0 0.66 0 1 0 C1 1.65 1 3.3 1 5 C3.97 5.495 3.97 5.495 7 6 C6.67 4.35 6.34 2.7 6 1 C7.5625 2.1875 7.5625 2.1875 9 4 C8.6875 6.6875 8.6875 6.6875 8 9 C6.68 9 5.36 9 4 9 C4.33 9.99 4.66 10.98 5 12 C3.68 12 2.36 12 1 12 C-0.26237731 9.47524538 -0.09856404 7.68799534 -0.0625 4.875 C-0.05347656 3.96492188 -0.04445313 3.05484375 -0.03515625 2.1171875 C-0.02355469 1.41851562 -0.01195313 0.71984375 0 0 Z " fill="#D1A796" transform="translate(91,38)"/>
<path d="M0 0 C1.98 0.66 3.96 1.32 6 2 C6 6.62 6 11.24 6 16 C5.34 16 4.68 16 4 16 C3.81824219 15.16855469 3.63648438 14.33710937 3.44921875 13.48046875 C3.07216797 11.85044922 3.07216797 11.85044922 2.6875 10.1875 C2.32205078 8.56908203 2.32205078 8.56908203 1.94921875 6.91796875 C1.01798408 4.0552844 0.31239465 2.84602934 -2 1 C-1.34 0.67 -0.68 0.34 0 0 Z " fill="#ADB3B3" transform="translate(142,98)"/>
<path d="M0 0 C4.85963179 0.60745397 8.7405518 2.72758967 13 5 C13 5.33 13 5.66 13 6 C9.04 6.66 5.08 7.32 1 8 C-0.35439668 5.29120665 -0.06501451 2.99066732 0 0 Z " fill="#51666A" transform="translate(120,88)"/>
<path d="M0 0 C2.64 0 5.28 0 8 0 C8.33 1.65 8.66 3.3 9 5 C6.69 5.66 4.38 6.32 2 7 C0 5 0 5 -0.125 2.375 C-0.08375 1.59125 -0.0425 0.8075 0 0 Z " fill="#414B4E" transform="translate(6,74)"/>
<path d="M0 0 C0.66 0 1.32 0 2 0 C2 0.66 2 1.32 2 2 C3.98 1.67 5.96 1.34 8 1 C8 1.99 8 2.98 8 4 C8.66 4 9.32 4 10 4 C10.33 3.01 10.66 2.02 11 1 C11 3.31 11 5.62 11 8 C12.32 8.33 13.64 8.66 15 9 C11.61608307 10.06351675 10.4195366 10.21442982 7.1875 8.5625 C6.465625 8.046875 5.74375 7.53125 5 7 C5.33 6.01 5.66 5.02 6 4 C3.03 3.505 3.03 3.505 0 3 C0 2.01 0 1.02 0 0 Z " fill="#D39071" transform="translate(74,55)"/>
<path d="M0 0 C0.103125 0.639375 0.20625 1.27875 0.3125 1.9375 C0.6528125 2.9584375 0.6528125 2.9584375 1 4 C1.99 4.33 2.98 4.66 4 5 C4 6.65 4 8.3 4 10 C2.35 10.33 0.7 10.66 -1 11 C-1 8.36 -1 5.72 -1 3 C-4.3 3 -7.6 3 -11 3 C-11 2.34 -11 1.68 -11 1 C-3.375 0 -3.375 0 0 0 Z " fill="#86898A" transform="translate(111,29)"/>
<path d="M0 0 C2.97 0 5.94 0 9 0 C9.33 1.65 9.66 3.3 10 5 C6.5647952 7.29013653 5.014669 7.17842973 1 7 C0.67 4.69 0.34 2.38 0 0 Z " fill="#C36F5C" transform="translate(65,63)"/>
<path d="M0 0 C1.8871875 0.061875 1.8871875 0.061875 3.8125 0.125 C3.4825 1.775 3.1525 3.425 2.8125 5.125 C-0.8175 5.125 -4.4475 5.125 -8.1875 5.125 C-6.68328007 0.61234022 -4.4443381 -0.145716 0 0 Z " fill="#9D5749" transform="translate(69.1875,54.875)"/>
<path d="M0 0 C2.97 0.495 2.97 0.495 6 1 C4.70757149 3.88310976 3.50685536 6.0400949 1 8 C-1.26171875 8.07421875 -1.26171875 8.07421875 -3.6875 7.6875 C-4.49574219 7.56761719 -5.30398437 7.44773437 -6.13671875 7.32421875 C-6.75160156 7.21722656 -7.36648437 7.11023437 -8 7 C-7.01 6.67 -6.02 6.34 -5 6 C-5 4.68 -5 3.36 -5 2 C-4.34 2 -3.68 2 -3 2 C-3 2.66 -3 3.32 -3 4 C-1.35 3.34 0.3 2.68 2 2 C1.34 1.34 0.68 0.68 0 0 Z " fill="#BB8971" transform="translate(80,38)"/>
<path d="M0 0 C0 0.33 0 0.66 0 1 C-1.65 1 -3.3 1 -5 1 C-5 1.66 -5 2.32 -5 3 C-6.65 3 -8.3 3 -10 3 C-10.33 4.65 -10.66 6.3 -11 8 C-13.31 8 -15.62 8 -18 8 C-17.8125 6.1875 -17.8125 6.1875 -17 4 C-11.38653481 -0.09631243 -6.71111474 -0.11185191 0 0 Z " fill="#644C40" transform="translate(82,10)"/>
<path d="M0 0 C5.38970534 -0.56142764 8.9189874 0.2584916 13.46484375 3.2890625 C15.46506838 5.51832049 15.50466923 6.85220523 15.5 9.8125 C15.37211181 11.21241896 15.21784569 12.61123374 15 14 C14.34 13.67 13.68 13.34 13 13 C12.855625 11.9275 12.71125 10.855 12.5625 9.75 C11.83087151 6.71718105 11.15181634 6.09284065 8.42578125 4.42578125 C5.64496849 3.18313893 2.86277397 2.0388327 0 1 C0 0.67 0 0.34 0 0 Z " fill="#A77A64" transform="translate(75,19)"/>
<path d="M0 0 C0.33 0.66 0.66 1.32 1 2 C1.99 2.33 2.98 2.66 4 3 C4.33 6.63 4.66 10.26 5 14 C4.01 14 3.02 14 2 14 C-0.14712628 11.62282448 -1.01344221 9.89315989 -0.96484375 6.6640625 C-0.71401709 4.42428638 -0.40098398 2.21748971 0 0 Z " fill="#B57C61" transform="translate(60,61)"/>
<path d="M0 0 C3.3 0 6.6 0 10 0 C9.67 1.65 9.34 3.3 9 5 C6.03 5 3.06 5 0 5 C0 3.35 0 1.7 0 0 Z " fill="#656466" transform="translate(0,35)"/>
<path d="M0 0 C3.63 0 7.26 0 11 0 C9.9957244 5.02137798 9.60239038 5.86243419 6 9 C5.67 6.69 5.34 4.38 5 2 C3.35 2 1.7 2 0 2 C0 1.34 0 0.68 0 0 Z " fill="#5D6362" transform="translate(1,113)"/>
<path d="M0 0 C0.66 0.33 1.32 0.66 2 1 C1.6875 2.9375 1.6875 2.9375 1 5 C-2.50711619 6.16903873 -5.36782386 6.16839619 -9.0625 6.1875 C-10.31160156 6.20167969 -11.56070313 6.21585937 -12.84765625 6.23046875 C-16 6 -16 6 -18 4 C-18.33 3.34 -18.66 2.68 -19 2 C-18.15179688 2.16371094 -17.30359375 2.32742187 -16.4296875 2.49609375 C-12.9354469 3.00948445 -9.65372426 3.09850739 -6.125 3.0625 C-4.97257812 3.05347656 -3.82015625 3.04445313 -2.6328125 3.03515625 C-1.32957031 3.01775391 -1.32957031 3.01775391 0 3 C0 2.01 0 1.02 0 0 Z " fill="#90664F" transform="translate(84,76)"/>
<path d="M0 0 C0.33 0 0.66 0 1 0 C1.33 3.3 1.66 6.6 2 10 C2.66 10 3.32 10 4 10 C4 11.32 4 12.64 4 14 C3.34 14 2.68 14 2 14 C2 19.94 2 25.88 2 32 C1.67 32 1.34 32 1 32 C0.36850058 21.32089373 -0.17291697 10.7016389 0 0 Z " fill="#555D60" transform="translate(144,104)"/>
<path d="M0 0 C1.32 0.33 2.64 0.66 4 1 C5.26953125 6.859375 5.26953125 6.859375 5 9 C3.35 10.32 1.7 11.64 0 13 C0 8.71 0 4.42 0 0 Z " fill="#9D9C9B" transform="translate(0,41)"/>
<path d="M0 0 C2.64 0 5.28 0 8 0 C6.75237172 3.84685385 5.6129609 6.02929405 2 8 C1.01 7.67 0.02 7.34 -1 7 C-0.67 4.69 -0.34 2.38 0 0 Z " fill="#B17C64" transform="translate(73,82)"/>
<path d="M0 0 C0.66 0.33 1.32 0.66 2 1 C1.67 2.32 1.34 3.64 1 5 C1.66 5 2.32 5 3 5 C2.85923685 6.9587043 2.7122324 8.91696093 2.5625 10.875 C2.48128906 11.96554688 2.40007812 13.05609375 2.31640625 14.1796875 C2 17 2 17 1 19 C-0.98 18.67 -2.96 18.34 -5 18 C-5 17.34 -5 16.68 -5 16 C-4.01 16 -3.02 16 -2 16 C-0.68 12.7 0.64 9.4 2 6 C1.34 6 0.68 6 0 6 C0 5.34 0 4.68 0 4 C-0.66 4 -1.32 4 -2 4 C-1.34 2.68 -0.68 1.36 0 0 Z " fill="#A3A7A5" transform="translate(100,54)"/>
<path d="M0 0 C11.55 0.33 23.1 0.66 35 1 C35 1.33 35 1.66 35 2 C24.44 2 13.88 2 3 2 C3 2.66 3 3.32 3 4 C2.01 3.67 1.02 3.34 0 3 C0 2.01 0 1.02 0 0 Z " fill="#A3A4A3" transform="translate(13,30)"/>
<path d="M0 0 C3.96 0 7.92 0 12 0 C13 4 13 4 12 6 C11.01 5.67 10.02 5.34 9 5 C9 4.34 9 3.68 9 3 C8.01 3 7.02 3 6 3 C6 3.66 6 4.32 6 5 C5.01 4.67 4.02 4.34 3 4 C3.33 3.01 3.66 2.02 4 1 C2.68 0.67 1.36 0.34 0 0 Z " fill="#BABDBE" transform="translate(39,47)"/>
<path d="M0 0 C0.66 0.33 1.32 0.66 2 1 C-1.07517084 14.6332574 -1.07517084 14.6332574 -3 21 C-3.66 21 -4.32 21 -5 21 C-5 19.02 -5 17.04 -5 15 C-4.34 15 -3.68 15 -3 15 C-2.95101563 14.41992188 -2.90203125 13.83984375 -2.8515625 13.2421875 C-2.40350595 8.56076908 -1.701979 4.42514541 0 0 Z " fill="#3F4E50" transform="translate(13,127)"/>
<path d="M0 0 C0.33 0.66 0.66 1.32 1 2 C1.66 2.33 2.32 2.66 3 3 C3 7.29 3 11.58 3 16 C-0.46562332 12.53437668 -0.45518457 11.58070789 -0.75 6.875 C-0.82734375 5.79992188 -0.9046875 4.72484375 -0.984375 3.6171875 C-0.98953125 2.75351562 -0.9946875 1.88984375 -1 1 C-0.67 0.67 -0.34 0.34 0 0 Z " fill="#CB967C" transform="translate(57,51)"/>
<path d="M0 0 C2.97 0 5.94 0 9 0 C9 0.66 9 1.32 9 2 C7.02 2 5.04 2 3 2 C3 2.66 3 3.32 3 4 C5.31 4 7.62 4 10 4 C10 4.66 10 5.32 10 6 C7.03 6 4.06 6 1 6 C0.67 4.02 0.34 2.04 0 0 Z " fill="#676A6C" transform="translate(101,41)"/>
<path d="M0 0 C3.78517206 0.25662183 5.01775858 0.68704824 7.6875 3.25 C5.3775 3.58 3.0675 3.91 0.6875 4.25 C0.6875 3.59 0.6875 2.93 0.6875 2.25 C0.0275 2.25 -0.6325 2.25 -1.3125 2.25 C-1.3125 3.57 -1.3125 4.89 -1.3125 6.25 C-2.6325 6.25 -3.9525 6.25 -5.3125 6.25 C-4.24825282 0.32062285 -4.24825282 0.32062285 0 0 Z " fill="#713E2C" transform="translate(76.3125,37.75)"/>
<path d="M0 0 C0.10841951 1.91541138 0.18578079 3.83259773 0.25 5.75 C0.29640625 6.81734375 0.3428125 7.8846875 0.390625 8.984375 C-0.08756914 12.67603379 -1.24129989 13.62327375 -4 16 C-4.7872678 18.1381966 -4.7872678 18.1381966 -5 20 C-5.66 20 -6.32 20 -7 20 C-6.33501617 15.61110675 -4.81242323 12.0188515 -3 8 C-2.34 8 -1.68 8 -1 8 C-1 6.35 -1 4.7 -1 3 C-1.66 3 -2.32 3 -3 3 C-3 2.34 -3 1.68 -3 1 C-1 0 -1 0 0 0 Z " fill="#BA8F75" transform="translate(92,60)"/>
<path d="M0 0 C4.95 0 9.9 0 15 0 C14.01 1.98 13.02 3.96 12 6 C11.34 6 10.68 6 10 6 C10 5.01 10 4.02 10 3 C6.7 2.67 3.4 2.34 0 2 C0 1.34 0 0.68 0 0 Z " fill="#939896" transform="translate(0,81)"/>
<path d="M0 0 C0.66 0 1.32 0 2 0 C2.02578125 0.83144531 2.0515625 1.66289063 2.078125 2.51953125 C2.13484375 3.60621094 2.1915625 4.69289063 2.25 5.8125 C2.29640625 6.89144531 2.3428125 7.97039062 2.390625 9.08203125 C2.72954022 12.11744232 2.72954022 12.11744232 5.046875 13.88671875 C5.69140625 14.25410156 6.3359375 14.62148437 7 15 C4.8125 15.3125 4.8125 15.3125 2 15 C-0.8125 12.5 -0.8125 12.5 -3 10 C-2.01 10 -1.02 10 0 10 C0 6.7 0 3.4 0 0 Z " fill="#636D6E" transform="translate(112,72)"/>
<path d="M0 0 C0.66 0 1.32 0 2 0 C2.33 4.62 2.66 9.24 3 14 C3.33 14 3.66 14 4 14 C4 17.63 4 21.26 4 25 C3.01 25 2.02 25 1 25 C0.67 16.75 0.34 8.5 0 0 Z " fill="#5D6367" transform="translate(114,41)"/>
<path d="M0 0 C0.99 0.33 1.98 0.66 3 1 C3 1.33 3 1.66 3 2 C4.65 2 6.3 2 8 2 C8 2.66 8 3.32 8 4 C11.465 3.505 11.465 3.505 15 3 C11.64541289 5.23639141 8.93686719 6.17118585 5 7 C2.625 6.4375 2.625 6.4375 1 5 C0.25 2.375 0.25 2.375 0 0 Z " fill="#8E9292" transform="translate(25,90)"/>
<path d="M0 0 C0.66 0.33 1.32 0.66 2 1 C1.01 1 0.02 1 -1 1 C-0.67 0.67 -0.34 0.34 0 0 Z M-2 2 C-1.67 2.99 -1.34 3.98 -1 5 C-3.52788007 7.79872437 -5.20411134 9.45773019 -9 10 C-9 9.34 -9 8.68 -9 8 C-9.99 7.67 -10.98 7.34 -12 7 C-9.03869547 4.47740725 -6.81671041 3.61892601 -3 3 C-2.67 2.67 -2.34 2.34 -2 2 Z " fill="#162B38" transform="translate(95,87)"/>
<path d="M0 0 C0.33 0 0.66 0 1 0 C1.1968999 2.35371114 1.38270974 4.7074695 1.5625 7.0625 C1.66691406 8.37347656 1.77132812 9.68445313 1.87890625 11.03515625 C1.99765619 14.92325897 1.66866216 18.19110223 1 22 C1.66 22 2.32 22 3 22 C3 23.98 3 25.96 3 28 C2.01 27.34 1.02 26.68 0 26 C-0.34057617 23.38623047 -0.34057617 23.38623047 -0.29296875 20.1171875 C-0.2784668 18.36728516 -0.2784668 18.36728516 -0.26367188 16.58203125 C-0.23853516 15.35871094 -0.21339844 14.13539062 -0.1875 12.875 C-0.17396484 11.64394531 -0.16042969 10.41289063 -0.14648438 9.14453125 C-0.11103543 6.09592157 -0.06162079 3.048175 0 0 Z " fill="#D3B2A3" transform="translate(53,22)"/>
<path d="M0 0 C1.32 0 2.64 0 4 0 C4 1.32 4 2.64 4 4 C3.34 4 2.68 4 2 4 C1.22157062 7.40562852 0.90021879 10.50765756 1 14 C0.34 14 -0.32 14 -1 14 C-1.02685938 11.85423363 -1.04633088 9.70837355 -1.0625 7.5625 C-1.07410156 6.36753906 -1.08570313 5.17257813 -1.09765625 3.94140625 C-1 1 -1 1 0 0 Z " fill="#DFBBA8" transform="translate(55,20)"/>
<path d="M0 0 C0.33 1.32 0.66 2.64 1 4 C2.918125 3.9690625 2.918125 3.9690625 4.875 3.9375 C8.75 3.875 8.75 3.875 11 5 C11 5.66 11 6.32 11 7 C4.6 8.23076923 4.6 8.23076923 1.5625 7.0625 C1.046875 6.711875 0.53125 6.36125 0 6 C0 4.02 0 2.04 0 0 Z " fill="#AF7C6C" transform="translate(54,38)"/>
<path d="M0 0 C2.31 0.33 4.62 0.66 7 1 C7.66 2.98 8.32 4.96 9 7 C5.28111761 6.49287967 2.26545761 5.88391785 -1 4 C0.32 4 1.64 4 3 4 C3 3.34 3 2.68 3 2 C2.01 2 1.02 2 0 2 C0 1.34 0 0.68 0 0 Z " fill="#8D7264" transform="translate(77,11)"/>
<path d="M0 0 C0.33 0 0.66 0 1 0 C1 1.65 1 3.3 1 5 C0.34 5 -0.32 5 -1 5 C-0.938125 6.051875 -0.938125 6.051875 -0.875 7.125 C-1.01668332 10.38371628 -1.86734686 12.9559947 -3 16 C-3.33 16 -3.66 16 -4 16 C-4.22331199 14.41870971 -4.42804644 12.83478911 -4.625 11.25 C-4.74101562 10.36828125 -4.85703125 9.4865625 -4.9765625 8.578125 C-5.00207817 5.77140122 -4.44843844 4.36615134 -3 2 C-2.67 2.66 -2.34 3.32 -2 4 C-1.34 4 -0.68 4 0 4 C0 2.68 0 1.36 0 0 Z " fill="#5D6468" transform="translate(14,122)"/>
<path d="M0 0 C0.33 0 0.66 0 1 0 C1.309375 1.093125 1.61875 2.18625 1.9375 3.3125 C2.58337897 5.55407994 3.2623117 7.7869351 4 10 C2 10 2 10 -0.125 8 C-0.74375 7.34 -1.3625 6.68 -2 6 C-1.67 7.65 -1.34 9.3 -1 11 C-2.32 11.33 -3.64 11.66 -5 12 C-4.54738642 10.56068883 -4.08767021 9.12361001 -3.625 7.6875 C-3.24214844 6.48673828 -3.24214844 6.48673828 -2.8515625 5.26171875 C-2 3 -2 3 0 0 Z " fill="#49565A" transform="translate(21,106)"/>
<path d="M0 0 C0 0.66 0 1.32 0 2 C-5.43940666 3.62227918 -9.33862697 4.3864587 -15 3 C-15.33 2.34 -15.66 1.68 -16 1 C-13.89594609 0.83191581 -11.79175242 0.66558052 -9.6875 0.5 C-8.51574219 0.4071875 -7.34398438 0.314375 -6.13671875 0.21875 C-4.094806 0.07635011 -2.0468721 0 0 0 Z " fill="#422B24" transform="translate(83,76)"/>
<path d="M0 0 C1.65 0 3.3 0 5 0 C5.2475 0.61875 5.495 1.2375 5.75 1.875 C7.20628639 4.35068687 8.37812506 4.95125002 11 6 C8.47946405 7.26026798 7.1457902 6.91874445 4.375 6.5625 C3.14910156 6.40974609 3.14910156 6.40974609 1.8984375 6.25390625 C0.95871094 6.12822266 0.95871094 6.12822266 0 6 C0 5.34 0 4.68 0 4 C0.99 3.67 1.98 3.34 3 3 C2.01 2.01 1.02 1.02 0 0 Z " fill="#334F53" transform="translate(125,94)"/>
<path d="M0 0 C0 2.83967231 -0.40267181 5.23735711 -1 8 C-1.99 8 -2.98 8 -4 8 C-4 6.68 -4 5.36 -4 4 C-5.65 4.66 -7.3 5.32 -9 6 C-9.99 5.01 -10.98 4.02 -12 3 C-10.82630859 2.80083984 -10.82630859 2.80083984 -9.62890625 2.59765625 C-8.61699219 2.42105469 -7.60507813 2.24445313 -6.5625 2.0625 C-5.55316406 1.88847656 -4.54382813 1.71445313 -3.50390625 1.53515625 C-1.0712562 1.25248903 -1.0712562 1.25248903 0 0 Z " fill="#969696" transform="translate(12,88)"/>
<path d="M0 0 C0.99 0 1.98 0 3 0 C2.33035714 8.03571429 2.33035714 8.03571429 -1 12 C-1.02687279 10.18757948 -1.04633715 8.37504767 -1.0625 6.5625 C-1.07410156 5.55316406 -1.08570313 4.54382813 -1.09765625 3.50390625 C-1 1 -1 1 0 0 Z " fill="#C3CBCB" transform="translate(14,112)"/>
<path d="M0 0 C2.64 0.33 5.28 0.66 8 1 C7.01 2.98 6.02 4.96 5 7 C3.68 6.34 2.36 5.68 1 5 C1 4.34 1 3.68 1 3 C0.34 3 -0.32 3 -1 3 C-0.67 2.01 -0.34 1.02 0 0 Z " fill="#645652" transform="translate(70,89)"/>
<path d="M0 0 C0.99 0.33 1.98 0.66 3 1 C2.67 1.33 2.34 1.66 2 2 C1.65705334 8.3949465 1.85455928 14.70007602 3 21 C2.01 21 1.02 21 0 21 C0 14.07 0 7.14 0 0 Z " fill="#D7C5BC" transform="translate(93,54)"/>
<path d="M0 0 C0.66 0.33 1.32 0.66 2 1 C2 4.3 2 7.6 2 11 C1.01 11.33 0.02 11.66 -1 12 C-1.02687279 10.18757948 -1.04633715 8.37504767 -1.0625 6.5625 C-1.07410156 5.55316406 -1.08570312 4.54382813 -1.09765625 3.50390625 C-1 1 -1 1 0 0 Z " fill="#626668" transform="translate(2,67)"/>
<path d="M0 0 C0.99 0 1.98 0 3 0 C3 3.3 3 6.6 3 10 C2.01 10 1.02 10 0 10 C-0.19412181 8.52168779 -0.38012131 7.04230684 -0.5625 5.5625 C-0.66691406 4.73878906 -0.77132812 3.91507813 -0.87890625 3.06640625 C-0.91886719 2.38449219 -0.95882812 1.70257813 -1 1 C-0.67 0.67 -0.34 0.34 0 0 Z " fill="#A2A3A5" transform="translate(107,48)"/>
<path d="M0 0 C0 0.99 0 1.98 0 3 C0.33 3.66 0.66 4.32 1 5 C-0.98 5.99 -2.96 6.98 -5 8 C-5 6.02 -5 4.04 -5 2 C-5.66 1.67 -6.32 1.34 -7 1 C-4.53721199 -0.231394 -2.7204945 -0.07159196 0 0 Z " fill="#8D7A68" transform="translate(69,7)"/>
<path d="M0 0 C0.33 0 0.66 0 1 0 C1 2.64 1 5.28 1 8 C-4.75 10 -4.75 10 -7 10 C-7.66 8.35 -8.32 6.7 -9 5 C-6.36 5.33 -3.72 5.66 -1 6 C-0.67 4.02 -0.34 2.04 0 0 Z " fill="#707476" transform="translate(9,130)"/>
<path d="M0 0 C0 1.65 0 3.3 0 5 C-0.66 5 -1.32 5 -2 5 C-2.12375 5.969375 -2.2475 6.93875 -2.375 7.9375 C-2.58125 8.948125 -2.7875 9.95875 -3 11 C-3.99 11.495 -3.99 11.495 -5 12 C-5.33 11.01 -5.66 10.02 -6 9 C-5.34 9 -4.68 9 -4 9 C-4 6.36 -4 3.72 -4 1 C-2 0 -2 0 0 0 Z " fill="#875D46" transform="translate(91,63)"/>
<path d="M0 0 C0 0.66 0 1.32 0 2 C-1.65 2.33 -3.3 2.66 -5 3 C-5 4.65 -5 6.3 -5 8 C-5.66 8 -6.32 8 -7 8 C-7.33 7.01 -7.66 6.02 -8 5 C-8.66 4.34 -9.32 3.68 -10 3 C-7.29536552 -0.8183075 -4.37912428 -0.24787496 0 0 Z " fill="#676D73" transform="translate(13,98)"/>
<path d="M0 0 C-2.45523336 3.68285005 -3.7847925 3.94619813 -8 5 C-11.375 5.125 -11.375 5.125 -14 5 C-13.34 4.34 -12.68 3.68 -12 3 C-10.68 3 -9.36 3 -8 3 C-8 2.34 -8 1.68 -8 1 C-2.25 -1.125 -2.25 -1.125 0 0 Z " fill="#5D6B6D" transform="translate(54,89)"/>
<path d="M0 0 C-1.3809002 3.33717549 -2.8201238 5.22301036 -6 7 C-8.1328125 6.57421875 -8.1328125 6.57421875 -10 6 C-8.90398831 4.99106869 -7.79786082 3.99311775 -6.6875 3 C-6.07261719 2.443125 -5.45773438 1.88625 -4.82421875 1.3125 C-3 0 -3 0 0 0 Z " fill="#3B4044" transform="translate(94,79)"/>
<path d="M0 0 C1.32 0 2.64 0 4 0 C4 2.31 4 4.62 4 7 C2.35 6.67 0.7 6.34 -1 6 C-1.042721 4.33388095 -1.04063832 2.66617115 -1 1 C-0.67 0.67 -0.34 0.34 0 0 Z " fill="#6C7077" transform="translate(1,53)"/>
<path d="M0 0 C3.66881155 0.70554068 6.70450534 2.27735506 10 4 C10 4.99 10 5.98 10 7 C9.34 7 8.68 7 8 7 C7.67 6.34 7.34 5.68 7 5 C5.35 5 3.7 5 2 5 C1.34 3.35 0.68 1.7 0 0 Z " fill="#C87D5E" transform="translate(74,52)"/>
<path d="M0 0 C0 0.66 0 1.32 0 2 C-4.95 3.485 -4.95 3.485 -10 5 C-10.66 4.34 -11.32 3.68 -12 3 C-10.75823305 2.29773859 -9.50614401 1.61370891 -8.25 0.9375 C-7.20585938 0.36322266 -7.20585938 0.36322266 -6.140625 -0.22265625 C-3.63859372 -1.1312406 -2.4667645 -0.88336837 0 0 Z " fill="#DEE1DA" transform="translate(67,2)"/>
<path d="M0 0 C1.65 0 3.3 0 5 0 C5 1.98 5 3.96 5 6 C2 6 2 6 0 5 C0 3.35 0 1.7 0 0 Z " fill="#8E9093" transform="translate(0,118)"/>
<path d="M0 0 C0.639375 0.165 1.27875 0.33 1.9375 0.5 C4.04582216 1.24598544 4.04582216 1.24598544 6 0 C6 0.99 6 1.98 6 3 C5.34 3 4.68 3 4 3 C4 3.99 4 4.98 4 6 C4.66 6.33 5.32 6.66 6 7 C5.01 7.33 4.02 7.66 3 8 C2.67 6.68 2.34 5.36 2 4 C1.34 4 0.68 4 0 4 C-0.33 4.66 -0.66 5.32 -1 6 C-1.042721 4.33388095 -1.04063832 2.66617115 -1 1 C-0.67 0.67 -0.34 0.34 0 0 Z " fill="#2B3E41" transform="translate(23,105)"/>
<path d="M0 0 C1.5 1.3125 1.5 1.3125 3 3 C3 3.99 3 4.98 3 6 C3.66 6 4.32 6 5 6 C5 6.66 5 7.32 5 8 C4.071875 7.835 3.14375 7.67 2.1875 7.5 C-0.95621353 6.92251612 -0.95621353 6.92251612 -4 7 C-3.34 6.01 -2.68 5.02 -2 4 C-1.34 4 -0.68 4 0 4 C0 2.68 0 1.36 0 0 Z " fill="#4E5C6B" transform="translate(96,71)"/>
<path d="M0 0 C1.98 0.66 3.96 1.32 6 2 C5.34 2.66 4.68 3.32 4 4 C4.33 4.99 4.66 5.98 5 7 C4.34 7 3.68 7 3 7 C2.67 7.66 2.34 8.32 2 9 C1.34 8.67 0.68 8.34 0 8 C-0.95067299 4.71585695 -1.10102197 3.30306592 0 0 Z " fill="#DCA08C" transform="translate(70,43)"/>
<path d="M0 0 C0.99 0.495 0.99 0.495 2 1 C2 1.99 2 2.98 2 4 C2.66 4 3.32 4 4 4 C4.33 3.01 4.66 2.02 5 1 C6.125 6.625 6.125 6.625 5 10 C4.01 10 3.02 10 2 10 C1.34 6.7 0.68 3.4 0 0 Z " fill="#B68C7B" transform="translate(90,33)"/>
<path d="M0 0 C0.33 1.32 0.66 2.64 1 4 C0.34 4 -0.32 4 -1 4 C-1 5.98 -1 7.96 -1 10 C-2.32 10 -3.64 10 -5 10 C-3.14285714 2.42857143 -3.14285714 2.42857143 0 0 Z " fill="#646A6F" transform="translate(9,138)"/>
<path d="M0 0 C0.99 0.33 1.98 0.66 3 1 C4.1875 4.5625 4.1875 4.5625 5 8 C4.34 8 3.68 8 3 8 C0.95830515 5.09451118 0 3.59857954 0 0 Z M-2 5 C-1.01 5.33 -0.02 5.66 1 6 C0.34 6 -0.32 6 -1 6 C-1.33 7.32 -1.66 8.64 -2 10 C-2.66 10 -3.32 10 -4 10 C-3.34 8.35 -2.68 6.7 -2 5 Z " fill="#334246" transform="translate(19,112)"/>
<path d="M0 0 C0.33 0 0.66 0 1 0 C1.08075665 2.29109597 1.13907731 4.58299267 1.1875 6.875 C1.22230469 8.15117188 1.25710937 9.42734375 1.29296875 10.7421875 C1.19628906 11.81726563 1.09960938 12.89234375 1 14 C0.01 14.66 -0.98 15.32 -2 16 C-1.34 10.72 -0.68 5.44 0 0 Z " fill="#ACAEAE" transform="translate(17,42)"/>
<path d="M0 0 C0.66 0.33 1.32 0.66 2 1 C2 5.62 2 10.24 2 15 C1.01 15.495 1.01 15.495 0 16 C0.020625 14.906875 0.04125 13.81375 0.0625 12.6875 C0.18544452 9.05615809 0.18544452 9.05615809 -1 6 C-0.72428861 3.99124558 -0.39764263 1.98821313 0 0 Z " fill="#969795" transform="translate(33,76)"/>
<path d="M0 0 C0.33 0 0.66 0 1 0 C1.19456705 1.95764383 1.38044247 3.91615321 1.5625 5.875 C1.66691406 6.96554688 1.77132812 8.05609375 1.87890625 9.1796875 C2 12 2 12 1 14 C-2 13 -2 13 -4 11 C-3.01 10.67 -2.02 10.34 -1 10 C-0.67 6.7 -0.34 3.4 0 0 Z " fill="#D7B8A4" transform="translate(92,64)"/>
<path d="M0 0 C0.33 0.99 0.66 1.98 1 3 C-3.75 4.125 -3.75 4.125 -6 3 C-6 2.34 -6 1.68 -6 1 C-6.99 0.67 -7.98 0.34 -9 0 C-5.93109813 -1.53445094 -3.29905734 -0.54984289 0 0 Z " fill="#F1AE95" transform="translate(81,47)"/>
<path d="M0 0 C1.65 0 3.3 0 5 0 C5 1.65 5 3.3 5 5 C2.03 4.505 2.03 4.505 -1 4 C-0.67 2.68 -0.34 1.36 0 0 Z " fill="#3B4244" transform="translate(8,46)"/>
<path d="M0 0 C1.5625 1.1875 1.5625 1.1875 3 3 C2.6875 5.6875 2.6875 5.6875 2 8 C0.02 8.33 -1.96 8.66 -4 9 C-4 8.01 -4 7.02 -4 6 C-2.35 5.67 -0.7 5.34 1 5 C0.67 3.35 0.34 1.7 0 0 Z " fill="#D19A8C" transform="translate(97,39)"/>
<path d="M0 0 C0.33 0 0.66 0 1 0 C1.33 2.97 1.66 5.94 2 9 C0.02 9.33 -1.96 9.66 -4 10 C-4 9.34 -4 8.68 -4 8 C-3.01 8 -2.02 8 -1 8 C-2.25541557 5.48916886 -3.50063488 5.12874554 -6 4 C-4.35 4 -2.7 4 -1 4 C-0.67 2.68 -0.34 1.36 0 0 Z " fill="#7E7C7D" transform="translate(10,36)"/>
<path d="M0 0 C2.72869407 0.03287583 5.2966618 0.56397771 8 1 C8 1.66 8 2.32 8 3 C4.92382812 3.29296875 4.92382812 3.29296875 1.84765625 3.5859375 C1.23792969 3.72257813 0.62820312 3.85921875 0 4 C-0.33 4.66 -0.66 5.32 -1 6 C-1.625 4.125 -1.625 4.125 -2 2 C-1.34 1.34 -0.68 0.68 0 0 Z " fill="#523F37" transform="translate(72,12)"/>
<path d="M0 0 C1.75091019 0.08754551 3.50079551 0.19573373 5.25 0.3125 C6.22453125 0.37050781 7.1990625 0.42851563 8.203125 0.48828125 C11.25341611 1.04636524 12.70711276 1.96369776 15 4 C13.02 4 11.04 4 9 4 C9 3.34 9 2.68 9 2 C4.545 2.495 4.545 2.495 0 3 C0 2.01 0 1.02 0 0 Z " fill="#C7C4B7" transform="translate(77,2)"/>
<path d="M0 0 C0.66 0 1.32 0 2 0 C2 3.63 2 7.26 2 11 C1.01 11 0.02 11 -1 11 C-0.67 7.37 -0.34 3.74 0 0 Z " fill="#B0B5B4" transform="translate(146,137)"/>
<path d="M0 0 C0.66 0 1.32 0 2 0 C2 2 2 2 0.609375 3.5078125 C-0.31101562 4.30832031 -0.31101562 4.30832031 -1.25 5.125 C-1.85328125 5.66382812 -2.4565625 6.20265625 -3.078125 6.7578125 C-5 8 -5 8 -9 8 C-9 7.01 -9 6.02 -9 5 C-8.071875 4.731875 -7.14375 4.46375 -6.1875 4.1875 C-3.1688359 3.06289965 -2.0844857 2.29293427 0 0 Z " fill="#30444A" transform="translate(44,95)"/>
<path d="M0 0 C0 0.66 0 1.32 0 2 C-1.32 2 -2.64 2 -4 2 C-4.33 2.99 -4.66 3.98 -5 5 C-7.31 4.01 -9.62 3.02 -12 2 C-8.00478695 0.00239347 -4.43879572 -0.10088172 0 0 Z " fill="#929B9F" transform="translate(137,88)"/>
<path d="M0 0 C0.66 0 1.32 0 2 0 C3.125 6.625 3.125 6.625 2 10 C3.32 10.33 4.64 10.66 6 11 C4.68 11.33 3.36 11.66 2 12 C0.70756464 7.8803623 -0.26252625 4.33168317 0 0 Z " fill="#C68672" transform="translate(63,63)"/>
<path d="M0 0 C0.99 0.33 1.98 0.66 3 1 C3 4.96 3 8.92 3 13 C2.34 12.67 1.68 12.34 1 12 C0.5859375 9.27734375 0.5859375 9.27734375 0.375 5.9375 C0.30023438 4.83277344 0.22546875 3.72804687 0.1484375 2.58984375 C0.09945312 1.73519531 0.05046875 0.88054688 0 0 Z " fill="#B2ABA4" transform="translate(51,47)"/>
<path d="M0 0 C0.66 0.99 1.32 1.98 2 3 C0.90554162 3.86657116 -0.20097781 4.71792724 -1.3125 5.5625 C-1.92738281 6.03816406 -2.54226562 6.51382813 -3.17578125 7.00390625 C-3.77777344 7.33261719 -4.37976563 7.66132812 -5 8 C-5.99 7.67 -6.98 7.34 -8 7 C-5.36 4.69 -2.72 2.38 0 0 Z " fill="#A98E83" transform="translate(83,82)"/>
<path d="M0 0 C0.33 0.99 0.66 1.98 1 3 C1.721875 2.814375 2.44375 2.62875 3.1875 2.4375 C6.12826973 1.98004693 8.14103058 2.26483643 11 3 C11 3.66 11 4.32 11 5 C7.7 5 4.4 5 1 5 C0.67 3.35 0.34 1.7 0 0 Z " fill="#808181" transform="translate(18,42)"/>
<path d="M0 0 C2.97 0.495 2.97 0.495 6 1 C5.01 2.98 4.02 4.96 3 7 C2.34 7 1.68 7 1 7 C0.67 4.69 0.34 2.38 0 0 Z " fill="#CFC5C3" transform="translate(99,33)"/>
<path d="M0 0 C0.99 0 1.98 0 3 0 C3 0.66 3 1.32 3 2 C3.639375 2.2475 4.27875 2.495 4.9375 2.75 C7 4 7 4 7.75 6.125 C7.8325 6.74375 7.915 7.3625 8 8 C6.68 7.34 5.36 6.68 4 6 C4 5.34 4 4.68 4 4 C3.01 4 2.02 4 1 4 C0.67 2.68 0.34 1.36 0 0 Z " fill="#846D59" transform="translate(91,14)"/>
<path d="M0 0 C0.66 1.32 1.32 2.64 2 4 C2.99 4.33 3.98 4.66 5 5 C4.67 6.32 4.34 7.64 4 9 C2.68 9 1.36 9 0 9 C0 6.03 0 3.06 0 0 Z " fill="#575E61" transform="translate(0,139)"/>
<path d="M0 0 C2.475 0.495 2.475 0.495 5 1 C4.67 2.65 4.34 4.3 4 6 C3.01 6.33 2.02 6.66 1 7 C0 6 0 6 -0.0625 2.9375 C-0.041875 1.968125 -0.02125 0.99875 0 0 Z " fill="#445A5D" transform="translate(120,88)"/>
<path d="M0 0 C2 4 2 4 2 7 C1 8 1 8 -1.5625 8.0625 C-2.366875 8.041875 -3.17125 8.02125 -4 8 C-2.68 5.36 -1.36 2.72 0 0 Z " fill="#234053" transform="translate(95,76)"/>
<path d="M0 0 C1.36125 0.12375 1.36125 0.12375 2.75 0.25 C2.75 0.91 2.75 1.57 2.75 2.25 C2.09 2.25 1.43 2.25 0.75 2.25 C0.75 2.91 0.75 3.57 0.75 4.25 C-1.89 4.25 -4.53 4.25 -7.25 4.25 C-4.83923194 1.28290085 -3.90322061 0.30024774 0 0 Z " fill="#A97E5C" transform="translate(73.25,71.75)"/>
<path d="M0 0 C1.32 0 2.64 0 4 0 C3.67 2.97 3.34 5.94 3 9 C2.67 8.01 2.34 7.02 2 6 C1.34 5.67 0.68 5.34 0 5 C0 3.35 0 1.7 0 0 Z " fill="#CF886C" transform="translate(74,63)"/>
<path d="M0 0 C1.98 0.66 3.96 1.32 6 2 C6 2.66 6 3.32 6 4 C6.99 4 7.98 4 9 4 C9.33 4.99 9.66 5.98 10 7 C6.00118212 6.38479725 3.19641774 4.39731331 0 2 C0 1.34 0 0.68 0 0 Z " fill="#B59884" transform="translate(86,14)"/>
<path d="M0 0 C0 0.33 0 0.66 0 1 C-1.65 1 -3.3 1 -5 1 C-5 1.66 -5 2.32 -5 3 C-8 3 -11 3 -14 3 C-10.07503936 -0.92496064 -5.24412188 -0.08740203 0 0 Z " fill="#6C584B" transform="translate(82,10)"/>
<path d="M0 0 C3.3 0.33 6.6 0.66 10 1 C10 1.66 10 2.32 10 3 C6.7 3 3.4 3 0 3 C0 2.01 0 1.02 0 0 Z " fill="#898B8F" transform="translate(0,109)"/>
<path d="M0 0 C0.33 0 0.66 0 1 0 C1 2.31 1 4.62 1 7 C1.66 7 2.32 7 3 7 C3 7.66 3 8.32 3 9 C1.35 9 -0.3 9 -2 9 C-2 7.35 -2 5.7 -2 4 C-1.34 4 -0.68 4 0 4 C0 2.68 0 1.36 0 0 Z " fill="#D0CEC9" transform="translate(102,20)"/>
<path d="M0 0 C-0.99 1.32 -1.98 2.64 -3 4 C-5.31 3.67 -7.62 3.34 -10 3 C-9.01 2.67 -8.02 2.34 -7 2 C-7 1.34 -7 0.68 -7 0 C-3.98968256 -0.93423645 -3.13349732 -1.04449911 0 0 Z " fill="#C6BBAB" transform="translate(76,4)"/>
<path d="M0 0 C1.32 0 2.64 0 4 0 C3.67 1.65 3.34 3.3 3 5 C1.68 5 0.36 5 -1 5 C-0.67 3.35 -0.34 1.7 0 0 Z " fill="#2E3D3E" transform="translate(10,101)"/>
<path d="M0 0 C-0.66 1.32 -1.32 2.64 -2 4 C-2.66 4 -3.32 4 -4 4 C-4.33 3.34 -4.66 2.68 -5 2 C-6.32 2.33 -7.64 2.66 -9 3 C-9.33 2.34 -9.66 1.68 -10 1 C-6.52674819 -0.1577506 -3.63932552 -0.06866652 0 0 Z " fill="#47585A" transform="translate(44,94)"/>
<path d="M0 0 C2.64 0 5.28 0 8 0 C6.35 1.65 4.7 3.3 3 5 C1.5 3.625 1.5 3.625 0 2 C0 1.34 0 0.68 0 0 Z " fill="#BDC8C7" transform="translate(134,92)"/>
<path d="M0 0 C0.66 0.33 1.32 0.66 2 1 C2 1.99 2 2.98 2 4 C2.66 4 3.32 4 4 4 C4.33 4.99 4.66 5.98 5 7 C4.01 7.33 3.02 7.66 2 8 C1.67 6.35 1.34 4.7 1 3 C0.01 3.33 -0.98 3.66 -2 4 C-2 3.01 -2 2.02 -2 1 C-1.34 0.67 -0.68 0.34 0 0 Z " fill="#333A41" transform="translate(67,88)"/>
<path d="M0 0 C0.33 0 0.66 0 1 0 C3.29612756 9.41002278 3.29612756 9.41002278 3 14 C2.34 14 1.68 14 1 14 C-0.38226016 11.23547967 -0.09525387 8.9538637 -0.0625 5.875 C-0.05347656 4.77929688 -0.04445313 3.68359375 -0.03515625 2.5546875 C-0.02355469 1.71164063 -0.01195313 0.86859375 0 0 Z " fill="#BFB3AE" transform="translate(94,56)"/>
<path d="M0 0 C0 0.66 0 1.32 0 2 C0.66 2 1.32 2 2 2 C2 2.99 2 3.98 2 5 C0.35 5 -1.3 5 -3 5 C-3.33 3.68 -3.66 2.36 -4 1 C-2 0 -2 0 0 0 Z " fill="#84634A" transform="translate(93,21)"/>
<path d="M0 0 C2.50037734 2.17424117 3.43628586 3.73045798 4 7 C2.68 6.67 1.36 6.34 0 6 C0 5.01 0 4.02 0 3 C-0.66 3 -1.32 3 -2 3 C-2 2.34 -2 1.68 -2 1 C-1.34 0.67 -0.68 0.34 0 0 Z " fill="#BBB3A8" transform="translate(97,12)"/>
<path d="M0 0 C2.64 0 5.28 0 8 0 C7.67 1.32 7.34 2.64 7 4 C6.34 4 5.68 4 5 4 C5 3.34 5 2.68 5 2 C3.35 2 1.7 2 0 2 C0 1.34 0 0.68 0 0 Z " fill="#545756" transform="translate(1,113)"/>
<path d="M0 0 C0.99 0.99 1.98 1.98 3 3 C2.67 3.99 2.34 4.98 2 6 C1.34 5.67 0.68 5.34 0 5 C-0.33 5.66 -0.66 6.32 -1 7 C-1.66 5.68 -2.32 4.36 -3 3 C-2.01 2.01 -1.02 1.02 0 0 Z " fill="#435456" transform="translate(25,101)"/>
<path d="M0 0 C0.66 0 1.32 0 2 0 C2 0.99 2 1.98 2 3 C3.65 3 5.3 3 7 3 C6.67 4.32 6.34 5.64 6 7 C5.01 6.67 4.02 6.34 3 6 C3 5.34 3 4.68 3 4 C2.01 3.67 1.02 3.34 0 3 C0 2.01 0 1.02 0 0 Z " fill="#C69D89" transform="translate(65,81)"/>
<path d="M0 0 C-0.99 0.33 -1.98 0.66 -3 1 C-3.73323796 3.01508358 -3.73323796 3.01508358 -4 5 C-5.65 5 -7.3 5 -9 5 C-7.35234966 0.05704899 -4.76872479 -0.25776891 0 0 Z " fill="#AD6A59" transform="translate(70,55)"/>
<path d="M0 0 C0.66 0 1.32 0 2 0 C2 0.66 2 1.32 2 2 C2.99 2.33 3.98 2.66 5 3 C5 3.66 5 4.32 5 5 C2.36 5 -0.28 5 -3 5 C-2.01 4.67 -1.02 4.34 0 4 C0 2.68 0 1.36 0 0 Z " fill="#97675C" transform="translate(75,40)"/>
<path d="M0 0 C0.99 0 1.98 0 3 0 C2.34 2.97 1.68 5.94 1 9 C1.66 9.33 2.32 9.66 3 10 C2.01 10.99 1.02 11.98 0 13 C0 8.71 0 4.42 0 0 Z " fill="#959293" transform="translate(0,41)"/>
<path d="M0 0 C0.66 0.33 1.32 0.66 2 1 C2 2.98 2 4.96 2 7 C1.34 7 0.68 7 0 7 C-0.33 7.66 -0.66 8.32 -1 9 C-1.09765625 2.84765625 -1.09765625 2.84765625 -1 1 C-0.67 0.67 -0.34 0.34 0 0 Z " fill="#E2C5B1" transform="translate(89,36)"/>
<path d="M0 0 C0 0.99 0 1.98 0 3 C-2.64 3 -5.28 3 -8 3 C-8 2.34 -8 1.68 -8 1 C-5.07175348 0.02391783 -3.04386724 -0.08226668 0 0 Z " fill="#CC9884" transform="translate(64,35)"/>
<path d="M0 0 C-0.66 0 -1.32 0 -2 0 C-2 1.32 -2 2.64 -2 4 C-4.31 3.67 -6.62 3.34 -9 3 C-5.83583464 -0.30799106 -4.50236011 -1.35070803 0 0 Z " fill="#A28E7B" transform="translate(76,7)"/>
<path d="M0 0 C0.66 0 1.32 0 2 0 C2 1.65 2 3.3 2 5 C3.65 5.33 5.3 5.66 7 6 C4 8 4 8 1.8125 7.625 C1.214375 7.41875 0.61625 7.2125 0 7 C0 4.69 0 2.38 0 0 Z " fill="#717275" transform="translate(0,126)"/>
<path d="M0 0 C3.00609963 1.00203321 4.06176821 1.60028446 6 4 C6 4.99 6 5.98 6 7 C6.66 7.33 7.32 7.66 8 8 C7.01 8 6.02 8 5 8 C5 7.01 5 6.02 5 5 C4.34 5 3.68 5 3 5 C2.67 5.66 2.34 6.32 2 7 C1.34 4.69 0.68 2.38 0 0 Z " fill="#AF9480" transform="translate(62,76)"/>
<path d="M0 0 C0.66 0 1.32 0 2 0 C2 1.32 2 2.64 2 4 C1.34 4 0.68 4 0 4 C0 7.3 0 10.6 0 14 C-0.33 14 -0.66 14 -1 14 C-1.02694851 12.04174127 -1.04637218 10.08337774 -1.0625 8.125 C-1.07410156 7.03445312 -1.08570312 5.94390625 -1.09765625 4.8203125 C-1 2 -1 2 0 0 Z " fill="#7D8182" transform="translate(112,68)"/>
<path d="M0 0 C1.485 0.99 1.485 0.99 3 2 C2.625 3.9375 2.625 3.9375 2 6 C1.01 6.495 1.01 6.495 0 7 C-0.38133299 5.0085944 -0.71325582 3.00720923 -1 1 C-0.67 0.67 -0.34 0.34 0 0 Z " fill="#B3C1C0" transform="translate(24,95)"/>
<path d="M0 0 C0.66 0 1.32 0 2 0 C2 2.31 2 4.62 2 7 C1.01 6.67 0.02 6.34 -1 6 C-1.042721 4.33388095 -1.04063832 2.66617115 -1 1 C-0.67 0.67 -0.34 0.34 0 0 Z " fill="#CDD4D2" transform="translate(146,93)"/>
<path d="M0 0 C1.32 0.33 2.64 0.66 4 1 C4.33 2.65 4.66 4.3 5 6 C4.01 6 3.02 6 2 6 C0 3 0 3 0 0 Z " fill="#7F685D" transform="translate(60,69)"/>
<path d="M0 0 C0.66 0.99 1.32 1.98 2 3 C1.67 3.99 1.34 4.98 1 6 C0.01 6.33 -0.98 6.66 -2 7 C-1.67 5.35 -1.34 3.7 -1 2 C-1.99 1.67 -2.98 1.34 -4 1 C-2.68 0.67 -1.36 0.34 0 0 Z " fill="#CB7964" transform="translate(73,63)"/>
<path d="M0 0 C0 0.66 0 1.32 0 2 C1.32 2.33 2.64 2.66 4 3 C0.37 3 -3.26 3 -7 3 C-3 0 -3 0 0 0 Z " fill="#C9886A" transform="translate(75,35)"/>
<path d="M0 0 C2.97 0.495 2.97 0.495 6 1 C6.33 2.32 6.66 3.64 7 5 C5.35 4.67 3.7 4.34 2 4 C2 3.34 2 2.68 2 2 C1.34 2 0.68 2 0 2 C0 1.34 0 0.68 0 0 Z " fill="#DBAE92" transform="translate(76,32)"/>
<path d="M0 0 C0.99 0.33 1.98 0.66 3 1 C3 1.66 3 2.32 3 3 C-1.38461538 6 -1.38461538 6 -4 6 C-4 5.34 -4 4.68 -4 4 C-3.34 4 -2.68 4 -2 4 C-1.34 2.68 -0.68 1.36 0 0 Z " fill="#B1A498" transform="translate(58,7)"/>
<path d="M0 0 C1.98 0 3.96 0 6 0 C6 0.99 6 1.98 6 3 C4.02 3 2.04 3 0 3 C0 2.01 0 1.02 0 0 Z " fill="#AAA9AC" transform="translate(0,103)"/>
<path d="M0 0 C0.66 0.33 1.32 0.66 2 1 C1.67 2.65 1.34 4.3 1 6 C0.34 6 -0.32 6 -1 6 C-1.33 4.35 -1.66 2.7 -2 1 C-1.34 0.67 -0.68 0.34 0 0 Z " fill="#E7A789" transform="translate(59,47)"/>
<path d="M0 0 C2.31 0.33 4.62 0.66 7 1 C7 1.99 7 2.98 7 4 C4.03 3.505 4.03 3.505 1 3 C0.67 2.01 0.34 1.02 0 0 Z " fill="#5F2F1F" transform="translate(58,39)"/>
<path d="M0 0 C2.31 0 4.62 0 7 0 C6.01 0.66 5.02 1.32 4 2 C4 2.66 4 3.32 4 4 C2.68 4 1.36 4 0 4 C0 2.68 0 1.36 0 0 Z " fill="#976551" transform="translate(55,38)"/>
<path d="M0 0 C-0.66 0.66 -1.32 1.32 -2 2 C-2.99 2 -3.98 2 -5 2 C-5 2.66 -5 3.32 -5 4 C-5.66 3.67 -6.32 3.34 -7 3 C-7 2.01 -7 1.02 -7 0 C-4.3333581 -1.33332095 -2.83319697 -0.67102033 0 0 Z " fill="#D8AB91" transform="translate(61,34)"/>
<path d="M0 0 C-0.99 0.495 -0.99 0.495 -2 1 C-2.33 1.66 -2.66 2.32 -3 3 C-4.32 2.34 -5.64 1.68 -7 1 C-7.33 1.66 -7.66 2.32 -8 3 C-8 2.01 -8 1.02 -8 0 C-4.71023192 -1.09658936 -3.28696233 -0.79953138 0 0 Z " fill="#9F8A73" transform="translate(93,13)"/>
<path d="M0 0 C0.33 0.66 0.66 1.32 1 2 C0.06553465 4.03144641 -0.93224776 6.03533587 -2 8 C-2.66 8 -3.32 8 -4 8 C-3.40072174 4.64404172 -2.15377564 2.62198774 0 0 Z " fill="#172C35" transform="translate(120,100)"/>
<path d="M0 0 C0.33 1.32 0.66 2.64 1 4 C-2.75 5.125 -2.75 5.125 -5 4 C-3.35 2.68 -1.7 1.36 0 0 Z " fill="#515F62" transform="translate(31,96)"/>
<path d="M0 0 C0.99 0.33 1.98 0.66 3 1 C2.34 2.32 1.68 3.64 1 5 C0.01 5 -0.98 5 -2 5 C-1.125 1.125 -1.125 1.125 0 0 Z " fill="#8C8D8D" transform="translate(6,91)"/>
<path d="M0 0 C2.97 0.495 2.97 0.495 6 1 C1.25 5 1.25 5 -1 5 C-0.67 3.35 -0.34 1.7 0 0 Z " fill="#BC8162" transform="translate(81,64)"/>
</svg>
