<?xml version="1.0" encoding="UTF-8"?>
<svg version="1.1" xmlns="http://www.w3.org/2000/svg" width="94" height="94">
<path d="M0 0 C2.5490904 1.6943056 4.92537595 3.48831828 7.296875 5.421875 C7.93367188 5.92203125 8.57046875 6.4221875 9.2265625 6.9375 C17.81145491 14.49220532 22.59036174 26.81288009 23.5078125 37.9921875 C24.02550959 51.97000905 19.23769955 64.40943517 9.796875 74.671875 C0.50727587 83.44460922 -11.07530268 88.35020387 -23.8515625 88.4453125 C-38.62577445 87.77854284 -50.24105867 82.39198437 -60.515625 71.734375 C-69.9751189 60.24621856 -71.89187902 46.75665466 -70.703125 32.421875 C-68.33122955 20.0051452 -61.14277379 8.59032949 -50.703125 1.421875 C-34.7820636 -7.14668683 -16.22635228 -9.47318832 0 0 Z " fill="#111C24" transform="translate(70.703125,5.578125)"/>
<path d="M0 0 C2.5490904 1.6943056 4.92537595 3.48831828 7.296875 5.421875 C7.93367188 5.92203125 8.57046875 6.4221875 9.2265625 6.9375 C17.81145491 14.49220532 22.59036174 26.81288009 23.5078125 37.9921875 C24.02550959 51.97000905 19.23769955 64.40943517 9.796875 74.671875 C0.50727587 83.44460922 -11.07530268 88.35020387 -23.8515625 88.4453125 C-38.62577445 87.77854284 -50.24105867 82.39198437 -60.515625 71.734375 C-69.9751189 60.24621856 -71.89187902 46.75665466 -70.703125 32.421875 C-68.33122955 20.0051452 -61.14277379 8.59032949 -50.703125 1.421875 C-34.7820636 -7.14668683 -16.22635228 -9.47318832 0 0 Z M-45.703125 2.421875 C-46.03686777 5.00603747 -46.03686777 5.00603747 -45.703125 7.421875 C-46.033125 7.751875 -46.363125 8.081875 -46.703125 8.421875 C-46.59187012 15.43093219 -44.80395544 19.29984084 -41.00390625 25.11328125 C-39.37927455 27.99663661 -39.18925687 30.16737681 -39.703125 33.421875 C-40.610625 33.834375 -41.518125 34.246875 -42.453125 34.671875 C-45.672228 36.1630192 -45.672228 36.1630192 -47.3984375 38.34375 C-51.03909655 41.62651375 -55.43035342 42.64949548 -60.03515625 44.1328125 C-64.10754955 45.51270238 -64.10754955 45.51270238 -67.2890625 48.28515625 C-68.44753135 54.26329265 -64.07881455 61.16708597 -61.015625 66.109375 C-54.27151934 75.55788394 -44.44022847 82.75925621 -32.9453125 85.13671875 C-19.47121073 86.85032403 -7.45313426 84.16724161 3.79296875 76.45703125 C11.91785524 69.85318435 17.7666028 60.61765976 19.703125 50.24609375 C19.8383062 47.61569294 19.44876563 45.71124327 18.2265625 43.3828125 C15.54067972 40.65343365 12.51905076 39.99725559 8.921875 39.046875 C1.30351547 36.86957852 -5.59913454 33.96170586 -12.703125 30.421875 C-12.8506214 25.57293096 -12.40318683 21.42906131 -11.203125 16.734375 C-10.27023089 13.05894497 -9.703125 10.24003556 -9.703125 6.421875 C-10.363125 6.421875 -11.023125 6.421875 -11.703125 6.421875 C-11.373125 3.781875 -11.043125 1.141875 -10.703125 -1.578125 C-21.2392402 -5.49853996 -36.78122415 -5.31043907 -45.703125 2.421875 Z " fill="#F9FAF9" transform="translate(70.703125,5.578125)"/>
<path d="M0 0 C-1.32 0.33 -2.64 0.66 -4 1 C-4 2.65 -4 4.3 -4 6 C-4.66 6 -5.32 6 -6 6 C-6 6.66 -6 7.32 -6 8 C-10.95 8.33 -15.9 8.66 -21 9 C-17.48283697 12.51716303 -15.80432667 12.54676163 -11 13 C-11 12.34 -11 11.68 -11 11 C-10.34 11 -9.68 11 -9 11 C-7.39274365 14.21451269 -7.94251815 17.43612536 -8 21 C-9.32 21 -10.64 21 -12 21 C-12.1546875 21.928125 -12.1546875 21.928125 -12.3125 22.875 C-13 25 -13 25 -16 27 C-15.505 28.485 -15.505 28.485 -15 30 C-14.505 29.505 -14.505 29.505 -14 29 C-11.66702567 28.95907063 -9.33294775 28.95758277 -7 29 C-8.98 31.475 -8.98 31.475 -11 34 C-10.01 34 -9.02 34 -8 34 C-8 34.66 -8 35.32 -8 36 C-14.4 36.36923077 -14.4 36.36923077 -17.4375 34.5 C-17.953125 34.005 -18.46875 33.51 -19 33 C-17.39673592 36.03776353 -16.16744558 37.87640922 -13.375 39.9375 C-11 42 -11 42 -10.1875 45.25 C-10.125625 46.1575 -10.06375 47.065 -10 48 C-9.113125 47.938125 -8.22625 47.87625 -7.3125 47.8125 C-3.65514983 48.01951982 -1.95222849 48.916074 1 51 C0.375 52.875 0.375 52.875 -1 55 C-6.57477613 57.71940299 -13.1499919 57.9500027 -19 56 C-17.78379415 59.01647106 -17.78379415 59.01647106 -16 62 C-13.95236766 62.73125295 -13.95236766 62.73125295 -12 63 C-12.61970499 72.80843419 -12.61970499 72.80843419 -16 77 C-16.66 77 -17.32 77 -18 77 C-18 78.32 -18 79.64 -18 81 C-17.67 81 -17.34 81 -17 81 C-16.505 84.465 -16.505 84.465 -16 88 C-27.82597374 85.35802714 -36.96128195 78.86984687 -44 69 C-46.92018921 63.77707451 -49.84395826 58.08562797 -50 52 C-46.80964248 48.80964248 -42.33672743 47.88498673 -38.1171875 46.47460938 C-33.14662441 44.71458657 -29.90900197 42.53782077 -26 39 C-23.625 37.6875 -23.625 37.6875 -22 37 C-21.2676351 32.36168898 -22.46869372 29.96436115 -24.9375 26.1875 C-28.08094505 21.29440157 -28.90803441 17.7938322 -29 12 C-28.67 11.67 -28.34 11.34 -28 11 C-27.95936168 9.33382885 -27.957279 7.66611905 -28 6 C-18.7038504 0.1899065 -10.81542017 -0.29676458 0 0 Z " fill="#216073" transform="translate(53,2)"/>
<path d="M0 0 C0.66 0 1.32 0 2 0 C1.76990234 1.80791016 1.76990234 1.80791016 1.53515625 3.65234375 C0.83639552 9.94119031 0.65087073 16.24182929 0.4375 22.5625 C0.37272461 24.36170898 0.37272461 24.36170898 0.30664062 26.19726562 C0.20143198 29.13141793 0.09929117 32.0656425 0 35 C-1.74906531 35.64836042 -3.49929219 36.29358784 -5.25 36.9375 C-6.71179687 37.47697266 -6.71179687 37.47697266 -8.203125 38.02734375 C-12.8078036 39.62869148 -16.60147708 40.15941214 -21.5 40.1875 C-22.6240625 40.20167969 -23.748125 40.21585938 -24.90625 40.23046875 C-27.89331549 40.00794746 -29.56594839 39.70963149 -32 38 C-32.75 35.375 -32.75 35.375 -33 33 C-33.99 33.495 -33.99 33.495 -35 34 C-34.49396008 31.83125748 -34.00016187 30.00032373 -33 28 C-32.34 28 -31.68 28 -31 28 C-30.855625 27.360625 -30.71125 26.72125 -30.5625 26.0625 C-30 24 -30 24 -29 23 C-28.76807135 21.48530552 -28.58784762 19.96245438 -28.4375 18.4375 C-28.35371094 17.61121094 -28.26992188 16.78492187 -28.18359375 15.93359375 C-28.12300781 15.29550781 -28.06242187 14.65742187 -28 14 C-28.63421875 13.89816406 -29.2684375 13.79632813 -29.921875 13.69140625 C-30.60765625 13.46324219 -31.2934375 13.23507813 -32 13 C-33.25 9.9375 -33.25 9.9375 -34 7 C-33.19175781 7.01160156 -32.38351563 7.02320313 -31.55078125 7.03515625 C-30.48214844 7.04417969 -29.41351563 7.05320312 -28.3125 7.0625 C-26.72888672 7.07990234 -26.72888672 7.07990234 -25.11328125 7.09765625 C-22.03313975 7.10011852 -22.03313975 7.10011852 -19.23046875 6.37109375 C-18.49441406 6.24863281 -17.75835937 6.12617187 -17 6 C-16.34 6.66 -15.68 7.32 -15 8 C-14.690625 7.34 -14.38125 6.68 -14.0625 6 C-12 4 -12 4 -9.8671875 3.83984375 C-8.26223755 3.90435138 -6.65832887 4.00786849 -5.05859375 4.15234375 C-4.03958984 4.07693359 -4.03958984 4.07693359 -3 4 C-2.34 3.01 -1.68 2.02 -1 1 C-0.67 0.67 -0.34 0.34 0 0 Z " fill="#184F60" transform="translate(68,51)"/>
<path d="M0 0 C13.03357339 4.54038417 20.58386632 11.29154135 27.35546875 23.4296875 C31.75953214 32.61939377 31.12620267 42.01596632 31 52 C30.67 52 30.34 52 30 52 C29.87625 50.9275 29.7525 49.855 29.625 48.75 C28.88124657 46.21308762 28.39240146 45.24791891 26.1328125 43.8203125 C23.45135056 42.7565194 20.75238769 41.86473483 18 41 C2.97781885 35.84288355 2.97781885 35.84288355 -3 32 C-3.23952163 26.36375658 -2.38279585 21.51426608 -1 16.0625 C-0.80921875 15.28326172 -0.6184375 14.50402344 -0.421875 13.70117188 C0.0449138 11.79900752 0.52145136 9.89923991 1 8 C0.34 8 -0.32 8 -1 8 C-0.67 5.36 -0.34 2.72 0 0 Z " fill="#FADF93" transform="translate(60,4)"/>
<path d="M0 0 C-1.32 0.33 -2.64 0.66 -4 1 C-4 2.65 -4 4.3 -4 6 C-4.66 6 -5.32 6 -6 6 C-6 6.66 -6 7.32 -6 8 C-10.95 8.33 -15.9 8.66 -21 9 C-17.48283697 12.51716303 -15.80432667 12.54676163 -11 13 C-11 12.34 -11 11.68 -11 11 C-10.34 11 -9.68 11 -9 11 C-7.39274365 14.21451269 -7.94251815 17.43612536 -8 21 C-9.32 21 -10.64 21 -12 21 C-12.103125 21.61875 -12.20625 22.2375 -12.3125 22.875 C-13 25 -13 25 -16 27 C-15.67 27.99 -15.34 28.98 -15 30 C-14.67 29.67 -14.34 29.34 -14 29 C-11.66702567 28.95907063 -9.33294775 28.95758277 -7 29 C-8.98 31.475 -8.98 31.475 -11 34 C-10.01 34 -9.02 34 -8 34 C-8 34.66 -8 35.32 -8 36 C-14.4 36.36923077 -14.4 36.36923077 -17.4375 34.5 C-17.953125 34.005 -18.46875 33.51 -19 33 C-17.39673592 36.03776353 -16.16744558 37.87640922 -13.375 39.9375 C-11 42 -11 42 -10.1875 45.25 C-10.125625 46.1575 -10.06375 47.065 -10 48 C-9.113125 47.938125 -8.22625 47.87625 -7.3125 47.8125 C-3.65514983 48.01951982 -1.95222849 48.916074 1 51 C0.1875 52.9375 0.1875 52.9375 -1 55 C-6.41192567 56.80397522 -12.62552005 56.95989615 -17.9375 54.8125 C-21.23388918 51.91567315 -23.57604544 48.63593184 -26 45 C-26 40.16722534 -25.19658087 40.19658087 -22 37 C-21.07944993 32.39724966 -22.50096067 29.94456185 -24.9375 26.1875 C-28.08094505 21.29440157 -28.90803441 17.7938322 -29 12 C-28.67 11.67 -28.34 11.34 -28 11 C-27.95936168 9.33382885 -27.957279 7.66611905 -28 6 C-18.7038504 0.1899065 -10.81542017 -0.29676458 0 0 Z " fill="#4E5953" transform="translate(53,2)"/>
<path d="M0 0 C0.33 1.98 0.66 3.96 1 6 C0.34 6 -0.32 6 -1 6 C-0.10777418 11.53180007 1.08100694 15.45638814 4.125 20.1875 C6.00576686 23.16345542 6.98806857 24.94034286 7.6875 28.4375 C7 31 7 31 4.625 32.875 C2 34 2 34 0 34 C-0.33 34.99 -0.66 35.98 -1 37 C-7.34447505 41.16437765 -14.86018319 43.57029048 -22 46 C-22.77541912 26.22681238 -22.77541912 26.22681238 -18 18 C-17.57589844 17.23558594 -17.15179687 16.47117187 -16.71484375 15.68359375 C-13.74979197 10.80240823 -6.4380239 0 0 0 Z " fill="#ABF4D7" transform="translate(25,8)"/>
<path d="M0 0 C1.258125 -0.020625 2.51625 -0.04125 3.8125 -0.0625 C4.52019531 -0.07410156 5.22789063 -0.08570313 5.95703125 -0.09765625 C8 0 8 0 11 1 C10.67 3.64 10.34 6.28 10 9 C10.66 9 11.32 9 12 9 C11.60676649 13.47044413 11.13571489 17.79103125 9.9375 22.125 C8.99043366 26.03954086 8.83410901 29.01861617 9 33 C11.64 34.32 14.28 35.64 17 37 C13 39 13 39 10 39 C10 38.01 10 37.02 10 36 C9.01 36 8.02 36 7 36 C7 33.03 7 30.06 7 27 C6.01 27 5.02 27 4 27 C4 26.34 4 25.68 4 25 C1.34771188 23.92474806 -1.28368454 22.90543849 -4 22 C-4 22.66 -4 23.32 -4 24 C-3.195625 24.226875 -2.39125 24.45375 -1.5625 24.6875 C-0.716875 25.120625 0.12875 25.55375 1 26 C1.8125 28.625 1.8125 28.625 2 31 C-0.64 31 -3.28 31 -6 31 C-5.34 30.34 -4.68 29.68 -4 29 C-4.928125 29 -5.85625 29 -6.8125 29 C-8.875 29 -10.9375 29 -13 29 C-12.6875 27.125 -12.6875 27.125 -12 25 C-11.01 24.34 -10.02 23.68 -9 23 C-8.67 22.01 -8.34 21.02 -8 20 C-6.68 20 -5.36 20 -4 20 C-4.33 16.7 -4.66 13.4 -5 10 C-5.66 10 -6.32 10 -7 10 C-7 10.66 -7 11.32 -7 12 C-9.97 12 -12.94 12 -16 12 C-16.66 10.68 -17.32 9.36 -18 8 C-17 7 -17 7 -13.62109375 6.90234375 C-12.22652923 6.90901631 -10.83198257 6.92097468 -9.4375 6.9375 C-8.72658203 6.94201172 -8.01566406 6.94652344 -7.28320312 6.95117188 C-5.52209987 6.96299136 -3.76103964 6.98092737 -2 7 C-2 6.34 -2 5.68 -2 5 C-1.34 5 -0.68 5 0 5 C0 3.35 0 1.7 0 0 Z " fill="#725A52" transform="translate(49,3)"/>
<path d="M0 0 C3.37462715 0.54723683 5.08235 1.0549 8 3 C8 3.66 8 4.32 8 5 C8.99 5 9.98 5 11 5 C11 7.97 11 10.94 11 14 C11.99 14 12.98 14 14 14 C14 14.99 14 15.98 14 17 C14.66 17 15.32 17 16 17 C16.33 16.34 16.66 15.68 17 15 C17 15.66 17 16.32 17 17 C18.32 16.67 19.64 16.34 21 16 C21.495 18.475 21.495 18.475 22 21 C22.33 20.34 22.66 19.68 23 19 C23.66 19 24.32 19 25 19 C25 20.65 25 22.3 25 24 C24.38125 24.268125 23.7625 24.53625 23.125 24.8125 C20.7004767 25.95556848 20.7004767 25.95556848 19 29 C17.88625 29.103125 16.7725 29.20625 15.625 29.3125 C11.74202115 29.6404142 11.74202115 29.6404142 9.5625 33.0625 C9.046875 34.031875 8.53125 35.00125 8 36 C7.34 34.68 6.68 33.36 6 32 C6.99 30.68 7.98 29.36 9 28 C6.1456618 26.74073315 4.01822095 26.00109326 0.875 25.8125 C-0.07375 25.544375 -1.0225 25.27625 -2 25 C-3.5 21.75 -3.5 21.75 -4.14453125 19.84375 C-5.15865171 17.65806572 -6.28552546 16.70419032 -8.1875 15.25 C-9.115625 14.5075 -10.04375 13.765 -11 13 C-11 12.01 -11 11.02 -11 10 C-10.484375 10.309375 -9.96875 10.61875 -9.4375 10.9375 C-6.33334577 12.29059287 -3.34884993 12.61359424 0 13 C0 12.34 0 11.68 0 11 C-0.99 11 -1.98 11 -3 11 C-3 10.34 -3 9.68 -3 9 C-0.03 9 2.94 9 6 9 C6 8.01 6 7.02 6 6 C5.01 5.67 4.02 5.34 3 5 C3.33 4.67 3.66 4.34 4 4 C2.68 3.34 1.36 2.68 0 2 C0 1.34 0 0.68 0 0 Z " fill="#372626" transform="translate(45,25)"/>
<path d="M0 0 C0.99 0.33 1.98 0.66 3 1 C2.01 1.33 1.02 1.66 0 2 C2.73946847 9.37517613 2.73946847 9.37517613 8 15 C11.63339519 16.07105726 15.2362987 16.61769759 19 17 C19 17.33 19 17.66 19 18 C17.56260487 18.02712066 16.12506137 18.04645067 14.6875 18.0625 C13.48673828 18.07990234 13.48673828 18.07990234 12.26171875 18.09765625 C10 18 10 18 7 17 C7 19.31 7 21.62 7 24 C4.0625 23.625 4.0625 23.625 1 23 C0.67 22.34 0.34 21.68 0 21 C-2.475 22.485 -2.475 22.485 -5 24 C-5.66 19.38 -6.32 14.76 -7 10 C-7 13.96 -7 17.92 -7 22 C-7.33 22 -7.66 22 -8 22 C-8.66 19.03 -9.32 16.06 -10 13 C-10.33 13.66 -10.66 14.32 -11 15 C-10.505 15.928125 -10.505 15.928125 -10 16.875 C-8.80467778 19.41505971 -9.07699478 20.41558539 -10 23 C-10.33 22.34 -10.66 21.68 -11 21 C-12.33333333 24 -12.33333333 24 -11 27 C-11.99 27 -12.98 27 -14 27 C-16.17032476 28.43990623 -16.17032476 28.43990623 -18 30 C-23.87658639 17.81313081 -23.87658639 17.81313081 -24 13 C-20.80964248 9.80964248 -16.33672743 8.88498673 -12.1171875 7.47460938 C-8.4172004 6.16448383 -5.61656809 4.87085143 -2.671875 2.23828125 C-1.79015625 1.49964844 -0.9084375 0.76101562 0 0 Z " fill="#1F6A79" transform="translate(27,41)"/>
<path d="M0 0 C0.66 0 1.32 0 2 0 C1.10570912 8.34671491 0.05248577 16.67207858 -1 25 C-4 23 -4 23 -5 20 C-4.92394531 20.74507812 -4.84789062 21.49015625 -4.76953125 22.2578125 C-5.06476966 25.77064916 -6.05461119 26.60711426 -8.6875 28.875 C-9.71423828 29.79925781 -9.71423828 29.79925781 -10.76171875 30.7421875 C-13 32 -13 32 -15.76953125 31.6953125 C-16.50558594 31.46585938 -17.24164063 31.23640625 -18 31 C-18.50252693 20.40505729 -17.97310347 12.9596552 -12 4 C-9.64556663 3.78915522 -7.44787441 4.00406173 -5.09375 4.1875 C-4.4028125 4.125625 -3.711875 4.06375 -3 4 C-2.34 3.01 -1.68 2.02 -1 1 C-0.67 0.67 -0.34 0.34 0 0 Z " fill="#1E5768" transform="translate(68,51)"/>
<path d="M0 0 C1.76923828 0.01353516 1.76923828 0.01353516 3.57421875 0.02734375 C4.47785156 0.03894531 5.38148437 0.05054687 6.3125 0.0625 C4.9925 0.3925 3.6725 0.7225 2.3125 1.0625 C2.3125 2.7125 2.3125 4.3625 2.3125 6.0625 C1.6525 6.0625 0.9925 6.0625 0.3125 6.0625 C0.3125 6.7225 0.3125 7.3825 0.3125 8.0625 C-4.6375 8.3925 -9.5875 8.7225 -14.6875 9.0625 C-11.17033697 12.57966303 -9.49182667 12.60926163 -4.6875 13.0625 C-4.6875 12.4025 -4.6875 11.7425 -4.6875 11.0625 C-4.0275 11.0625 -3.3675 11.0625 -2.6875 11.0625 C-1.08024365 14.27701269 -1.63001815 17.49862536 -1.6875 21.0625 C-3.0075 21.0625 -4.3275 21.0625 -5.6875 21.0625 C-5.77 21.64 -5.8525 22.2175 -5.9375 22.8125 C-6.89281013 25.6784304 -8.47219173 27.0615764 -10.6875 29.0625 C-11.6775 28.7325 -12.6675 28.4025 -13.6875 28.0625 C-13.6875 27.4025 -13.6875 26.7425 -13.6875 26.0625 C-14.6775 25.7325 -15.6675 25.4025 -16.6875 25.0625 C-18.79004829 20.48145109 -18.93725163 16.13918002 -18.8125 11.1875 C-18.79896484 10.15496094 -18.79896484 10.15496094 -18.78515625 9.1015625 C-18.76182513 7.42172162 -18.72596326 5.74206254 -18.6875 4.0625 C-6.3125 -0.0625 -6.3125 -0.0625 0 0 Z " fill="#958177" transform="translate(46.6875,1.9375)"/>
<path d="M0 0 C1.77516029 0.39782879 3.54509163 0.81903661 5.3125 1.25 C6.29863281 1.48203125 7.28476563 1.7140625 8.30078125 1.953125 C11.40115562 3.15558568 12.41002391 4.11349979 14 7 C14.38503486 11.38939738 14.47342266 13.28986601 12 17 C12 16.34 12 15.68 12 15 C11.21625 15.165 10.4325 15.33 9.625 15.5 C7 16 7 16 5 16 C4.505 16.495 4.01 16.99 3.5 17.5 C3.005 17.995 2.51 18.49 2 19 C1.34 19 0.68 19 0 19 C-0.33 19.66 -0.66 20.32 -1 21 C-1.66 21 -2.32 21 -3 21 C-3.12375 22.134375 -3.2475 23.26875 -3.375 24.4375 C-3.58125 25.613125 -3.7875 26.78875 -4 28 C-4.66 28.33 -5.32 28.66 -6 29 C-6.05447822 26.47886908 -6.09389852 23.9589415 -6.125 21.4375 C-6.14175781 20.73302734 -6.15851563 20.02855469 -6.17578125 19.30273438 C-6.22022044 14.48108178 -5.52768004 10.57702562 -4 6 C-2.68 5.67 -1.36 5.34 0 5 C0 3.35 0 1.7 0 0 Z " fill="#274450" transform="translate(76,44)"/>
<path d="M0 0 C1 3 1 3 0 6 C-0.06970052 8.39490986 -0.08448003 10.79167691 -0.0625 13.1875 C-0.05347656 14.45980469 -0.04445312 15.73210937 -0.03515625 17.04296875 C-0.02355469 18.01878906 -0.01195312 18.99460937 0 20 C1.80719922 20.74988687 1.80719922 20.74988687 4 21 C6.7944044 19.48920412 8.97199909 17.4358358 11 15 C11.58963678 12.24224658 11.58963678 12.24224658 11 10 C11.99 10 12.98 10 14 10 C14.33 10.66 14.66 11.32 15 12 C15.66 11.67 16.32 11.34 17 11 C17 15.62 17 20.24 17 25 C9.51484203 28.07083404 4.04134472 29.28669315 -4 29 C-3.91845544 25.47826604 -3.80567356 21.95818017 -3.6875 18.4375 C-3.65366211 16.9515332 -3.65366211 16.9515332 -3.61914062 15.43554688 C-3.40467966 9.56711513 -2.73081029 5.22002073 0 0 Z " fill="#113A4B" transform="translate(51,61)"/>
<path d="M0 0 C2.02138712 3.03208067 2.2959019 3.99871389 2.5625 7.46484375 C2.6361377 8.34245361 2.70977539 9.22006348 2.78564453 10.12426758 C2.85638184 11.05263428 2.92711914 11.98100098 3 12.9375 C3.65863785 20.71541419 4.5076769 28.33199939 6 36 C2.46167007 35.40632048 0.5845978 34.06937798 -2.0625 31.6875 C-2.73410156 31.09324219 -3.40570313 30.49898437 -4.09765625 29.88671875 C-5.99689773 28.00307679 -7.58789127 26.27433088 -9 24 C-9 22.68 -9 21.36 -9 20 C-6 19 -6 19 -4 19 C-4.165 18.401875 -4.33 17.80375 -4.5 17.1875 C-5.22501134 14.01557539 -5.03305498 12.09916494 -4 9 C-3.67 9.33 -3.34 9.66 -3 10 C-3.33 9.01 -3.66 8.02 -4 7 C-3.01 6.34 -2.02 5.68 -1 5 C-0.67 5.99 -0.34 6.98 0 8 C0 5.36 0 2.72 0 0 Z " fill="#124C5D" transform="translate(19,48)"/>
<path d="M0 0 C0.99 0.33 1.98 0.66 3 1 C2.01 1.33 1.02 1.66 0 2 C2.73946847 9.37517613 2.73946847 9.37517613 8 15 C11.63339519 16.07105726 15.2362987 16.61769759 19 17 C19 17.33 19 17.66 19 18 C17.56260487 18.02712066 16.12506137 18.04645067 14.6875 18.0625 C13.48673828 18.07990234 13.48673828 18.07990234 12.26171875 18.09765625 C10 18 10 18 7 17 C7 19.31 7 21.62 7 24 C4.0625 23.625 4.0625 23.625 1 23 C0.67 22.34 0.34 21.68 0 21 C-1.65 21.99 -3.3 22.98 -5 24 C-5.36263859 18.1977825 -4.25684543 14.36000789 -2 9 C-1.01 9.99 -0.02 10.98 1 12 C0.67 11.484375 0.34 10.96875 0 10.4375 C-1.33034575 7.19478222 -1.19642371 4.47015228 -1 1 C-0.67 0.67 -0.34 0.34 0 0 Z " fill="#2F6C79" transform="translate(27,41)"/>
<path d="M0 0 C0.66 0.33 1.32 0.66 2 1 C2.81135517 3.56731726 3.50015883 6.07473823 4.125 8.6875 C4.30675781 9.39583984 4.48851562 10.10417969 4.67578125 10.83398438 C5.69329502 14.97671902 6.20309098 18.70124097 6 23 C3.03 23 0.06 23 -3 23 C-3.66 21.02 -4.32 19.04 -5 17 C-5.66 17.33 -6.32 17.66 -7 18 C-6.49396008 15.83125748 -6.00016187 14.00032373 -5 12 C-4.34 12 -3.68 12 -3 12 C-2.7834375 11.0409375 -2.7834375 11.0409375 -2.5625 10.0625 C-2 8 -2 8 -1 7 C-0.63239269 4.67182036 -0.29758419 2.3381615 0 0 Z " fill="#0D3F51" transform="translate(40,67)"/>
<path d="M0 0 C3.875 1.75 3.875 1.75 5 4 C7.97253671 4.42549233 10.88701731 4.75138511 13.875 5 C15.51890076 5.13805698 17.16219428 5.28359918 18.8046875 5.4375 C19.53671387 5.49808594 20.26874023 5.55867188 21.02294922 5.62109375 C23 6 23 6 26 8 C25.1875 9.9375 25.1875 9.9375 24 12 C18.58807433 13.80397522 12.37447995 13.95989615 7.0625 11.8125 C3.05630229 8.29190201 0.61735941 5.40189485 0 0 Z " fill="#C8AE98" transform="translate(28,45)"/>
<path d="M0 0 C8.14137214 6.65488565 8.14137214 6.65488565 11 11 C11 12.32 11 13.64 11 15 C12.98 15 14.96 15 17 15 C17 15.33 17 15.66 17 16 C10.90218999 16.22084624 5.78357065 16.01167675 0 14 C0 13.34 0 12.68 0 12 C-1.32 12 -2.64 12 -4 12 C-4.625 10.125 -4.625 10.125 -5 8 C-3.66666667 6.66666667 -2.33333333 5.33333333 -1 4 C-0.3574765 1.93125966 -0.3574765 1.93125966 0 0 Z " fill="#AC9280" transform="translate(32,35)"/>
<path d="M0 0 C3.37462715 0.54723683 5.08235 1.0549 8 3 C8.69723753 6.71278983 8.58148089 10.27400598 8 14 C5.71109551 16.584247 4.18408248 16.83726895 0.83984375 17.296875 C-3.25828571 17.54317326 -5.46977366 17.31380743 -9.0625 15.1875 C-11 13 -11 13 -11 10 C-10.484375 10.309375 -9.96875 10.61875 -9.4375 10.9375 C-6.33334577 12.29059287 -3.34884993 12.61359424 0 13 C0 12.34 0 11.68 0 11 C-0.99 11 -1.98 11 -3 11 C-3 10.34 -3 9.68 -3 9 C-0.03 9 2.94 9 6 9 C6 8.01 6 7.02 6 6 C5.01 5.67 4.02 5.34 3 5 C3.33 4.67 3.66 4.34 4 4 C2.68 3.34 1.36 2.68 0 2 C0 1.34 0 0.68 0 0 Z " fill="#262125" transform="translate(45,25)"/>
<path d="M0 0 C0.33 0.66 0.66 1.32 1 2 C2.32 1.67 3.64 1.34 5 1 C5.33 2.65 5.66 4.3 6 6 C6.33 5.34 6.66 4.68 7 4 C7.66 4 8.32 4 9 4 C9 5.65 9 7.3 9 9 C8.38125 9.268125 7.7625 9.53625 7.125 9.8125 C4.7004767 10.95556848 4.7004767 10.95556848 3 14 C1.88625 14.103125 0.7725 14.20625 -0.375 14.3125 C-4.25797885 14.6404142 -4.25797885 14.6404142 -6.4375 18.0625 C-6.953125 19.031875 -7.46875 20.00125 -8 21 C-8.66 19.68 -9.32 18.36 -10 17 C-9.278125 16.4225 -8.55625 15.845 -7.8125 15.25 C-3.63664776 11.1576648 -2.01052506 5.36425196 0 0 Z " fill="#1C272B" transform="translate(61,40)"/>
<path d="M0 0 C0.66 0 1.32 0 2 0 C0.99868626 7.00919621 -3.04914273 13.30618604 -8.2421875 18.046875 C-10.12094075 19.45092547 -12.00328796 20.77085519 -14 22 C-14.28623634 14.70097342 -12.27318258 10.39758414 -9 4 C-6.525 4.99 -6.525 4.99 -4 6 C-3.071875 4.515 -3.071875 4.515 -2.125 3 C-1.42375 2.01 -0.7225 1.02 0 0 Z " fill="#1F4457" transform="translate(86,61)"/>
<path d="M0 0 C1.258125 -0.020625 2.51625 -0.04125 3.8125 -0.0625 C4.52019531 -0.07410156 5.22789063 -0.08570313 5.95703125 -0.09765625 C8 0 8 0 11 1 C10.67 3.64 10.34 6.28 10 9 C10.66 9 11.32 9 12 9 C11.48517081 14.852795 10.54642808 20.3297637 9 26 C8.67 26 8.34 26 8 26 C7.34 19.73 6.68 13.46 6 7 C3.36 7 0.72 7 -2 7 C-2 6.34 -2 5.68 -2 5 C-1.34 5 -0.68 5 0 5 C0 3.35 0 1.7 0 0 Z " fill="#806847" transform="translate(49,3)"/>
<path d="M0 0 C3.54971796 0.60852308 6.76693609 1.38346804 10 3 C10.33 3.99 10.66 4.98 11 6 C9.625 7.5 9.625 7.5 8 9 C7.34 9 6.68 9 6 9 C5.34 14.61 4.68 20.22 4 26 C3.67 26 3.34 26 3 26 C1.75672222 20.15659442 2.42699038 15.73303505 4 10 C3.34 10 2.68 10 2 10 C1.67 11.32 1.34 12.64 1 14 C-5.625 15.125 -5.625 15.125 -9 14 C-9 13.67 -9 13.34 -9 13 C-7.88625 12.896875 -6.7725 12.79375 -5.625 12.6875 C-4.42875 12.460625 -3.2325 12.23375 -2 12 C-1.34 11.01 -0.68 10.02 0 9 C0.99 8.67 1.98 8.34 3 8 C3.33 6.35 3.66 4.7 4 3 C3.34 3 2.68 3 2 3 C1.67 3.99 1.34 4.98 1 6 C0 5 0 5 -0.0625 2.4375 C-0.041875 1.633125 -0.02125 0.82875 0 0 Z " fill="#1A3039" transform="translate(66,41)"/>
<path d="M0 0 C1.5625 1.25 1.5625 1.25 3 3 C2.6875 5.1875 2.6875 5.1875 2 7 C0.02 6.01 -1.96 5.02 -4 4 C-4 4.66 -4 5.32 -4 6 C-3.195625 6.226875 -2.39125 6.45375 -1.5625 6.6875 C-0.716875 7.120625 0.12875 7.55375 1 8 C1.8125 10.625 1.8125 10.625 2 13 C-0.64 13 -3.28 13 -6 13 C-5.34 12.34 -4.68 11.68 -4 11 C-4.928125 11 -5.85625 11 -6.8125 11 C-8.875 11 -10.9375 11 -13 11 C-12.45440934 7.18086537 -11.0538034 5.33053417 -8 3 C-5.67612053 2.60612212 -3.34206251 2.26513915 -1 2 C-0.67 1.34 -0.34 0.68 0 0 Z " fill="#3C2C2C" transform="translate(49,21)"/>
<path d="M0 0 C0 0.66 0 1.32 0 2 C-5.47619048 7 -5.47619048 7 -8 7 C-8.33 6.34 -8.66 5.68 -9 5 C-11.02463255 4.34786708 -11.02463255 4.34786708 -13 4 C-13 4.66 -13 5.32 -13 6 C-15.97 6 -18.94 6 -22 6 C-22.66 4.68 -23.32 3.36 -24 2 C-22.47266859 0.47266859 -21.01424842 0.78550195 -18.88671875 0.68359375 C-17.6327832 0.62075195 -17.6327832 0.62075195 -16.35351562 0.55664062 C-15.47373047 0.51732422 -14.59394531 0.47800781 -13.6875 0.4375 C-12.38522461 0.37272461 -12.38522461 0.37272461 -11.05664062 0.30664062 C-7.36265396 0.12803651 -3.69992943 0 0 0 Z " fill="#373036" transform="translate(55,9)"/>
<path d="M0 0 C0.33 0 0.66 0 1 0 C2.67959957 7.30139977 3.18982084 13.58773774 2 21 C1.67 21 1.34 21 1 21 C1 19.35 1 17.7 1 16 C0.34 16 -0.32 16 -1 16 C-1.6878236 18.35367713 -1.6878236 18.35367713 -2 21 C-1.34 21.99 -0.68 22.98 0 24 C-0.99 24 -1.98 24 -3 24 C-6.1782099 20.7309841 -7 19.67834007 -7 15 C-4 14 -4 14 -2 14 C-2.165 13.401875 -2.33 12.80375 -2.5 12.1875 C-3.22501134 9.01557539 -3.03305498 7.09916494 -2 4 C-1.67 4.33 -1.34 4.66 -1 5 C-1.33 4.01 -1.66 3.02 -2 2 C-1.34 1.34 -0.68 0.68 0 0 Z " fill="#124D5F" transform="translate(17,53)"/>
<path d="M0 0 C0.33 0 0.66 0 1 0 C1.3227506 4.62609198 0.84450614 7.28026121 -2 11 C-2.66 11 -3.32 11 -4 11 C-4 12.32 -4 13.64 -4 15 C-3.67 15 -3.34 15 -3 15 C-2.67 17.31 -2.34 19.62 -2 22 C-8.61983471 20.52892562 -8.61983471 20.52892562 -10.4375 18 C-11 16 -11 16 -11 14 C-10.34 14 -9.68 14 -9 14 C-9 13.34 -9 12.68 -9 12 C-8.175 11.566875 -7.35 11.13375 -6.5 10.6875 C-5.2625 9.8521875 -5.2625 9.8521875 -4 9 C-3.58219121 6.37305578 -3.58219121 6.37305578 -4 4 C-3.34 4 -2.68 4 -2 4 C-1.34 2.68 -0.68 1.36 0 0 Z " fill="#165062" transform="translate(39,68)"/>
<path d="M0 0 C0 1.32 0 2.64 0 4 C-0.66 4 -1.32 4 -2 4 C-2.66 6.97 -3.32 9.94 -4 13 C-7 10 -7 10 -8 8 C-10.1385485 10.1385485 -10.42655063 11.13275314 -11 14 C-11.38909985 12.54536519 -11.76088029 11.08608793 -12.125 9.625 C-12.33382813 8.81289063 -12.54265625 8.00078125 -12.7578125 7.1640625 C-12.83773438 6.44992188 -12.91765625 5.73578125 -13 5 C-10.79970166 2.79970166 -9.4218744 2.31417391 -6.5 1.375 C-5.30890625 0.98441406 -5.30890625 0.98441406 -4.09375 0.5859375 C-2 0 -2 0 0 0 Z " fill="#266E7F" transform="translate(16,49)"/>
<path d="M0 0 C1 3 1 3 -0.21484375 5.91796875 C-0.78332031 6.99691406 -1.35179687 8.07585938 -1.9375 9.1875 C-2.50339844 10.27417969 -3.06929687 11.36085938 -3.65234375 12.48046875 C-4.09707031 13.31191406 -4.54179688 14.14335937 -5 15 C-5.99 14.67 -6.98 14.34 -8 14 C-8 13.34 -8 12.68 -8 12 C-8.99 11.67 -9.98 11.34 -11 11 C-11.33 9.02 -11.66 7.04 -12 5 C-9.525 6.485 -9.525 6.485 -7 8 C-6.566875 7.175 -6.13375 6.35 -5.6875 5.5 C-5.130625 4.675 -4.57375 3.85 -4 3 C-3.01 3 -2.02 3 -1 3 C-0.67 2.01 -0.34 1.02 0 0 Z " fill="#9E8575" transform="translate(41,16)"/>
<path d="M0 0 C0.66 0.66 1.32 1.32 2 2 C2.99 2 3.98 2 5 2 C5 6.62 5 11.24 5 16 C4.34 16 3.68 16 3 16 C2.67 14.02 2.34 12.04 2 10 C1.401875 10.495 0.80375 10.99 0.1875 11.5 C-2 13 -2 13 -5 13 C-3 9 -3 9 -1.9375 7.0625 C-0.87796466 4.73152226 -0.41973913 2.51843478 0 0 Z " fill="#164253" transform="translate(63,70)"/>
<path d="M0 0 C3.16115776 1.36983503 3.9927092 1.9890638 6 5 C6 6.32 6 7.64 6 9 C7.98 9 9.96 9 12 9 C12 9.33 12 9.66 12 10 C9.36 10 6.72 10 4 10 C4 9.34 4 8.68 4 8 C3.236875 8.04125 2.47375 8.0825 1.6875 8.125 C-1 8 -1 8 -4 6 C-4.1875 3.375 -4.1875 3.375 -4 1 C-2.68 1.33 -1.36 1.66 0 2 C0 1.34 0 0.68 0 0 Z " fill="#906E63" transform="translate(37,41)"/>
<path d="M0 0 C0 0.33 0 0.66 0 1 C-3.3 1.33 -6.6 1.66 -10 2 C-10.66 3.65 -11.32 5.3 -12 7 C-14.97 7 -17.94 7 -21 7 C-21 6.01 -21 5.02 -21 4 C-21.66 3.67 -22.32 3.34 -23 3 C-15.2370239 0.05602712 -8.25552919 -0.34937193 0 0 Z " fill="#B59F8F" transform="translate(53,2)"/>
<path d="M0 0 C1.33332095 2.6666419 0.67102033 4.16680303 0 7 C-1.98 7 -3.96 7 -6 7 C-6 9.31 -6 11.62 -6 14 C-8.64 14 -11.28 14 -14 14 C-12.68 13.67 -11.36 13.34 -10 13 C-10.33 9.7 -10.66 6.4 -11 3 C-10.01 3.33 -9.02 3.66 -8 4 C-8 4.66 -8 5.32 -8 6 C-5.46326712 4.6446674 -5.46326712 4.6446674 -3 3 C-3 2.34 -3 1.68 -3 1 C-2.01 0.67 -1.02 0.34 0 0 Z " fill="#4A3A3F" transform="translate(55,10)"/>
<path d="M0 0 C2 2 2 2 2.125 5.125 C2.08375 6.07375 2.0425 7.0225 2 8 C0.54293274 8.50367757 -0.91570096 9.00282556 -2.375 9.5 C-3.18710937 9.7784375 -3.99921875 10.056875 -4.8359375 10.34375 C-7 11 -7 11 -9 11 C-9 9.35 -9 7.7 -9 6 C-8.43410156 5.73445313 -7.86820313 5.46890625 -7.28515625 5.1953125 C-6.55167969 4.84210938 -5.81820312 4.48890625 -5.0625 4.125 C-4.33160156 3.77695313 -3.60070313 3.42890625 -2.84765625 3.0703125 C-0.83667541 2.1315023 -0.83667541 2.1315023 0 0 Z " fill="#183443" transform="translate(64,79)"/>
<path d="M0 0 C0.33 0 0.66 0 1 0 C1.66 5.94 2.32 11.88 3 18 C-1 17 -1 17 -2.125 15.1875 C-2.558125 14.1046875 -2.558125 14.1046875 -3 13 C-3.61875 12.01 -3.61875 12.01 -4.25 11 C-5 9 -5 9 -4.125 6.75 C-3.75375 6.1725 -3.3825 5.595 -3 5 C-2.34 5 -1.68 5 -1 5 C-0.67 3.35 -0.34 1.7 0 0 Z " fill="#134252" transform="translate(19,64)"/>
<path d="M0 0 C1.134375 0.020625 2.26875 0.04125 3.4375 0.0625 C2.1175 1.7125 0.7975 3.3625 -0.5625 5.0625 C0.4275 5.0625 1.4175 5.0625 2.4375 5.0625 C2.4375 5.7225 2.4375 6.3825 2.4375 7.0625 C-4.93563433 7.34608209 -4.93563433 7.34608209 -8.5625 5.0625 C-9.2225 4.7325 -9.8825 4.4025 -10.5625 4.0625 C-10.2325 3.0725 -9.9025 2.0825 -9.5625 1.0625 C-8.3559375 1.0934375 -8.3559375 1.0934375 -7.125 1.125 C-3.7197753 1.04194574 -3.77608415 0.06624709 0 0 Z " fill="#464247" transform="translate(42.5625,30.9375)"/>
<path d="M0 0 C0.33 0.99 0.66 1.98 1 3 C2.65 2.67 4.3 2.34 6 2 C6 4 6 4 4.6875 5.375 C4.130625 5.91125 3.57375 6.4475 3 7 C1.98199424 8.31963709 0.97751635 9.65009646 0 11 C-2 10 -4 9 -6 8 C-6 7.34 -6 6.68 -6 6 C-4.34997172 4.64613064 -2.6825613 3.31321858 -1 2 C-0.67 1.34 -0.34 0.68 0 0 Z " fill="#192B37" transform="translate(82,57)"/>
<path d="M0 0 C-0.33 2.64 -0.66 5.28 -1 8 C-1.99 7.67 -2.98 7.34 -4 7 C-4 12.28 -4 17.56 -4 23 C-4.66 23.33 -5.32 23.66 -6 24 C-6.05447822 21.47886908 -6.09389852 18.9589415 -6.125 16.4375 C-6.14175781 15.73302734 -6.15851563 15.02855469 -6.17578125 14.30273438 C-6.22015077 9.48864166 -5.66911423 5.53462152 -4 1 C-2 0 -2 0 0 0 Z " fill="#224554" transform="translate(76,49)"/>
<path d="M0 0 C3.54971796 0.60852308 6.76693609 1.38346804 10 3 C10.33 3.99 10.66 4.98 11 6 C9.75 7.5625 9.75 7.5625 8 9 C5.8125 8.6875 5.8125 8.6875 4 8 C4 6.35 4 4.7 4 3 C3.34 3 2.68 3 2 3 C1.67 3.99 1.34 4.98 1 6 C0 5 0 5 -0.0625 2.4375 C-0.041875 1.633125 -0.02125 0.82875 0 0 Z " fill="#30403A" transform="translate(66,41)"/>
<path d="M0 0 C0.99 0 1.98 0 3 0 C2.75 2.375 2.75 2.375 2 5 C-0.94751382 6.94746449 -3.26535169 7.22748966 -6.75 7.125 C-7.54921875 7.10695313 -8.3484375 7.08890625 -9.171875 7.0703125 C-9.77515625 7.04710937 -10.3784375 7.02390625 -11 7 C-11.33 6.01 -11.66 5.02 -12 4 C-11.21753906 3.87882812 -10.43507812 3.75765625 -9.62890625 3.6328125 C-8.11103516 3.38144531 -8.11103516 3.38144531 -6.5625 3.125 C-5.55316406 2.96257813 -4.54382812 2.80015625 -3.50390625 2.6328125 C-2.67761719 2.42398438 -1.85132813 2.21515625 -1 2 C-0.67 1.34 -0.34 0.68 0 0 Z " fill="#16171B" transform="translate(50,35)"/>
<path d="M0 0 C3.42025316 3.42025316 3.95344801 7.71982025 4.125 12.4375 C4.08375 13.283125 4.0425 14.12875 4 15 C1.03 15 -1.94 15 -5 15 C-5 14.34 -5 13.68 -5 13 C-3.02 13 -1.04 13 1 13 C0.67 12.34 0.34 11.68 0 11 C-0.07033769 9.12620395 -0.0843022 7.24998898 -0.0625 5.375 C-0.05347656 4.37210937 -0.04445313 3.36921875 -0.03515625 2.3359375 C-0.01775391 1.17964844 -0.01775391 1.17964844 0 0 Z " fill="#103140" transform="translate(42,75)"/>
<path d="M0 0 C1.5 1.0625 1.5 1.0625 3 3 C3.1875 6.6875 3.1875 6.6875 3 10 C2.01 10 1.02 10 0 10 C0 9.01 0 8.02 0 7 C-1.65 7 -3.3 7 -5 7 C-4.60196439 4.11424181 -4.20990931 3.17810487 -1.9375 1.25 C-1.298125 0.8375 -0.65875 0.425 0 0 Z " fill="#3B5452" transform="translate(87,48)"/>
<path d="M0 0 C0.66 0 1.32 0 2 0 C2 1.65 2 3.3 2 5 C1.360625 5.12375 0.72125 5.2475 0.0625 5.375 C-0.618125 5.58125 -1.29875 5.7875 -2 6 C-2.33 6.66 -2.66 7.32 -3 8 C-5.5 8.6875 -5.5 8.6875 -8 9 C-8.33 8.67 -8.66 8.34 -9 8 C-9.66 8.99 -10.32 9.98 -11 11 C-11.33 8.69 -11.66 6.38 -12 4 C-11.37351563 4.03480469 -10.74703125 4.06960937 -10.1015625 4.10546875 C-9.28429688 4.13253906 -8.46703125 4.15960938 -7.625 4.1875 C-6.40683594 4.23970703 -6.40683594 4.23970703 -5.1640625 4.29296875 C-4.44992188 4.19628906 -3.73578125 4.09960938 -3 4 C-2.34 3.01 -1.68 2.02 -1 1 C-0.67 0.67 -0.34 0.34 0 0 Z " fill="#194A59" transform="translate(68,51)"/>
<path d="M0 0 C2.97 0.33 5.94 0.66 9 1 C9 2.98 9 4.96 9 7 C3.53571429 6.39285714 3.53571429 6.39285714 1.125 4.625 C0 3 0 3 0 0 Z " fill="#D7BEA6" transform="translate(32,51)"/>
<path d="M0 0 C0.66 0 1.32 0 2 0 C1.67 3.3 1.34 6.6 1 10 C0.34 10 -0.32 10 -1 10 C-1.66 10.99 -2.32 11.98 -3 13 C-4.4783226 10.04335481 -4.06032783 7.25770263 -4 4 C-3.34 4 -2.68 4 -2 4 C-1.34 2.68 -0.68 1.36 0 0 Z " fill="#244F60" transform="translate(76,52)"/>
<path d="M0 0 C0 0.66 0 1.32 0 2 C0.66 2.66 1.32 3.32 2 4 C-0.6855594 6.6855594 -3.37621328 7.06049974 -7 8 C-7.33 6.68 -7.66 5.36 -8 4 C-3.375 0 -3.375 0 0 0 Z " fill="#40363D" transform="translate(44,25)"/>
<path d="M0 0 C0 0.66 0 1.32 0 2 C-5.47619048 7 -5.47619048 7 -8 7 C-9.625 5.625 -9.625 5.625 -11 4 C-11 3.34 -11 2.68 -11 2 C-7.12315913 0.80712589 -4.08378077 0 0 0 Z " fill="#232025" transform="translate(55,9)"/>
<path d="M0 0 C1.98 0 3.96 0 6 0 C6 1.98 6 3.96 6 6 C3.36 6.33 0.72 6.66 -2 7 C-2 6.34 -2 5.68 -2 5 C-1.34 5 -0.68 5 0 5 C0 3.35 0 1.7 0 0 Z " fill="#55403B" transform="translate(49,3)"/>
<path d="M0 0 C0.94875 0.04125 1.8975 0.0825 2.875 0.125 C2.875 1.775 2.875 3.425 2.875 5.125 C0.565 5.455 -1.745 5.785 -4.125 6.125 C-4.75 4.25 -4.75 4.25 -5.125 2.125 C-3.125 0.125 -3.125 0.125 0 0 Z " fill="#A08173" transform="translate(46.125,2.875)"/>
<path d="M0 0 C0 0.99 0 1.98 0 3 C-0.66 3 -1.32 3 -2 3 C-2.33 3.99 -2.66 4.98 -3 6 C-3.66 6.66 -4.32 7.32 -5 8 C-5.6425235 10.06874034 -5.6425235 10.06874034 -6 12 C-6.38909985 10.54536519 -6.76088029 9.08608793 -7.125 7.625 C-7.33382813 6.81289063 -7.54265625 6.00078125 -7.7578125 5.1640625 C-7.83773438 4.44992188 -7.91765625 3.73578125 -8 3 C-5.48696401 0.48696401 -3.51117809 0 0 0 Z " fill="#227E84" transform="translate(11,51)"/>
<path d="M0 0 C2.50037734 2.17424117 3.43628586 3.73045798 4 7 C3.01 6.34 2.02 5.68 1 5 C-0.32 7.31 -1.64 9.62 -3 12 C-3.33 12 -3.66 12 -4 12 C-4.22893297 8.96663814 -4.36475845 6.02534949 -4 3 C-2 0.9375 -2 0.9375 0 0 Z " fill="#1B6676" transform="translate(25,48)"/>
<path d="M0 0 C1.98 0 3.96 0 6 0 C6 2.97 6 5.94 6 9 C5.01 9 4.02 9 3 9 C2.01 6.03 1.02 3.06 0 0 Z " fill="#5B433D" transform="translate(50,21)"/>
<path d="M0 0 C0.66 0 1.32 0 2 0 C1.46884894 4.51478398 -0.36620292 7.34666857 -3 11 C-4.32 10.67 -5.64 10.34 -7 10 C-6.66226563 9.52949219 -6.32453125 9.05898437 -5.9765625 8.57421875 C-5.53054687 7.95160156 -5.08453125 7.32898438 -4.625 6.6875 C-4.18414062 6.07261719 -3.74328125 5.45773438 -3.2890625 4.82421875 C-2.16589093 3.2347608 -1.07958553 1.61937829 0 0 Z " fill="#233F4E" transform="translate(86,61)"/>
<path d="M0 0 C0.99 0 1.98 0 3 0 C3 0.66 3 1.32 3 2 C3.78375 2.103125 4.5675 2.20625 5.375 2.3125 C8 3 8 3 10 6 C7.69 6.33 5.38 6.66 3 7 C0 2.25 0 2.25 0 0 Z " fill="#185769" transform="translate(34,58)"/>
<path d="M0 0 C0.33 0 0.66 0 1 0 C1.33 1.98 1.66 3.96 2 6 C1.34 6 0.68 6 0 6 C0.09539063 6.62648438 0.19078125 7.25296875 0.2890625 7.8984375 C0.39992188 8.71570312 0.51078125 9.53296875 0.625 10.375 C0.74101562 11.18710937 0.85703125 11.99921875 0.9765625 12.8359375 C0.98429687 13.55007812 0.99203125 14.26421875 1 15 C0.34 15.66 -0.32 16.32 -1 17 C-2.35550385 14.2889923 -2.16917207 12.08660831 -2.1875 9.0625 C-2.20167969 8.00160156 -2.21585938 6.94070312 -2.23046875 5.84765625 C-2 3 -2 3 0 0 Z " fill="#B1DDB4" transform="translate(24,8)"/>
<path d="M0 0 C5.445 1.485 5.445 1.485 11 3 C9.02 3.99 9.02 3.99 7 5 C5.29078411 6.5412312 5.29078411 6.5412312 4 8 C4 7.01 4 6.02 4 5 C2.68 5 1.36 5 0 5 C0 3.35 0 1.7 0 0 Z " fill="#425A4F" transform="translate(76,44)"/>
<path d="M0 0 C0.66 0 1.32 0 2 0 C2 2.64 2 5.28 2 8 C0.68 8 -0.64 8 -2 8 C-2.33 9.32 -2.66 10.64 -3 12 C-3.66 12 -4.32 12 -5 12 C-3.41037341 7.96479403 -1.71767682 3.98188718 0 0 Z " fill="#BA9D8E" transform="translate(43,15)"/>
<path d="M0 0 C0.33 1.32 0.66 2.64 1 4 C-4.6932495 5.18609365 -8.42567486 4.66251802 -14 3 C-14 2.67 -14 2.34 -14 2 C-12.04200486 1.66468585 -10.08359226 1.33180857 -8.125 1 C-6.48917969 0.7215625 -6.48917969 0.7215625 -4.8203125 0.4375 C-2 0 -2 0 0 0 Z " fill="#1C4450" transform="translate(51,57)"/>
<path d="M0 0 C2.5 2.3125 2.5 2.3125 5 5 C5 5.99 5 6.98 5 8 C4.01 8 3.02 8 2 8 C1.34 8.66 0.68 9.32 0 10 C0 9.01 0 8.02 0 7 C-0.99 6.67 -1.98 6.34 -3 6 C-2.34 5.34 -1.68 4.68 -1 4 C-0.3574765 1.93125966 -0.3574765 1.93125966 0 0 Z " fill="#918176" transform="translate(32,35)"/>
<path d="M0 0 C2.29013653 3.4352048 2.17842973 4.985331 2 9 C1.01 9.33 0.02 9.66 -1 10 C-1.66 9.67 -2.32 9.34 -3 9 C-2.5020163 5.26512223 -2.12508244 3.18762365 0 0 Z " fill="#191A1D" transform="translate(60,43)"/>
<path d="M0 0 C1.18851563 0.00902344 2.37703125 0.01804688 3.6015625 0.02734375 C4.51679687 0.03894531 5.43203125 0.05054687 6.375 0.0625 C6.375 0.3925 6.375 0.7225 6.375 1.0625 C3.075 1.3925 -0.225 1.7225 -3.625 2.0625 C-4.285 3.7125 -4.945 5.3625 -5.625 7.0625 C-6.615 6.7325 -7.605 6.4025 -8.625 6.0625 C-8.625 4.4125 -8.625 2.7625 -8.625 1.0625 C-5.74084117 -0.37957941 -3.20778472 -0.03144887 0 0 Z " fill="#AC9287" transform="translate(46.625,1.9375)"/>
<path d="M0 0 C3.875 1.75 3.875 1.75 5 4 C6.88764903 4.68472665 6.88764903 4.68472665 9.0625 5.125 C9.79597656 5.29257812 10.52945313 5.46015625 11.28515625 5.6328125 C11.85105469 5.75398438 12.41695312 5.87515625 13 6 C9.61682513 6.97591583 7.4342662 6.85856655 4 6 C3.67 6.66 3.34 7.32 3 8 C0 3.375 0 3.375 0 0 Z " fill="#C8B09B" transform="translate(28,45)"/>
<path d="M0 0 C0.66 0 1.32 0 2 0 C2.33 3.63 2.66 7.26 3 11 C2.01 10.67 1.02 10.34 0 10 C-0.625 8.0625 -0.625 8.0625 -1 6 C-1.33 5.34 -1.66 4.68 -2 4 C-1.0625 1.875 -1.0625 1.875 0 0 Z " fill="#0C2D3D" transform="translate(16,69)"/>
<path d="M0 0 C2.5 2.25 2.5 2.25 5 5 C5 6.32 5 7.64 5 9 C6.98 9 8.96 9 11 9 C11 9.33 11 9.66 11 10 C8.36 10 5.72 10 3 10 C2.01 6.7 1.02 3.4 0 0 Z " fill="#7A5952" transform="translate(38,41)"/>
<path d="M0 0 C3.2542015 2.83430453 4.5206753 4.68607774 5 9 C3.68 9 2.36 9 1 9 C0.67 6.03 0.34 3.06 0 0 Z " fill="#175B70" transform="translate(8,58)"/>
<path d="M0 0 C1.60379341 -0.05416188 3.20811406 -0.09286638 4.8125 -0.125 C5.70582031 -0.14820313 6.59914063 -0.17140625 7.51953125 -0.1953125 C10 0 10 0 13 2 C12.34 3.32 11.68 4.64 11 6 C10.34 6 9.68 6 9 6 C9 4.35 9 2.7 9 1 C6.36 1.66 3.72 2.32 1 3 C0.67 2.01 0.34 1.02 0 0 Z " fill="#9F8778" transform="translate(41,51)"/>
<path d="M0 0 C0.515625 0.309375 1.03125 0.61875 1.5625 0.9375 C4.66665423 2.29059287 7.65115007 2.61359424 11 3 C11 2.34 11 1.68 11 1 C11.99 1.33 12.98 1.66 14 2 C13.34 2 12.68 2 12 2 C12 2.66 12 3.32 12 4 C9.36 4 6.72 4 4 4 C3.67 4.66 3.34 5.32 3 6 C1.5 4.6875 1.5 4.6875 0 3 C0 2.01 0 1.02 0 0 Z " fill="#282C33" transform="translate(34,35)"/>
<path d="M0 0 C1.2077558 3.62326739 0.54311128 4.64146369 -1 8 C-2.32 8 -3.64 8 -5 8 C-4.67 6.35 -4.34 4.7 -4 3 C-3.01 3 -2.02 3 -1 3 C-0.67 2.01 -0.34 1.02 0 0 Z " fill="#796261" transform="translate(41,16)"/>
<path d="M0 0 C2.44860063 0.86421199 4.12800001 2.10960715 6.125 3.75 C3.815 4.08 1.505 4.41 -0.875 4.75 C-0.875 3.76 -0.875 2.77 -0.875 1.75 C-1.865 1.42 -2.855 1.09 -3.875 0.75 C-1.875 -0.25 -1.875 -0.25 0 0 Z " fill="#51523D" transform="translate(59.875,37.25)"/>
<path d="M0 0 C0.99 0.33 1.98 0.66 3 1 C2.979375 1.886875 2.95875 2.77375 2.9375 3.6875 C2.99286219 6.62169631 3.3305734 9.15493696 4 12 C1.95780294 10.30820672 1.08206694 9.36272334 0.48828125 6.73828125 C0.43027344 5.93777344 0.37226563 5.13726562 0.3125 4.3125 C0.24675781 3.50425781 0.18101563 2.69601563 0.11328125 1.86328125 C0.07589844 1.24839844 0.03851562 0.63351562 0 0 Z " fill="#8F7B6E" transform="translate(24,14)"/>
<path d="M0 0 C0.99 0 1.98 0 3 0 C3 2.97 3 5.94 3 9 C2.34 9 1.68 9 1 9 C0.67 6.03 0.34 3.06 0 0 Z " fill="#463730" transform="translate(53,30)"/>
<path d="M0 0 C4.75 0.75 4.75 0.75 7 3 C6.625 5.125 6.625 5.125 6 7 C5.01 6.34 4.02 5.68 3 5 C3.33 4.67 3.66 4.34 4 4 C2.68 3.34 1.36 2.68 0 2 C0 1.34 0 0.68 0 0 Z " fill="#18171B" transform="translate(45,25)"/>
<path d="M0 0 C0.99 0.33 1.98 0.66 3 1 C3 5 3 5 2 7 C0.68 7 -0.64 7 -2 7 C-1.34 4.69 -0.68 2.38 0 0 Z " fill="#1D4E62" transform="translate(75,69)"/>
<path d="M0 0 C0.66 0 1.32 0 2 0 C2 1.65 2 3.3 2 5 C-1.01031744 5.93423645 -1.86650268 6.04449911 -5 5 C-4.34 4.67 -3.68 4.34 -3 4 C-2.34 3.01 -1.68 2.02 -1 1 C-0.67 0.67 -0.34 0.34 0 0 Z " fill="#1F3F4D" transform="translate(68,51)"/>
<path d="M0 0 C0.66 0.66 1.32 1.32 2 2 C1.625 4.125 1.625 4.125 1 6 C-0.32 6 -1.64 6 -3 6 C-2.42655063 3.13275314 -2.1385485 2.1385485 0 0 Z " fill="#335862" transform="translate(85,49)"/>
<path d="M0 0 C0 1.32 0 2.64 0 4 C-0.66 4 -1.32 4 -2 4 C-2.33 4.66 -2.66 5.32 -3 6 C-3.66 5.67 -4.32 5.34 -5 5 C-5 3.68 -5 2.36 -5 1 C-2 0 -2 0 0 0 Z " fill="#1E7880" transform="translate(16,49)"/>
<path d="M0 0 C-4.30769231 3.07692308 -4.30769231 3.07692308 -7.8125 2.6875 C-8.534375 2.460625 -9.25625 2.23375 -10 2 C-10 1.34 -10 0.68 -10 0 C-2.25 -1.125 -2.25 -1.125 0 0 Z " fill="#191C24" transform="translate(48,39)"/>
<path d="M0 0 C0.66 0 1.32 0 2 0 C2.33 2.97 2.66 5.94 3 9 C2.34 9 1.68 9 1 9 C-0.4783226 6.04335481 -0.06032783 3.25770263 0 0 Z " fill="#8F714D" transform="translate(55,3)"/>
<path d="M0 0 C1.20221634 2.40443268 1.68863844 4.32229059 2 7 C1.0625 9.8125 1.0625 9.8125 0 12 C-0.33 12 -0.66 12 -1 12 C-1.02687279 10.18757948 -1.04633715 8.37504767 -1.0625 6.5625 C-1.07410156 5.55316406 -1.08570312 4.54382813 -1.09765625 3.50390625 C-1 1 -1 1 0 0 Z " fill="#1A303E" transform="translate(71,72)"/>
<path d="M0 0 C0.78375 0.04125 1.5675 0.0825 2.375 0.125 C-2.375 5 -2.375 5 -4.625 6.125 C-4.625 1.71963177 -4.59063093 0.21860147 0 0 Z " fill="#727878" transform="translate(76.625,76.875)"/>
<path d="M0 0 C2.31 0 4.62 0 7 0 C6.67 1.65 6.34 3.3 6 5 C5.67 4.34 5.34 3.68 5 3 C3.35636866 2.27840576 1.68949614 1.60648579 0 1 C0 0.67 0 0.34 0 0 Z " fill="#513E3A" transform="translate(49,50)"/>
<path d="M0 0 C0 0.99 0 1.98 0 3 C-2.64 3 -5.28 3 -8 3 C-5.53387212 -0.1151089 -3.89156016 -0.31553191 0 0 Z " fill="#402E31" transform="translate(51,31)"/>
<path d="M0 0 C0.99 0 1.98 0 3 0 C2.75 2.375 2.75 2.375 2 5 C-0.0625 6.3125 -0.0625 6.3125 -2 7 C-2 6.34 -2 5.68 -2 5 C-1.34 5 -0.68 5 0 5 C0 3.35 0 1.7 0 0 Z " fill="#674A44" transform="translate(49,3)"/>
<path d="M0 0 C0.66 0 1.32 0 2 0 C1.1875 2.9375 1.1875 2.9375 0 6 C-0.99 6.33 -1.98 6.66 -3 7 C-2.38722388 4.03824877 -1.74627478 2.61941217 0 0 Z " fill="#1F5E6E" transform="translate(49,60)"/>
<path d="M0 0 C1.5625 1.0625 1.5625 1.0625 3 3 C2.6875 6.6875 2.6875 6.6875 2 10 C-0.13262124 6.80106814 -0.59021548 4.77001757 -1 1 C-0.67 0.67 -0.34 0.34 0 0 Z " fill="#35848F" transform="translate(4,53)"/>
<path d="M0 0 C0.66 0 1.32 0 2 0 C1.74438677 2.3431213 1.40729228 4.67843403 1 7 C0.01 7.495 0.01 7.495 -1 8 C-1.04241723 5.66705225 -1.04092937 3.33297433 -1 1 C-0.67 0.67 -0.34 0.34 0 0 Z " fill="#2F5A68" transform="translate(76,52)"/>
<path d="M0 0 C1.32 1.65 2.64 3.3 4 5 C3.67 5.66 3.34 6.32 3 7 C0.69 7 -1.62 7 -4 7 C-2.68 6.67 -1.36 6.34 0 6 C0 4.02 0 2.04 0 0 Z " fill="#70544E" transform="translate(45,17)"/>
<path d="M0 0 C0.33 0.66 0.66 1.32 1 2 C0.67 2.99 0.34 3.98 0 5 C-1.98 5.33 -3.96 5.66 -6 6 C-4.11192137 3.30274481 -2.80175356 1.86783571 0 0 Z " fill="#3C3439" transform="translate(55,10)"/>
<path d="M0 0 C0.6875 1.6875 0.6875 1.6875 1 4 C-0.4375 6.75 -0.4375 6.75 -2 9 C-3 6 -3 6 -1.5625 2.8125 C-1.046875 1.884375 -0.53125 0.95625 0 0 Z " fill="#0F202B" transform="translate(74,68)"/>
<path d="M0 0 C2.97 0.33 5.94 0.66 9 1 C9 1.66 9 2.32 9 3 C6.03 2.67 3.06 2.34 0 2 C0 1.34 0 0.68 0 0 Z " fill="#E1C6AD" transform="translate(32,51)"/>
<path d="M0 0 C2.31 0 4.62 0 7 0 C6.67 0.66 6.34 1.32 6 2 C3.67843403 2.40729228 1.3431213 2.74438677 -1 3 C-0.67 2.01 -0.34 1.02 0 0 Z " fill="#866164" transform="translate(39,31)"/>
<path d="M0 0 C1.98 0.99 3.96 1.98 6 3 C5.34 3.66 4.68 4.32 4 5 C1.875 4.625 1.875 4.625 0 4 C0.33 3.67 0.66 3.34 1 3 C0.34 2.34 -0.32 1.68 -1 1 C-0.67 0.67 -0.34 0.34 0 0 Z " fill="#2D2429" transform="translate(44,26)"/>
</svg>
